<svg width="500" height="500" viewBox="0 0 500 500" fill="none" xmlns="http://www.w3.org/2000/svg">
<g clip-path="url(#clip0_363_2787)">
<rect width="500" height="500" fill="#1B161F"/>
<path d="M387.288 360.057H178.832V360.155H387.288V360.057ZM168.729 267.276V218.654L81.5089 360.058H168.729V334.533H127.235L168.729 267.276ZM418.713 360.058H178.833V217.111H206.551L285.8 295.523V207.005H175.914L250.112 86.6966L302.201 171.178L272.22 171.146L250.112 135.319L221.738 181.317H311.451V324.329H283.701L204.484 245.916V310.877H204.517V334.466H372.955L321.522 251.1V202.478L418.713 360.058ZM256.054 76.4934L271.077 100.903C344.225 111.139 400.71 174.132 400.71 250.083C400.71 267.013 397.89 283.318 392.707 298.541L409.272 325.444C420.129 302.577 426.23 277.052 426.23 250.116C426.23 154.446 349.605 76.3292 254.512 74L256.054 76.4934ZM340.909 370.16C315.651 389.321 284.161 400.705 250.113 400.705C216.064 400.705 184.574 389.321 159.317 370.16H121.398C153.577 404.642 199.369 426.23 250.113 426.23C300.856 426.23 346.648 404.642 378.827 370.16H340.909ZM107.491 298.509C102.308 283.318 99.5199 267.013 99.5199 250.083C99.5199 174.164 156.005 111.172 229.153 100.936L244.176 76.5265L245.718 74C150.625 76.3623 74 154.446 74 250.083C74 277.019 80.068 302.544 90.9259 325.412L107.491 298.509Z" fill="#C9B6D7"/>
</g>
<defs>
<clipPath id="clip0_363_2787">
<rect width="500" height="500" rx="250" fill="white"/>
</clipPath>
</defs>
</svg>
