<svg width="125" height="32" viewBox="0 0 125 32" fill="none" xmlns="http://www.w3.org/2000/svg">
<path d="M27.89 25.4664H9.33254V25.4751H27.89V25.4664ZM8.43311 17.2066V12.8779L0.668469 25.4665H8.43311V23.1941H4.73913L8.43311 17.2066ZM30.6876 25.4665H9.3326V12.7405H11.8001L18.8551 19.7212V11.8409H9.07273L15.6781 1.13038L20.3152 8.6514L17.6462 8.64851L15.6781 5.459L13.1521 9.55398H21.1387V22.2857H18.6683L11.6161 15.305V21.0882H11.6191V23.1882H26.614L22.0352 15.7665V11.4379L30.6876 25.4665ZM16.207 0.222035L17.5445 2.3951C24.0564 3.30639 29.0848 8.91434 29.0848 15.676C29.0848 17.1831 28.8338 18.6347 28.3723 19.99L29.847 22.385C30.8136 20.3492 31.3567 18.0768 31.3567 15.6789C31.3567 7.16183 24.5353 0.207417 16.0698 6.10352e-05L16.207 0.222035ZM23.7611 26.3658C21.5126 28.0716 18.7092 29.0851 15.6781 29.0851C12.647 29.0851 9.84369 28.0716 7.59522 26.3658H4.21957C7.08426 29.4356 11.1607 31.3575 15.6781 31.3575C20.1955 31.3575 24.2721 29.4356 27.1368 26.3658H23.7611ZM2.98149 19.9871C2.52007 18.6347 2.27187 17.1831 2.27187 15.676C2.27187 8.91723 7.30035 3.30934 13.8122 2.39804L15.1497 0.224984L15.2869 6.10352e-05C6.82144 0.210365 0 7.16183 0 15.676C0 18.0739 0.540195 20.3463 1.5068 22.3821L2.98149 19.9871Z" fill="#F2EDE5"/>
<path d="M49.7623 5.74978V5.90455H49.4966C49.2513 5.90455 49.041 5.998 48.8658 6.17905C48.6906 6.36303 48.5972 6.58788 48.5884 6.85946V14.9192C48.5884 15.3252 48.6059 15.6814 48.638 15.9822C48.6731 16.2859 48.714 16.5984 48.7636 16.9225H48.6322L41.4019 9.83516L41.4107 15.5909H41.4136C41.4136 15.8537 41.5012 16.0786 41.6764 16.2655C41.8516 16.4524 42.0619 16.5458 42.3072 16.5458H42.5875V16.7035H37.6875V16.5458H37.9649C38.2102 16.5458 38.4205 16.4524 38.5957 16.2655C38.7709 16.0786 38.8585 15.8537 38.8585 15.5909V7.46979C38.8585 6.87698 38.8001 6.22286 38.6833 5.51324H38.8293L46.0479 12.6035V6.85946C46.0391 6.58788 45.9486 6.36303 45.7763 6.17905C45.6069 5.998 45.3938 5.90455 45.1397 5.90455H44.8623V5.74978H49.7623Z" fill="#F2EDE5"/>
<path d="M60.9839 16.5458V16.7035H61.1328V16.5458H60.9839Z" fill="#F2EDE5"/>
<path d="M60.3184 16.3208C60.1199 16.1953 59.9476 15.9967 59.8045 15.728L55.2637 5.40509H55.1323C55.1206 5.53066 55.0826 5.69711 55.0125 5.90445C54.9454 6.1147 54.8636 6.33372 54.7702 6.56149C54.6796 6.79219 54.595 7.00245 54.522 7.19518C54.4489 7.39083 54.3876 7.52224 54.338 7.59525L50.8834 15.8069L50.8776 15.8127C50.7462 16.0376 50.5914 16.207 50.4133 16.3208C50.1739 16.4698 49.9432 16.5457 49.7183 16.5457H49.584V16.7034H52.7991V16.5457H52.6647C52.5479 16.5457 52.4282 16.5077 52.3056 16.4289C52.1829 16.35 52.0982 16.2391 52.0486 16.0931C52.0019 15.9471 52.0194 15.7689 52.1099 15.5616H52.0924L52.7669 13.8708H56.0696L56.7121 15.5616H56.7004C56.8289 15.8741 56.8172 16.1164 56.6653 16.2887C56.5135 16.461 56.3383 16.5457 56.1426 16.5457H56.0112V16.7034H60.9842V16.5457C60.7681 16.5399 60.5462 16.4639 60.3184 16.3208ZM53.056 13.1495L54.4548 9.6394L55.7922 13.1495H53.056Z" fill="#F2EDE5"/>
<path d="M60.9839 16.5458V16.7035H61.1328V16.5458H60.9839Z" fill="#F2EDE5"/>
<path d="M73.0589 5.74978V5.90455H72.7961C72.5508 5.90455 72.3406 5.998 72.1654 6.17905C71.9902 6.36303 71.8967 6.58788 71.8879 6.85946V14.9192C71.8879 15.3252 71.9025 15.6814 71.9376 15.9822C71.9726 16.2859 72.0135 16.5984 72.0632 16.9225H71.9317L64.7015 9.83516L64.7102 15.5909C64.7102 15.8537 64.7978 16.0786 64.973 16.2655C65.1482 16.4524 65.3585 16.5458 65.6038 16.5458H65.8841V16.7035H61.1301V16.5458H61.2615C61.5068 16.5458 61.7171 16.4524 61.8923 16.2655C62.0675 16.0786 62.1551 15.8537 62.1551 15.5909V7.46979C62.1551 6.87698 62.0967 6.22286 61.9799 5.51324H62.1259L69.3445 12.6035V6.85946C69.3357 6.58788 69.2452 6.36303 69.0729 6.17905C68.9036 5.998 68.6904 5.90455 68.4363 5.90455H68.156V5.74978H73.056H73.0589Z" fill="#F2EDE5"/>
<path d="M84.7311 16.4901C84.6142 16.528 84.4974 16.5455 84.3865 16.5455H84.2551V16.7032H83.6827C83.5864 16.7032 83.3995 16.6974 83.125 16.6857C82.8505 16.6769 82.5409 16.6331 82.1934 16.5543C81.8459 16.4755 81.4985 16.3382 81.1451 16.1396C80.7918 15.9411 80.4852 15.649 80.2194 15.2636C80.161 15.1789 80.0647 15.0329 79.9274 14.8255C79.7902 14.6153 79.6354 14.3758 79.466 14.1042C79.2937 13.8327 79.1156 13.5552 78.9287 13.2691C78.7448 12.98 78.5725 12.7142 78.4148 12.4689C78.26 12.2236 78.0819 11.9462 77.8862 11.6337L81.4284 6.56133C81.4284 6.56133 81.4371 6.54965 81.4401 6.54381C81.516 6.3978 81.5218 6.25763 81.4605 6.1233C81.3875 5.96853 81.2473 5.88968 81.0429 5.88968H80.894V5.74951H84.3427V5.88968H84.2843C83.9631 5.88968 83.6623 5.95977 83.3819 6.09994C83.125 6.23135 82.9001 6.40072 82.7132 6.60805L80.0179 10.0568L83.5513 15.468C83.7762 15.8213 84.0127 16.0871 84.2638 16.2652C84.4098 16.3703 84.5646 16.4463 84.7311 16.4901Z" fill="#F2EDE5"/>
<path d="M77.4187 6.89131V15.5614C77.4275 15.833 77.5238 16.0637 77.7049 16.2564C77.8859 16.4492 78.102 16.5455 78.3561 16.5455H78.5488V16.7032H73.6897V16.5455H73.8824C74.1365 16.5455 74.3526 16.4492 74.5336 16.2564C74.7147 16.0637 74.811 15.833 74.8198 15.5614V6.89131C74.811 6.61974 74.7147 6.38904 74.5336 6.19338C74.3526 6.00065 74.1365 5.90428 73.8824 5.90428H73.6897V5.74951H78.5488V5.90428H78.3561C78.102 5.90428 77.8859 6.00065 77.7049 6.19338C77.5238 6.38904 77.4275 6.61974 77.4187 6.89131Z" fill="#F2EDE5"/>
<path d="M95.6848 16.5457C95.46 16.5457 95.2264 16.4698 94.9869 16.3208C94.7854 16.1924 94.6131 15.9938 94.4759 15.7251L89.9321 5.40509H89.8007C89.792 5.53066 89.7511 5.69711 89.6839 5.90445C89.6168 6.1147 89.535 6.33372 89.4416 6.56149C89.3481 6.79219 89.2663 7.00245 89.1933 7.19518C89.1203 7.39083 89.059 7.52224 89.0094 7.59525L85.5578 15.7952L85.5519 15.8069C85.4205 16.0347 85.2628 16.207 85.0847 16.3208C84.965 16.3939 84.8482 16.4523 84.7314 16.4902C84.6146 16.5282 84.4977 16.5457 84.3868 16.5457H84.2554V16.7034H87.4675V16.5457H87.3361C87.2193 16.5457 87.0996 16.5077 86.9769 16.4289C86.8543 16.35 86.7696 16.2391 86.72 16.0931C86.6703 15.9471 86.6908 15.7689 86.7784 15.5616H86.7609L87.4354 13.8708H90.741L91.3834 15.5616H91.3718C91.4973 15.8741 91.4857 16.1164 91.3338 16.2887C91.182 16.461 91.0097 16.5457 90.814 16.5457H90.6826V16.7034H95.8016V16.5457H95.6848ZM87.7245 13.1495L89.1262 9.6394L90.4636 13.1495H87.7245Z" fill="#F2EDE5"/>
<path d="M99.545 6.89131V15.5614C99.5537 15.833 99.6471 16.0637 99.8282 16.2564C100.009 16.4492 100.228 16.5455 100.482 16.5455H100.672V16.7032H95.8159V16.5455H96.0086C96.2627 16.5455 96.4788 16.4492 96.6598 16.2564C96.8409 16.0637 96.9373 15.833 96.946 15.5614V6.89131C96.9373 6.61974 96.8409 6.38904 96.6598 6.19338C96.4788 6.00065 96.2627 5.90428 96.0086 5.90428H95.8159V5.74951H100.672V5.90428H100.482C100.228 5.90428 100.009 6.00065 99.8282 6.19338C99.6471 6.38904 99.5537 6.61974 99.545 6.89131Z" fill="#F2EDE5"/>
<path d="M113.629 5.74978V5.90455H113.366C113.121 5.90455 112.911 5.998 112.735 6.17905C112.557 6.36303 112.464 6.58788 112.455 6.85946V14.9192C112.455 15.3252 112.473 15.6814 112.508 15.9822C112.54 16.2859 112.581 16.5984 112.63 16.9225H112.499L105.269 9.83516L105.277 15.5909H105.28C105.28 15.8537 105.368 16.0786 105.543 16.2655C105.721 16.4524 105.932 16.5458 106.177 16.5458H106.454V16.7035H101.554V16.5458H101.832C102.077 16.5458 102.287 16.4524 102.462 16.2655C102.64 16.0786 102.728 15.8537 102.728 15.5909V7.46979C102.728 6.87698 102.67 6.22286 102.55 5.51324H102.699L109.918 12.6035V6.85946C109.906 6.58788 109.815 6.36303 109.646 6.17905C109.474 5.998 109.26 5.90455 109.006 5.90455H108.729V5.74978H113.629Z" fill="#F2EDE5"/>
<path d="M124.883 16.5457C124.658 16.5457 124.425 16.4698 124.185 16.3208C123.987 16.1953 123.814 15.9967 123.671 15.728L119.13 5.40509H118.999C118.987 5.53066 118.949 5.69711 118.882 5.90445C118.812 6.1147 118.733 6.33372 118.64 6.56149C118.546 6.79219 118.462 7.00245 118.389 7.19518C118.316 7.39083 118.254 7.52224 118.208 7.59525L114.75 15.8069V15.8127C114.616 16.0376 114.461 16.207 114.28 16.3208C114.041 16.4698 113.81 16.5457 113.585 16.5457H113.454V16.7034H116.666V16.5457H116.534C116.418 16.5457 116.295 16.5077 116.175 16.4289C116.053 16.35 115.965 16.2391 115.918 16.0931C115.869 15.9471 115.889 15.7689 115.977 15.5616H115.959L116.634 13.8708H119.936L120.579 15.5616H120.567C120.696 15.8741 120.684 16.1164 120.532 16.2887C120.38 16.461 120.205 16.5457 120.009 16.5457H119.878V16.7034H125V16.5457H124.883ZM116.923 13.1495L118.322 9.6394L119.659 13.1495H116.923Z" fill="#F2EDE5"/>
<path d="M37.7168 23.4025L38.9637 23.2799C39.1038 24.0975 39.5623 24.5063 40.342 24.5063C40.7274 24.5063 41.0311 24.4217 41.2502 24.2552C41.4721 24.0888 41.5801 23.8814 41.5801 23.6332C41.5801 23.4872 41.5422 23.3645 41.4633 23.2623C41.3874 23.1601 41.2677 23.0784 41.11 23.0112C40.9523 22.944 40.5698 22.836 39.9653 22.6812C39.4221 22.544 39.025 22.395 38.771 22.2373C38.5198 22.0767 38.3183 21.8665 38.1694 21.6066C38.0205 21.3467 37.9446 21.0663 37.9446 20.7656C37.9446 20.4151 38.0409 20.1027 38.2307 19.8223C38.4205 19.542 38.6863 19.3317 39.0221 19.1886C39.3579 19.0455 39.7726 18.9755 40.269 18.9755C41.0107 18.9755 41.5918 19.1419 42.0094 19.4777C42.427 19.8136 42.646 20.2925 42.6723 20.9145L41.3932 20.97C41.3378 20.6254 41.2151 20.3859 41.0311 20.2487C40.8443 20.1114 40.5814 20.0443 40.2369 20.0443C39.8923 20.0443 39.6295 20.1027 39.4426 20.2224C39.2557 20.3421 39.1652 20.4881 39.1652 20.6663C39.1652 20.8444 39.2499 20.9875 39.4192 21.1043C39.5886 21.2211 39.9741 21.3554 40.5814 21.4956C41.2239 21.6504 41.6853 21.811 41.9714 21.9833C42.2576 22.1556 42.4737 22.3746 42.6255 22.6432C42.7774 22.9119 42.8504 23.239 42.8504 23.6244C42.8504 24.1793 42.6431 24.6465 42.2313 25.0261C41.8196 25.4058 41.1742 25.5927 40.2982 25.5927C38.7505 25.5927 37.8861 24.8597 37.7109 23.3967L37.7168 23.4025Z" fill="#F2EDE5"/>
<path d="M45.3501 25.4875V20.1698H43.4724V19.0864H48.4921V20.1698H46.6203V25.4875H45.3471H45.3501Z" fill="#F2EDE5"/>
<path d="M49.3069 19.0891H50.5801V22.5553C50.5801 23.0927 50.5947 23.4431 50.6268 23.6066C50.6823 23.8899 50.8166 24.106 51.0298 24.2607C51.2429 24.4155 51.5233 24.4914 51.8708 24.4914C52.1657 24.4914 52.4052 24.436 52.592 24.3279C52.7789 24.2199 52.9045 24.068 52.9746 23.8753C53.0418 23.6825 53.0768 23.2679 53.0768 22.6283V19.0891H54.35V22.4502C54.35 23.3088 54.2945 23.9278 54.1835 24.3133C54.0726 24.6988 53.8244 25.0054 53.436 25.2419C53.0476 25.4785 52.5366 25.5982 51.9029 25.5982C51.2692 25.5982 50.729 25.4989 50.3611 25.3033C49.9902 25.1076 49.7245 24.8302 49.558 24.4739C49.3916 24.1177 49.3069 23.4606 49.3069 22.5028V19.0891Z" fill="#F2EDE5"/>
<path d="M55.6848 19.0891H58.0122C58.5991 19.0891 59.043 19.1445 59.3438 19.2526C59.6416 19.3606 59.919 19.5446 60.1702 19.8045C60.4213 20.0644 60.6199 20.4002 60.7629 20.812C60.906 21.2266 60.979 21.7377 60.979 22.3538C60.979 22.9058 60.9031 23.3876 60.7542 23.7964C60.6023 24.2053 60.4125 24.5294 60.1818 24.7689C59.9511 25.0083 59.6708 25.1865 59.3438 25.3091C59.0167 25.4288 58.5962 25.4902 58.0793 25.4902H55.6848V19.092V19.0891ZM56.9551 20.1724V24.4068H57.9129C58.3217 24.4068 58.6196 24.3746 58.8035 24.3104C58.9875 24.2461 59.1393 24.1498 59.2562 24.0213C59.373 23.8928 59.4722 23.6884 59.5482 23.408C59.6241 23.1277 59.665 22.7627 59.665 22.3042C59.665 21.8457 59.627 21.4573 59.5452 21.1828C59.4664 20.9083 59.3438 20.6952 59.1773 20.5375C59.0109 20.3798 58.8094 20.2776 58.5699 20.2279C58.3918 20.19 58.0472 20.1724 57.5333 20.1724H56.9551Z" fill="#F2EDE5"/>
<path d="M62.0239 25.4872V19.0891H63.2971V25.4872H62.0239Z" fill="#F2EDE5"/>
<path d="M64.2581 22.3275C64.2581 21.5653 64.3924 20.9374 64.664 20.4439C64.9355 19.9504 65.2918 19.5825 65.7298 19.343C66.1678 19.1006 66.6993 18.9809 67.3242 18.9809C68.2295 18.9809 68.9653 19.2671 69.5348 19.8394C70.1042 20.4118 70.3904 21.2295 70.3904 22.2895C70.3904 23.3495 70.0896 24.1964 69.4851 24.8009C68.9566 25.3324 68.2382 25.601 67.3301 25.601C66.4219 25.601 65.6948 25.3382 65.1633 24.8096C64.5617 24.2081 64.2581 23.3817 64.2581 22.3304V22.3275ZM65.5721 22.2837C65.5721 23.0195 65.7415 23.5715 66.0773 23.9394C66.4131 24.3074 66.8307 24.4913 67.3301 24.4913C67.8294 24.4913 68.247 24.3103 68.577 23.9423C68.9069 23.5773 69.0705 23.0166 69.0705 22.2603C69.0705 21.504 68.9098 20.9696 68.5886 20.6162C68.2674 20.2629 67.8469 20.0847 67.3271 20.0847C66.8073 20.0847 66.3839 20.2629 66.0598 20.6221C65.7327 20.9812 65.5692 21.5332 65.5692 22.2866L65.5721 22.2837Z" fill="#F2EDE5"/>
</svg>
