<svg width="32" height="32" viewBox="0 0 32 32" fill="none" xmlns="http://www.w3.org/2000/svg">
<path d="M22.0003 14H19.0003C18.7351 14 18.4807 13.8946 18.2932 13.7071C18.1056 13.5196 18.0003 13.2652 18.0003 13C18.0003 12.7348 18.1056 12.4804 18.2932 12.2929C18.4807 12.1054 18.7351 12 19.0003 12H22.0003C22.2655 12 22.5199 12.1054 22.7074 12.2929C22.8949 12.4804 23.0003 12.7348 23.0003 13C23.0003 13.2652 22.8949 13.5196 22.7074 13.7071C22.5199 13.8946 22.2655 14 22.0003 14ZM13.0003 12H12.0003V11C12.0003 10.7348 11.8949 10.4804 11.7074 10.2929C11.5199 10.1054 11.2655 10 11.0003 10C10.7351 10 10.4807 10.1054 10.2932 10.2929C10.1056 10.4804 10.0003 10.7348 10.0003 11V12H9.00029C8.73507 12 8.48072 12.1054 8.29318 12.2929C8.10565 12.4804 8.00029 12.7348 8.00029 13C8.00029 13.2652 8.10565 13.5196 8.29318 13.7071C8.48072 13.8946 8.73507 14 9.00029 14H10.0003V15C10.0003 15.2652 10.1056 15.5196 10.2932 15.7071C10.4807 15.8946 10.7351 16 11.0003 16C11.2655 16 11.5199 15.8946 11.7074 15.7071C11.8949 15.5196 12.0003 15.2652 12.0003 15V14H13.0003C13.2655 14 13.5199 13.8946 13.7074 13.7071C13.8949 13.5196 14.0003 13.2652 14.0003 13C14.0003 12.7348 13.8949 12.4804 13.7074 12.2929C13.5199 12.1054 13.2655 12 13.0003 12ZM30.1853 25.0812C29.8084 25.6194 29.3183 26.0686 28.7493 26.3971C28.1803 26.7256 27.5462 26.9255 26.8917 26.9828C26.2372 27.0401 25.5781 26.9534 24.9606 26.7288C24.3432 26.5041 23.7825 26.147 23.3178 25.6825C23.3028 25.6675 23.2878 25.6525 23.274 25.6362L18.3103 20H13.6853L8.72654 25.6362L8.68279 25.6825C7.83804 26.5254 6.69365 26.9992 5.50029 27C4.84334 26.9998 4.1944 26.8557 3.59908 26.5779C3.00375 26.3001 2.47647 25.8953 2.05427 25.392C1.63208 24.8886 1.3252 24.299 1.15521 23.6644C0.985221 23.0298 0.956235 22.3657 1.07029 21.7188C1.06969 21.7129 1.06969 21.7071 1.07029 21.7013L3.11654 11.19C3.42108 9.45634 4.32686 7.88546 5.67473 6.75339C7.02261 5.62133 8.72633 5.0005 10.4865 5H21.5003C23.2552 5.0028 24.9537 5.62008 26.3009 6.74466C27.6481 7.86924 28.559 9.4301 28.8753 11.1562C28.8753 11.1637 28.8753 11.1713 28.8753 11.1788L30.9215 21.7C30.9221 21.7058 30.9221 21.7117 30.9215 21.7175C31.0274 22.299 31.0169 22.8958 30.8905 23.4732C30.7641 24.0506 30.5244 24.5971 30.1853 25.0812ZM21.5003 18C22.959 18 24.3579 17.4205 25.3894 16.3891C26.4208 15.3576 27.0003 13.9587 27.0003 12.5C27.0003 11.0413 26.4208 9.64236 25.3894 8.61091C24.3579 7.57946 22.959 7 21.5003 7H10.4865C9.19523 7.00116 7.94569 7.45767 6.95775 8.28922C5.96982 9.12076 5.30678 10.2741 5.08529 11.5463V11.5625L3.03779 22.0737C2.94729 22.5949 3.02439 23.1313 3.25801 23.6058C3.49163 24.0803 3.86973 24.4685 4.33793 24.7145C4.80613 24.9606 5.3403 25.0518 5.86362 24.9751C6.38694 24.8983 6.87244 24.6576 7.25029 24.2875L12.4903 18.3388C12.5841 18.2323 12.6995 18.1471 12.8288 18.0886C12.9581 18.0302 13.0984 18 13.2403 18H21.5003ZM28.9628 22.0737L27.8703 16.4487C27.1984 17.5337 26.2607 18.4293 25.146 19.0508C24.0313 19.6722 22.7765 19.9989 21.5003 20H20.9753L24.7503 24.2887C25.0349 24.5656 25.3811 24.771 25.7605 24.8881C26.1399 25.0052 26.5416 25.0307 26.9328 24.9625C27.5844 24.8475 28.1638 24.4788 28.5441 23.9374C28.9244 23.3959 29.0745 22.7257 28.9615 22.0737H28.9628Z" fill="black"/>
</svg>
