<svg width="32" height="32" viewBox="0 0 32 32" fill="none" xmlns="http://www.w3.org/2000/svg">
<path d="M15.9941 0C20.3364 1.38978e-06 20.8826 0.0190213 22.5967 0.0888672C24.3046 0.16507 25.4666 0.438325 26.4824 0.832031C27.53 1.2448 28.4256 1.79065 29.3145 2.67969C30.2033 3.56866 30.7558 4.45768 31.1621 5.51172C31.5558 6.53411 31.8291 7.69659 31.9053 9.39844C31.9815 11.1067 32 11.6471 32 15.9971C32 20.3466 31.9815 20.8865 31.9053 22.5947C31.8291 24.3029 31.5558 25.4654 31.1621 26.4814C30.7494 27.5291 30.2033 28.4245 29.3145 29.3135C28.4256 30.2025 27.5364 30.7547 26.4824 31.1611C25.4602 31.5548 24.2982 31.8281 22.5967 31.9043C20.8889 31.9805 20.3491 32 16 32C11.6509 32 11.1111 31.9805 9.40332 31.9043C7.69541 31.8281 6.53344 31.5548 5.51758 31.1611C4.46996 30.7484 3.57444 30.2025 2.68555 29.3135C1.79674 28.4245 1.24423 27.5355 0.837891 26.4814C0.444249 25.4591 0.171902 24.2966 0.0957031 22.5947C0.0195154 20.8865 1.42709e-06 20.3403 0 15.9971C0 11.6537 0.0195257 11.1069 0.0957031 9.40527C0.17189 7.6971 0.444269 6.53458 0.837891 5.51855C1.25055 4.47084 1.7968 3.5755 2.68555 2.68652C3.57444 1.79747 4.46361 1.24431 5.51758 0.837891C6.53333 0.444242 7.69522 0.171925 9.39648 0.0957031C11.1044 0.0194987 11.6513 0 15.9941 0ZM15.9932 7.78516C11.46 7.78532 7.77737 11.4625 7.77734 16.0029C7.77734 20.5433 11.4536 24.2205 15.9932 24.2207C20.5328 24.2207 24.209 20.5434 24.209 16.0029C24.209 11.4624 20.5328 7.78516 15.9932 7.78516ZM15.9932 10.6621C18.9392 10.6621 21.3271 13.0505 21.3271 15.9971C21.3269 18.9434 18.9391 21.3311 15.9932 21.3311C13.0474 21.3309 10.6604 18.9433 10.6602 15.9971C10.6602 13.0506 13.0473 10.6623 15.9932 10.6621ZM24.5332 5.53711C23.4742 5.53711 22.6162 6.39609 22.6162 7.45508C22.6163 8.51401 23.4743 9.37207 24.5332 9.37207C25.5921 9.37206 26.4501 8.51401 26.4502 7.45508C26.4502 6.3961 25.5922 5.53712 24.5332 5.53711Z" fill="#F2EDE5"/>
</svg>
