<svg width="156" height="156" viewBox="0 0 156 156" fill="none" xmlns="http://www.w3.org/2000/svg">
<path d="M138.753 126.692H46.4295V126.736H138.753V126.692ZM41.9548 85.6005V64.0661L3.32564 126.693H41.9548V115.388H23.5772L41.9548 85.6005ZM152.671 126.693H46.4298V63.3826H58.7057L93.8045 98.1108V58.907H45.1369L77.9986 5.62324L101.068 43.0395L87.7902 43.0252L77.9986 27.1577L65.4319 47.5297H105.165V110.869H92.8749L57.7904 76.1404V104.911H57.8051V115.359H132.405L109.625 78.4363V56.9019L152.671 126.693ZM80.6302 1.1043L87.284 11.9151C119.681 16.4487 144.697 44.3476 144.697 77.986C144.697 85.4838 143.448 92.7054 141.153 99.4477L148.489 111.363C153.298 101.235 156 89.93 156 78.0006C156 35.6291 122.063 1.03157 79.9474 0L80.6302 1.1043ZM118.212 131.167C107.025 139.653 93.0787 144.695 77.9989 144.695C62.9191 144.695 48.9725 139.653 37.7863 131.167H20.9924C35.2443 146.439 55.5248 156 77.9989 156C100.473 156 120.754 146.439 135.006 131.167H118.212ZM14.8329 99.4333C12.5374 92.7054 11.3026 85.4838 11.3026 77.986C11.3026 44.362 36.3193 16.4633 68.716 11.9297L75.3698 1.11897L76.0526 0C33.9367 1.04624 0 35.6291 0 77.986C0 89.9157 2.68748 101.221 7.49635 111.348L14.8329 99.4333Z" fill="#C9B6D7"/>
</svg>
