<svg width="32" height="32" viewBox="0 0 32 32" fill="none" xmlns="http://www.w3.org/2000/svg">
<path d="M15.9725 0C7.56014 0 0.659794 6.47619 0 14.7211L8.57732 18.2585C9.2921 17.7687 10.1718 17.4694 11.134 17.4694C11.2165 17.4694 11.299 17.4694 11.3814 17.4694L15.2028 11.9456V11.8639C15.2028 8.54422 17.9244 5.82313 21.2509 5.82313C24.5773 5.82313 27.299 8.51701 27.299 11.8639C27.299 15.1837 24.5773 17.9048 21.2509 17.9048C21.1959 17.9048 21.1684 17.9048 21.1134 17.9048L15.6701 21.7959C15.6701 21.8776 15.6701 21.932 15.6701 22.0136C15.6701 24.517 13.6357 26.5306 11.134 26.5306C8.93471 26.5306 7.09278 24.9524 6.68041 22.8844L0.549828 20.3537C2.44674 27.0748 8.6323 32 15.9725 32C24.8247 32 32 24.8435 32 16C31.9725 7.15646 24.7973 0 15.9725 0ZM10.0344 24.2721L8.05498 23.4558C8.41237 24.1905 9.01718 24.7891 9.81443 25.1156C11.5464 25.8231 13.5533 25.0068 14.268 23.2925C14.6254 22.449 14.6254 21.5238 14.268 20.6803C13.9107 19.8367 13.2784 19.1837 12.4261 18.8299C11.6014 18.4762 10.6942 18.5034 9.9244 18.8027L11.9588 19.6463C13.2234 20.1905 13.8282 21.6327 13.3058 22.9116C12.7835 24.2177 11.3265 24.8163 10.0344 24.2721ZM25.2646 11.8639C25.2646 9.65987 23.4502 7.83674 21.2509 7.83674C19.0241 7.83674 17.2371 9.63266 17.2371 11.8639C17.2371 14.068 19.0515 15.8912 21.2509 15.8912C23.4777 15.8912 25.2646 14.0952 25.2646 11.8639ZM18.2268 11.8639C18.2268 10.2041 19.5739 8.84354 21.2509 8.84354C22.9278 8.84354 24.2749 10.2041 24.2749 11.8639C24.2749 13.5238 22.9278 14.8844 21.2509 14.8844C19.5739 14.8844 18.2268 13.5238 18.2268 11.8639Z" fill="#F2EDE5"/>
</svg>
