<svg width="402" height="1403" viewBox="0 0 402 1403" fill="none" xmlns="http://www.w3.org/2000/svg">
<path d="M438.081 179V145.105L404.756 111.616V144.896L404.859 145.001L404.756 145.105V179H404.761V246.384L438.086 212.895V179H438.081ZM-102.389 1402.75H32.2295L65.5547 1369.26H-69.0635L-102.389 1402.75ZM32.9473 1402.75H99.748V1335.62L32.9473 1402.75ZM235.949 1402.75H370.058L336.732 1369.26H269.274L235.949 1402.75ZM371.283 1402.75H404.25V1369.62L371.283 1402.75ZM201.756 1402.74H235.231L268.811 1369L235.231 1335.25H201.756V1402.74ZM370.672 1402.64L403.893 1369.25H337.45L370.672 1402.64ZM-102.746 1402.39L-69.7783 1369.26H-102.746V1402.39ZM438.591 1368.89L471.916 1402.38V1335.1L438.591 1301.61V1368.89ZM-0.887695 1368.75H66.0625L99.3877 1335.26H32.4375L-0.887695 1368.75ZM269.274 1368.75H336.225L302.899 1335.26H235.949L269.274 1368.75ZM-102.746 1368.74H-69.2686L-35.6895 1335L-35.6924 1335L-69.2715 1301.25H-102.746V1368.74ZM-68.5527 1368.74H-1.60059L31.7246 1335.25H-35.2275L-68.5527 1368.74ZM336.942 1368.74H403.893L370.567 1335.25H303.617L336.942 1368.74ZM100.258 1334.89L100.362 1335L133.837 1368.64L167.416 1334.89V1301.25H133.941L133.837 1301.36L133.733 1301.25H100.258V1334.89ZM404.253 1368.39V1335.11L404.149 1335L404.253 1334.9V1301.26H337.453L404.253 1368.39ZM404.862 1335L438.083 1368.38V1301.61L404.862 1335ZM505.749 1368.38V1301.25H438.948L505.749 1368.38ZM-35.2256 1334.75H32.2324L65.5576 1301.26H-68.5508L-35.2256 1334.75ZM201.759 1334.74H234.727L201.759 1301.61V1334.74ZM235.444 1334.74H370.06L336.734 1301.25H202.119L235.444 1334.74ZM32.958 1334.74H99.4004L66.1787 1301.35L32.958 1334.74ZM99.748 1334.38V1301.25H66.7803L99.748 1334.38ZM167.924 1334.38L200.891 1301.25H167.924V1334.38ZM404.758 1334.38L437.726 1301.25H404.758V1334.38ZM235.698 1267L269.277 1300.75V1300.75H302.752V1233.26H269.277L235.698 1267ZM-102.746 1300.75H-69.7783L-102.746 1267.62V1300.75ZM-68.5508 1300.75H-1.75V1233.62L-68.5508 1300.75ZM-1.24512 1267.11V1300.75H65.9131V1267.11L32.334 1233.36L-1.24512 1267.11ZM66.4229 1300.75H99.3906L66.4229 1267.62V1300.75ZM100.258 1300.75H133.226L100.258 1267.62V1300.75ZM134.448 1300.75H268.557L235.231 1267.26H167.773L134.448 1300.75ZM370.778 1300.74H438.235L438.34 1300.64L438.443 1300.74H505.396L472.071 1267.25H337.453L370.778 1300.74ZM303.27 1300.74H370.07L303.27 1233.61V1300.74ZM133.847 1300.63L167.068 1267.25H100.626L133.847 1300.63ZM505.749 1300.39V1267.26H472.781L505.749 1300.39ZM-68.9111 1233.1V1300.38L-35.5859 1266.89V1199.61L-68.9111 1233.1ZM-102.643 1267L-69.4209 1300.38V1233.62L-102.643 1267ZM66.4326 1266.89L99.7578 1300.38V1267.1L99.6543 1266.99L99.7578 1266.89V1165.1L99.6543 1165L66.4326 1131.61V1266.89ZM438.694 1233L472.273 1266.75V1266.75H505.749V1199.26H472.273L438.694 1233ZM168.284 1266.75H235.233L268.559 1233.26H201.609L168.284 1266.75ZM404.61 1266.74H471.561L438.235 1233.25H371.285L404.61 1266.74ZM100.626 1266.74H167.576L200.901 1233.25H133.951L100.626 1266.74ZM336.953 1266.74H403.903L370.577 1233.25H303.628L336.953 1266.74ZM-102.746 1266.38L-69.4209 1232.89V1165.11L-102.746 1131.62V1266.38ZM-35.0781 1131.1V1266.38L-1.75293 1232.89V1131.1L-1.85742 1131L-1.75293 1130.89V1097.61L-35.0781 1131.1ZM-1.24316 1266.38L32.082 1232.89V1165.1L-1.24316 1131.61V1266.38ZM32.5977 1232.89L65.9229 1266.38V1199.1L32.5977 1165.61V1232.89ZM100.261 1266.38L167.061 1199.25H133.946L133.842 1199.36L133.738 1199.25H100.261V1266.38ZM134.448 1232.74H269.066L302.392 1199.25H167.773L134.448 1232.74ZM269.782 1232.74H302.75V1199.61L269.782 1232.74ZM370.778 1232.74H438.235L471.561 1199.25H337.453L370.778 1232.74ZM303.628 1232.74H370.07L336.849 1199.35L303.628 1232.74ZM-68.9131 1165.11V1232.38L-35.5879 1198.9V1131.62L-68.9131 1165.11ZM303.27 1232.38L336.237 1199.25H303.27V1232.38ZM303.26 1198.75H336.734L370.313 1165V1165L336.734 1131.25H303.26V1198.75ZM337.453 1198.75H471.561L438.235 1165.26H370.778L337.453 1198.75ZM472.781 1198.75H505.749V1165.62L472.781 1198.75ZM134.454 1198.74H201.254V1131.61L134.454 1198.74ZM201.762 1165.1H201.759V1198.74H268.919V1165.1L235.341 1131.36L201.762 1165.1ZM269.43 1198.74H302.396L269.43 1165.61V1198.74ZM100.261 1198.74H133.228L100.261 1165.61V1198.74ZM472.175 1198.64L505.396 1165.26H438.954L472.175 1198.64ZM32.5977 1164.89L65.9229 1198.38V1131.1L32.5977 1097.61V1164.89ZM269.43 1164.89L302.755 1198.38V1063.1L302.65 1063L269.43 1029.61V1164.89ZM100.364 1165L133.586 1198.38V1131.61L100.364 1165ZM134.094 1131.1V1198.38L167.419 1164.89V1097.61L134.094 1131.1ZM370.775 1164.75H437.726L404.4 1131.26H337.45L370.775 1164.75ZM438.446 1164.75H505.396L472.071 1131.26H405.121L438.446 1164.75ZM-102.746 1130.89L-69.165 1164.64L-35.5859 1130.89V1097.25H-102.746V1130.89ZM505.749 1164.38V1097.25H438.948L505.749 1164.38ZM-1.13672 1131L32.085 1164.38V1097.61L-1.13672 1131ZM99.7559 1164.38V1097.25H32.9551L99.7559 1164.38ZM100.261 1164.38L133.586 1130.89V1063.1L100.261 1029.61V1164.38ZM167.929 1029.1V1164.38L201.254 1130.89V1029.1L201.149 1029L201.254 1028.89V995.614L167.929 1029.1ZM201.762 1164.38L235.087 1130.89V1063.1L201.762 1029.61V1164.38ZM235.594 1130.89L268.919 1164.38V1097.1L235.594 1063.61V1130.89ZM336.945 1130.75H471.561L438.235 1097.26H336.945L336.841 1097.36L336.737 1097.26H303.62L336.945 1130.75ZM303.27 1130.74H336.237L303.27 1097.61V1130.74ZM-35.0811 1130.38L-2.11328 1097.25H-35.0811V1130.38ZM-1.24316 1130.38L31.7246 1097.25H-1.24316V1130.38ZM134.094 1063.1V1130.38L167.419 1096.89V1029.61L134.094 1063.1ZM-68.5527 1096.75H-1.75293V1029.62L-68.5527 1096.75ZM303.263 1096.74H336.229L303.263 1063.61V1096.74ZM337.458 1096.74H404.258V1029.61L337.458 1096.74ZM-0.875 1096.74H32.0928V1063.61L-0.875 1096.74ZM32.5977 1063.1V1096.74H99.7578V1063.1L66.1787 1029.36H66.1768L32.5977 1063.1ZM-1.24512 961.105V1028.9L-1.1416 1029L-1.24512 1029.11V1096.39L32.0801 1062.9V927.616L-1.24512 961.105ZM235.597 1062.89L268.922 1096.38V1029.1L235.597 995.614V1062.89ZM303.366 1063L336.588 1096.38V1029.61L303.366 1063ZM337.093 1029.1V1096.38L370.418 1062.89V995.614L337.093 1029.1ZM404.756 1096.38L437.723 1063.25H404.756V1096.38ZM-102.389 1062.75H-35.4385L-2.11328 1029.26H-69.0635L-102.389 1062.75ZM404.756 1062.74H438.23V1062.74L471.81 1029L438.335 995.357L438.23 995.253H404.756V1062.74ZM100.261 1028.89L133.84 1062.64L167.419 1028.89V995.253H100.261V1028.89ZM66.4229 961.105V1028.89L99.748 1062.38V927.616L66.4229 961.105ZM370.925 927.104V1062.38L404.25 1028.89V961.103L404.146 960.998L404.25 960.894V893.614L370.925 927.104ZM32.5996 995.102V1062.38L65.9258 1028.89V961.613L32.5996 995.102ZM201.865 1029L235.087 1062.38V995.612L201.865 1029ZM302.752 1062.38V995.253H269.277L269.173 995.357L269.069 995.253H235.952L302.752 1062.38ZM303.263 960.894L303.366 960.998L303.263 961.103V1062.38L336.588 1028.89V961.103L303.263 927.613V960.894ZM-68.5527 1028.74H-2.11035L-35.332 995.359L-68.5527 1028.74ZM-1.75293 1028.38V995.255H-34.7207L-1.75293 1028.38ZM167.929 1028.38L200.896 995.253H167.929V1028.38ZM201.762 1028.38L234.729 995.253H201.762V1028.38ZM337.098 961.101V1028.38L370.423 994.891V927.611L337.098 961.101ZM-35.2275 927.257L-68.8066 961.001L-35.332 994.641L-35.2275 994.745H-1.75293V927.254H-35.2275V927.257ZM134.456 994.742H235.239L235.343 994.638L235.447 994.742H268.562L235.236 961.253H167.781L134.456 994.742ZM269.787 994.742H302.755V961.613L269.787 994.742ZM404.756 994.742H437.723L404.756 961.613V994.742ZM100.261 994.74H133.735L167.314 960.996L133.735 927.252H100.261V994.74ZM269.173 994.638L302.395 961.253H235.952L269.173 994.638ZM438.335 994.638L471.556 961.253H405.113L438.335 994.638ZM32.5996 927.102V994.38L65.9258 960.892V893.612L32.5996 927.102ZM405.113 960.743H472.063L505.389 927.254H438.438L405.113 960.743ZM167.779 960.741H234.729L201.403 927.252H134.454L167.779 960.741ZM235.447 960.741H302.396L269.071 927.252H202.122L235.447 960.741ZM303.265 926.892L336.844 960.636H336.847L370.426 926.892V893.253H303.265V926.892ZM66.4307 960.384L99.6514 926.999L66.4307 893.614V960.384ZM404.753 960.384L471.553 893.255H404.753V960.384ZM-1.23242 960.381L65.5674 893.253H-1.23242V960.381ZM302.755 960.379V893.25H235.954L302.755 960.379ZM-34.7207 926.744H-1.75293V893.614L-34.7207 926.744ZM133.938 926.744H268.557L235.231 893.255H133.941L133.837 893.359H133.834L133.73 893.255H100.613L133.938 926.744ZM100.261 926.741H133.228L100.261 893.612V926.741ZM99.7559 926.382V893.253H66.7881L99.7559 926.382ZM370.933 926.382L403.9 893.253H370.933V926.382ZM201.756 892.745H234.724L201.756 859.615V892.745ZM235.949 892.745H370.058L336.732 859.256H269.274L235.949 892.745ZM337.196 859.001L370.775 892.745H404.25V825.257H370.775L337.196 859.001ZM404.756 859.105V892.745H471.916V859.105L438.337 825.361H438.335L404.756 859.105ZM472.424 892.745H505.391L472.424 859.615V892.745ZM-102.746 892.742H-69.2715L-35.6924 858.998L-69.2715 825.254H-102.746V892.742ZM-68.5527 892.742H65.5547L32.2295 859.253H-35.2275L-68.5527 892.742ZM66.791 892.742H99.7578V859.613L66.791 892.742ZM100.256 892.742H133.223L100.256 859.613V892.742ZM134.448 892.742H201.249V859.103L201.145 858.998L201.249 858.894V825.613L134.448 892.742ZM66.1787 892.638L99.4004 859.253H32.958L66.1787 892.638ZM235.346 892.638L268.566 859.253H202.124L235.346 892.638ZM472.421 791H472.426V858.896L505.751 892.386V791H505.746V757.105L472.421 723.616V791ZM100.362 858.998L133.583 892.383V825.613L100.362 858.998ZM134.091 825.106V892.383L167.416 858.894V791.614L134.091 825.106ZM32.4404 858.746H99.3906L66.0645 825.257H-0.884766L32.4404 858.746ZM202.116 858.746H269.066L302.392 825.257H235.441L202.116 858.746ZM-35.2275 858.743H31.7217L-1.60352 825.254H-68.5527L-35.2275 858.743ZM269.782 858.743H336.732L370.058 825.254H303.107L269.782 858.743ZM99.748 858.384V791.255H32.9473L99.748 858.384ZM201.756 858.384L268.557 791.255H201.756V858.384ZM404.756 756.896L404.859 757.001L404.756 757.105V791H404.761V858.384L438.086 824.895V791H438.081V757.105L404.756 723.616V756.896ZM438.588 791H438.594V824.895L471.919 858.384V791.104L471.814 791H471.81L438.588 757.615V791ZM235.952 824.747H370.57L370.567 824.744L403.893 791.255H269.274L235.952 824.747ZM-102.746 824.744H-69.7783L-102.746 791.614V824.744ZM-69.0605 824.744H65.5547L32.2295 791.255H-102.389L-69.0605 824.744ZM371.283 824.744H404.25V791.614L371.283 824.744ZM-102.389 790.745H32.2295L65.5547 757.256H-69.0635L-102.389 790.745ZM32.9473 790.745H99.748V723.616L32.9473 790.745ZM235.949 790.745H370.058L336.732 757.256H269.274L235.949 790.745ZM371.283 790.745H404.25V757.615L371.283 790.745ZM201.756 790.742H235.231L268.811 756.998L235.231 723.254H201.756V790.742ZM370.672 790.638L403.893 757.253H337.45L370.672 790.638ZM-102.746 790.386L-69.7783 757.256H-102.746V790.386ZM438.591 756.894L471.916 790.383V723.104L438.591 689.614V756.894ZM-0.887695 756.746H66.0625L99.3877 723.257H32.4375L-0.887695 756.746ZM269.274 756.746H336.225L302.899 723.257H235.949L269.274 756.746ZM-102.746 756.743H-69.2686L-35.6895 722.999L-35.6924 722.997L-69.2715 689.252H-102.746V756.743ZM-68.5527 756.743H-1.60059L31.7246 723.254H-35.2275L-68.5527 756.743ZM336.942 756.743H403.893L370.567 723.254H303.617L336.942 756.743ZM100.258 722.895L100.362 722.999L133.837 756.639L167.416 722.895V689.255H133.941L133.837 689.359L133.733 689.255H100.258V722.895ZM404.253 756.387V723.106L404.149 723.002L404.253 722.897V689.258H337.453L404.253 756.387ZM404.862 722.999L438.083 756.384V689.614L404.862 722.999ZM505.749 756.384V689.255H438.948L505.749 756.384ZM-35.2256 722.747H32.2324L65.5576 689.258H-68.5508L-35.2256 722.747ZM201.759 722.744H234.727L201.759 689.614V722.744ZM235.444 722.744H370.06L336.734 689.255H202.119L235.444 722.744ZM32.958 722.739H99.4004L66.1787 689.354L32.958 722.739ZM99.748 722.385V689.255H66.7803L99.748 722.385ZM167.924 722.385L200.891 689.255H167.924V722.385ZM404.758 722.385L437.726 689.255H404.758V722.385ZM235.698 655.001L269.277 688.745V688.747H302.752V621.257H269.277L235.698 655.001ZM-102.746 688.745H-69.7783L-102.746 655.615V688.745ZM-68.5508 688.745H-1.75V621.616L-68.5508 688.745ZM-1.24512 655.105V688.745H65.9131V655.105L32.334 621.361L-1.24512 655.105ZM66.4229 688.745H99.3906L66.4229 655.615V688.745ZM100.258 688.745H133.226L100.258 655.615V688.745ZM134.448 688.745H268.557L235.231 655.256H167.773L134.448 688.745ZM370.778 688.742H438.235L438.34 688.638L438.443 688.742H505.396L472.071 655.253H337.453L370.778 688.742ZM303.27 688.737H370.07L303.27 621.608V688.737ZM133.847 688.633L167.068 655.248H100.626L133.847 688.633ZM505.749 688.386V655.256H472.781L505.749 688.386ZM-68.9111 621.104V688.383L-35.5859 654.894V587.614L-68.9111 621.104ZM-102.643 655.001L-69.4209 688.379V621.616L-102.643 655.001ZM66.4326 654.889L99.7578 688.378V655.098L99.6543 654.993L99.7578 654.889V553.101L99.6543 552.996L66.4326 519.611V654.889ZM438.694 621.002L472.273 654.746V654.748H505.749V587.258H472.273L438.694 621.002ZM168.284 654.746H235.233L268.559 621.257H201.609L168.284 654.746ZM404.61 654.743H471.561L438.235 621.254H371.285L404.61 654.743ZM100.626 654.738H167.576L200.901 621.249H133.951L100.626 654.738ZM336.953 654.735H403.903L370.577 621.246H303.628L336.953 654.735ZM-102.746 654.384L-69.4209 620.895V553.105L-102.746 519.616V654.384ZM-35.0781 519.102V654.381L-1.75293 620.892V519.104L-1.85742 518.999L-1.75293 518.895V485.612L-35.0781 519.102ZM-1.24316 654.381L32.082 620.892V553.101L-1.24316 519.611V654.381ZM32.5977 620.892L65.9229 654.381V587.102L32.5977 553.613V620.892ZM100.261 654.381L167.061 587.252H133.946L133.842 587.357L133.738 587.252H100.261V654.381ZM134.448 620.744H269.066L302.392 587.255H167.773L134.448 620.744ZM269.782 620.744H302.75V587.614L269.782 620.744ZM370.778 620.744H438.235L471.561 587.255H337.453L370.778 620.744ZM303.628 620.736H370.07L336.849 587.352L303.628 620.736ZM-68.9131 553.105V620.385L-35.5879 586.896V519.616L-68.9131 553.105ZM303.27 620.377L336.237 587.247H303.27V620.377ZM303.26 586.745H336.734L370.313 553.001V552.998L336.734 519.254H303.26V586.745ZM337.453 586.745H471.561L438.235 553.256H370.778L337.453 586.745ZM472.781 586.745H505.749V553.615L472.781 586.745ZM134.454 586.742H201.254V519.613L134.454 586.742ZM201.762 553.103H201.759V586.742H268.919V553.103L235.341 519.358L201.762 553.103ZM269.43 586.742H302.396L269.43 553.613V586.742ZM100.261 586.74H133.228L100.261 553.61V586.74ZM472.175 586.641L505.396 553.256H438.954L472.175 586.641ZM32.5977 552.894L65.9229 586.383V519.104L32.5977 485.614V552.894ZM269.43 552.894L302.755 586.383V451.103L302.65 450.998L269.43 417.613V552.894ZM100.364 552.996L133.586 586.38V519.611L100.364 552.996ZM134.094 519.102V586.38L167.419 552.892V485.612L134.094 519.102ZM370.775 552.746H437.726L404.4 519.257H337.45L370.775 552.746ZM438.446 552.746H505.396L472.071 519.257H405.121L438.446 552.746ZM-102.746 518.895L-69.165 552.639L-35.5859 518.895V485.255H-102.746V518.895ZM505.749 552.384V485.255H438.948L505.749 552.384ZM-1.13672 518.996L32.085 552.381V485.612L-1.13672 518.996ZM99.7559 552.381V485.253H32.9551L99.7559 552.381ZM100.261 552.381L133.586 518.892V451.103L100.261 417.613V552.381ZM167.929 417.104V552.379L201.254 518.89V417.102L201.149 416.997L201.254 416.892V383.614L167.929 417.104ZM201.762 552.379L235.087 518.89V451.101L201.762 417.611V552.379ZM235.594 518.89L268.919 552.379V485.1L235.594 451.61V518.89ZM336.945 518.747H471.561L438.235 485.258H336.945L336.841 485.362L336.737 485.258H303.62L336.945 518.747ZM303.27 518.736H336.237L303.27 485.606V518.736ZM-35.0811 518.385L-2.11328 485.255H-35.0811V518.385ZM-1.24316 518.382L31.7246 485.253H-1.24316V518.382ZM134.094 451.103V518.382L167.419 484.893V417.613L134.094 451.103ZM-68.5527 484.745H-1.75293V417.616L-68.5527 484.745ZM303.263 484.742H336.229L303.263 451.613V484.742ZM337.458 484.742H404.258V417.613L337.458 484.742ZM-0.875 484.74H32.0928V451.61L-0.875 484.74ZM32.5977 451.101V484.74H99.7578V451.101L66.1787 417.356H66.1768L32.5977 451.101ZM-1.24512 349.105V416.897L-1.1416 417.002L-1.24512 417.106V484.386L32.0801 450.896V315.616L-1.24512 349.105ZM235.597 450.894L268.922 484.383V417.104L235.597 383.614V450.894ZM303.366 450.998L336.588 484.383V417.613L303.366 450.998ZM337.093 417.104V484.383L370.418 450.894V383.614L337.093 417.104ZM404.756 484.383L437.723 451.253H404.756V484.383ZM-102.389 450.746H-35.4385L-2.11328 417.257H-69.0635L-102.389 450.746ZM404.756 450.743H438.23V450.741L471.81 416.997L438.335 383.357L438.23 383.253H404.756V450.743ZM100.261 416.892L133.84 450.636L167.419 416.892V383.253H100.261V416.892ZM66.4229 349.105V416.895L99.748 450.384V315.616L66.4229 349.105ZM370.925 315.104V450.384L404.25 416.895V349.103L404.146 348.998L404.25 348.894V281.614L370.925 315.104ZM32.5996 383.102V450.381L65.9258 416.892V349.613L32.5996 383.102ZM201.865 416.997L235.087 450.381V383.612L201.865 416.997ZM302.752 450.381V383.253H269.277L269.173 383.357L269.069 383.253H235.952L302.752 450.381ZM303.263 348.894L303.366 348.998L303.263 349.103V450.381L336.588 416.892V349.103L303.263 315.613V348.894ZM-68.5527 416.744H-2.11035L-35.332 383.359L-68.5527 416.744ZM-1.75293 416.385V383.255H-34.7207L-1.75293 416.385ZM167.929 416.382L200.896 383.253H167.929V416.382ZM201.762 416.382L234.729 383.253H201.762V416.382ZM337.098 349.101V416.38L370.423 382.891V315.611L337.098 349.101ZM-35.2275 315.257L-68.8066 349.001L-35.332 382.641L-35.2275 382.745H-1.75293V315.254H-35.2275V315.257ZM134.456 382.742H235.239L235.343 382.638L235.447 382.742H268.562L235.236 349.253H167.781L134.456 382.742ZM269.787 382.742H302.755V349.613L269.787 382.742ZM404.756 382.742H437.723L404.756 349.613V382.742ZM100.261 382.74H133.735L167.314 348.996L133.735 315.252H100.261V382.74ZM269.173 382.638L302.395 349.253H235.952L269.173 382.638ZM438.335 382.638L471.556 349.253H405.113L438.335 382.638ZM32.5996 315.102V382.38L65.9258 348.892V281.612L32.5996 315.102ZM405.113 348.743H472.063L505.389 315.254H438.438L405.113 348.743ZM167.779 348.741H234.729L201.403 315.252H134.454L167.779 348.741ZM235.447 348.741H302.396L269.071 315.252H202.122L235.447 348.741ZM303.265 314.892L336.844 348.636H336.847L370.426 314.892V281.253H303.265V314.892ZM66.4307 348.384L99.6514 314.999L66.4307 281.614V348.384ZM404.753 348.384L471.553 281.255H404.753V348.384ZM-1.23242 348.381L65.5674 281.253H-1.23242V348.381ZM302.755 348.379V281.25H235.954L302.755 348.379ZM-34.7207 314.744H-1.75293V281.614L-34.7207 314.744ZM133.938 314.744H268.557L235.231 281.255H133.941L133.837 281.359H133.834L133.73 281.255H100.613L133.938 314.744ZM100.261 314.741H133.228L100.261 281.612V314.741ZM99.7559 314.382V281.253H66.7881L99.7559 314.382ZM370.933 314.382L403.9 281.253H370.933V314.382ZM201.756 280.745H234.724L201.756 247.615V280.745ZM235.949 280.745H370.058L336.732 247.256H269.274L235.949 280.745ZM337.196 247.001L370.775 280.745H404.25V213.257H370.775L337.196 247.001ZM404.756 247.105V280.745H471.916V247.105L438.337 213.361H438.335L404.756 247.105ZM472.424 280.745H505.391L472.424 247.615V280.745ZM-102.746 280.742H-69.2715L-35.6924 246.998L-69.2715 213.254H-102.746V280.742ZM-68.5527 280.742H65.5547L32.2295 247.253H-35.2275L-68.5527 280.742ZM66.791 280.742H99.7578V247.613L66.791 280.742ZM100.256 280.742H133.223L100.256 247.613V280.742ZM134.448 280.742H201.249V247.103L201.145 246.998L201.249 246.894V213.613L134.448 280.742ZM66.1787 280.638L99.4004 247.253H32.958L66.1787 280.638ZM235.346 280.638L268.566 247.253H202.124L235.346 280.638ZM100.362 246.998L133.583 280.383V213.613L100.362 246.998ZM134.091 213.106V280.383L167.416 246.894V179.614L134.091 213.106ZM32.4404 246.746H99.3906L66.0645 213.257H-0.884766L32.4404 246.746ZM202.116 246.746H269.066L302.392 213.257H235.441L202.116 246.746ZM-35.2275 246.743H31.7217L-1.60352 213.254H-68.5527L-35.2275 246.743ZM269.782 246.743H336.732L370.058 213.254H303.107L269.782 246.743ZM99.748 246.384V179.255H32.9473L99.748 246.384ZM201.756 246.384L268.557 179.255H201.756V246.384ZM235.952 212.747H370.57L370.567 212.744L403.893 179.255H269.274L235.952 212.747ZM-102.746 212.744H-69.7783L-102.746 179.614V212.744ZM-69.0605 212.744H65.5547L32.2295 179.255H-102.389L-69.0605 212.744ZM371.283 212.744H404.25V179.614L371.283 212.744ZM-69.0635 145.256L-102.389 178.745H32.2295L65.5547 145.256H-69.0635ZM32.9473 178.745H99.748V111.616L32.9473 178.745ZM371.283 178.745H404.25V145.615L371.283 178.745ZM269.274 145.256L235.949 178.745H370.058L336.732 145.256H269.274ZM201.756 178.742H235.231L268.811 144.998L235.231 111.254H201.756V178.742ZM337.45 145.253L370.672 178.638L403.893 145.253H337.45ZM-102.746 145.256V178.386L-69.7783 145.256H-102.746ZM438.591 144.894L471.916 178.383V111.104L438.591 77.6143V144.894ZM32.4375 111.257L-0.887695 144.746H66.0625L99.3877 111.257H32.4375ZM235.949 111.257L269.274 144.746H336.225L302.899 111.257H235.949ZM-102.746 77.252V144.743H-69.2686L-35.6895 110.999L-35.6924 110.997L-69.2715 77.252H-102.746ZM-35.2275 111.254L-68.5527 144.743H-1.60059L31.7246 111.254H-35.2275ZM303.617 111.254L336.942 144.743H403.893L370.567 111.254H303.617ZM100.258 77.2549V110.895L100.362 110.999L133.837 144.639L167.416 110.895V77.2549H133.941L133.837 77.3594L133.733 77.2549H100.258ZM337.453 77.2578L404.253 144.387V111.106L404.149 111.002L404.253 110.897V77.2578H337.453ZM404.862 110.999L438.083 144.384V77.6143L404.862 110.999ZM438.948 77.2549L505.749 144.384V77.2549H438.948ZM-68.5508 77.2578L-35.2256 110.747H32.2324L65.5576 77.2578H-68.5508ZM201.759 110.744H234.727L201.759 77.6143V110.744ZM202.119 77.2549L235.444 110.744H370.06L336.734 77.2549H202.119ZM32.958 110.739H99.4004L66.1787 77.3545L32.958 110.739ZM66.7803 77.2549L99.748 110.385V77.2549H66.7803ZM167.924 77.2549V110.385L200.891 77.2549H167.924ZM404.758 77.2549V110.385L437.726 77.2549H404.758ZM269.277 9.25684L235.698 43.001L269.277 76.7451V76.7471H302.752V9.25684H269.277ZM-102.746 76.7451H-69.7783L-102.746 43.6152V76.7451ZM-68.5508 76.7451H-1.75V9.61621L-68.5508 76.7451ZM-1.24512 43.1055V76.7451H65.9131V43.1055L32.334 9.36133L-1.24512 43.1055ZM66.4229 76.7451H99.3906L66.4229 43.6152V76.7451ZM100.258 76.7451H133.226L100.258 43.6152V76.7451ZM167.773 43.2559L134.448 76.7451H268.557L235.231 43.2559H167.773ZM337.453 43.2529L370.778 76.7422H438.235L438.34 76.6377L438.443 76.7422H505.396L472.071 43.2529H337.453ZM303.27 76.7373H370.07L303.27 9.6084V76.7373ZM100.626 43.248L133.847 76.6328L167.068 43.248H100.626ZM472.781 43.2559L505.749 76.3857V43.2559H472.781ZM-68.9111 9.10352V76.3828L-35.5859 42.8936V-24.3857L-68.9111 9.10352ZM-102.643 43.001L-69.4209 76.3789V9.61621L-102.643 43.001ZM66.4326 42.8887L99.7578 76.3779V43.0977L99.6543 42.9932L99.7578 42.8887V-58.8994L99.6543 -59.0039L66.4326 -92.3887V42.8887ZM472.273 -24.7422L438.694 9.00195L472.273 42.7461V42.748H505.749V-24.7422H472.273ZM201.609 9.25684L168.284 42.7461H235.233L268.559 9.25684H201.609ZM371.285 9.25391L404.61 42.7432H471.561L438.235 9.25391H371.285ZM133.951 9.24902L100.626 42.7383H167.576L200.901 9.24902H133.951ZM303.628 9.24609L336.953 42.7354H403.903L370.577 9.24609H303.628ZM-102.746 42.3838L-69.4209 8.89453V-58.8945L-102.746 -92.3838V42.3838ZM-35.0781 -92.8984V42.3809L-1.75293 8.8916V-92.8965L-1.85742 -93.001L-1.75293 -93.1055V-126.388L-35.0781 -92.8984ZM-1.24316 42.3809L32.082 8.8916V-58.8994L-1.24316 -92.3887V42.3809ZM32.5977 8.8916L65.9229 42.3809V-24.8984L32.5977 -58.3867V8.8916ZM100.261 -24.748V42.3809L167.061 -24.748H133.946L133.842 -24.6426L133.738 -24.748H100.261ZM167.773 -24.7451L134.448 8.74414H269.066L302.392 -24.7451H167.773ZM269.782 8.74414H302.75V-24.3857L269.782 8.74414ZM337.453 -24.7451L370.778 8.74414H438.235L471.561 -24.7451H337.453ZM303.628 8.73633H370.07L336.849 -24.6484L303.628 8.73633ZM-68.9131 -58.8945V8.38477L-35.5879 -25.1045V-92.3838L-68.9131 -58.8945ZM303.27 -24.7529V8.37695L336.237 -24.7529H303.27ZM303.26 -92.7461V-25.2549H336.734L370.313 -58.999V-59.002L336.734 -92.7461H303.26ZM472.781 -25.2549H505.749V-58.3848L472.781 -25.2549ZM370.778 -58.7441L337.453 -25.2549H471.561L438.235 -58.7441H370.778ZM134.454 -25.2578H201.254V-92.3867L134.454 -25.2578ZM201.762 -58.8975H201.759V-25.2578H268.919V-58.8975L235.341 -92.6416L201.762 -58.8975ZM269.43 -25.2578H302.396L269.43 -58.3867V-25.2578ZM100.261 -25.2598H133.228L100.261 -58.3896V-25.2598ZM438.954 -58.7441L472.175 -25.3594L505.396 -58.7441H438.954ZM32.5977 -59.1064L65.9229 -25.6172V-92.8965L32.5977 -126.386V-59.1064ZM269.43 -59.1064L302.755 -25.6172V-160.897L302.65 -161.002L269.43 -194.387V-59.1064ZM100.364 -59.0039L133.586 -25.6201V-92.3887L100.364 -59.0039ZM134.094 -92.8984V-25.6201L167.419 -59.1084V-126.388L134.094 -92.8984ZM337.45 -92.7432L370.775 -59.2539H437.726L404.4 -92.7432H337.45ZM405.121 -92.7432L438.446 -59.2539H505.396L472.071 -92.7432H405.121ZM-102.746 -126.745V-93.1055L-69.165 -59.3613L-35.5859 -93.1055V-126.745H-102.746ZM438.948 -126.745L505.749 -59.6162V-126.745H438.948ZM-1.13672 -93.0039L32.085 -59.6191V-126.388L-1.13672 -93.0039ZM32.9551 -126.747L99.7559 -59.6191V-126.747H32.9551ZM100.261 -59.6191L133.586 -93.1084V-160.897L100.261 -194.387V-59.6191ZM167.929 -194.896V-59.6211L201.254 -93.1104V-194.898L201.149 -195.003L201.254 -195.108V-228.386L167.929 -194.896ZM201.762 -59.6211L235.087 -93.1104V-160.899L201.762 -194.389V-59.6211ZM235.594 -93.1104L268.919 -59.6211V-126.9L235.594 -160.39V-93.1104ZM303.62 -126.742L336.945 -93.2529H471.561L438.235 -126.742H336.945L336.841 -126.638L336.737 -126.742H303.62ZM303.27 -93.2637H336.237L303.27 -126.394V-93.2637ZM-35.0811 -126.745V-93.6152L-2.11328 -126.745H-35.0811ZM-1.24316 -126.747V-93.6182L31.7246 -126.747H-1.24316ZM134.094 -160.897V-93.6182L167.419 -127.107V-194.387L134.094 -160.897ZM-68.5527 -127.255H-1.75293V-194.384L-68.5527 -127.255ZM303.263 -127.258H336.229L303.263 -160.387V-127.258ZM337.458 -127.258H404.258V-194.387L337.458 -127.258ZM-0.875 -127.26H32.0928V-160.39L-0.875 -127.26ZM66.1768 -194.644L32.5977 -160.899V-127.26H99.7578V-160.899L66.1787 -194.644H66.1768ZM-1.24512 -262.895V-195.103L-1.1416 -194.998L-1.24512 -194.894V-127.614L32.0801 -161.104V-296.384L-1.24512 -262.895ZM235.597 -161.106L268.922 -127.617V-194.896L235.597 -228.386V-161.106ZM303.366 -161.002L336.588 -127.617V-194.387L303.366 -161.002ZM337.093 -194.896V-127.617L370.418 -161.106V-228.386L337.093 -194.896ZM404.756 -160.747V-127.617L437.723 -160.747H404.756ZM-69.0635 -194.743L-102.389 -161.254H-35.4385L-2.11328 -194.743H-69.0635ZM404.756 -228.747V-161.257H438.23V-161.259L471.81 -195.003L438.335 -228.643L438.23 -228.747H404.756ZM100.261 -228.747V-195.108L133.84 -161.364L167.419 -195.108V-228.747H100.261ZM66.4229 -262.895V-195.105L99.748 -161.616V-296.384L66.4229 -262.895ZM370.925 -296.896V-161.616L404.25 -195.105V-262.897L404.146 -263.002L404.25 -263.106V-330.386L370.925 -296.896ZM32.5996 -228.898V-161.619L65.9258 -195.108V-262.387L32.5996 -228.898ZM201.865 -195.003L235.087 -161.619V-228.388L201.865 -195.003ZM235.952 -228.747L302.752 -161.619V-228.747H269.277L269.173 -228.643L269.069 -228.747H235.952ZM303.263 -263.106L303.366 -263.002L303.263 -262.897V-161.619L336.588 -195.108V-262.897L303.263 -296.387V-263.106ZM-68.5527 -195.256H-2.11035L-35.332 -228.641L-68.5527 -195.256ZM-34.7207 -228.745L-1.75293 -195.615V-228.745H-34.7207ZM167.929 -228.747V-195.618L200.896 -228.747H167.929ZM201.762 -228.747V-195.618L234.729 -228.747H201.762ZM337.098 -262.899V-195.62L370.423 -229.109V-296.389L337.098 -262.899ZM-35.2275 -296.746V-296.743L-68.8066 -262.999L-35.332 -229.359L-35.2275 -229.255H-1.75293V-296.746H-35.2275ZM167.781 -262.747L134.456 -229.258H235.239L235.343 -229.362L235.447 -229.258H268.562L235.236 -262.747H167.781ZM269.787 -229.258H302.755V-262.387L269.787 -229.258ZM404.756 -229.258H437.723L404.756 -262.387V-229.258ZM100.261 -229.26H133.735L167.314 -263.004L133.735 -296.748H100.261V-229.26ZM235.952 -262.747L269.173 -229.362L302.395 -262.747H235.952ZM405.113 -262.747L438.335 -229.362L471.556 -262.747H405.113ZM32.5996 -296.898V-229.62L65.9258 -263.108V-330.388L32.5996 -296.898ZM438.438 -296.746L405.113 -263.257H472.063L505.389 -296.746H438.438ZM134.454 -296.748L167.779 -263.259H234.729L201.403 -296.748H134.454ZM202.122 -296.748L235.447 -263.259H302.396L269.071 -296.748H202.122ZM303.265 -330.747V-297.108L336.844 -263.364H336.847L370.426 -297.108V-330.747H303.265ZM66.4307 -263.616L99.6514 -297.001L66.4307 -330.386V-263.616ZM404.753 -330.745V-263.616L471.553 -330.745H404.753ZM-1.23242 -330.747V-263.619L65.5674 -330.747H-1.23242ZM235.954 -330.75L302.755 -263.621V-330.75H235.954ZM-34.7207 -297.256H-1.75293V-330.386L-34.7207 -297.256ZM100.613 -330.745L133.938 -297.256H268.557L235.231 -330.745H133.941L133.837 -330.641H133.834L133.73 -330.745H100.613ZM100.261 -297.259H133.228L100.261 -330.388V-297.259ZM66.7881 -330.747L99.7559 -297.618V-330.747H66.7881ZM370.933 -330.747V-297.618L403.9 -330.747H370.933ZM201.756 -331.255H234.724L201.756 -364.385V-331.255ZM269.274 -364.744L235.949 -331.255H370.058L336.732 -364.744H269.274ZM370.775 -398.743L337.196 -364.999L370.775 -331.255H404.25V-398.743H370.775ZM438.335 -398.639L404.756 -364.895V-331.255H471.916V-364.895L438.337 -398.639H438.335ZM472.424 -331.255H505.391L472.424 -364.385V-331.255ZM-102.746 -398.746V-331.258H-69.2715L-35.6924 -365.002L-69.2715 -398.746H-102.746ZM-35.2275 -364.747L-68.5527 -331.258H65.5547L32.2295 -364.747H-35.2275ZM66.791 -331.258H99.7578V-364.387L66.791 -331.258ZM100.256 -331.258H133.223L100.256 -364.387V-331.258ZM134.448 -331.258H201.249V-364.897L201.145 -365.002L201.249 -365.106V-398.387L134.448 -331.258ZM32.958 -364.747L66.1787 -331.362L99.4004 -364.747H32.958ZM202.124 -364.747L235.346 -331.362L268.566 -364.747H202.124ZM100.362 -365.002L133.583 -331.617V-398.387L100.362 -365.002ZM134.091 -398.894V-331.617L167.416 -365.106V-432.386L134.091 -398.894ZM-0.884766 -398.743L32.4404 -365.254H99.3906L66.0645 -398.743H-0.884766ZM235.441 -398.743L202.116 -365.254H269.066L302.392 -398.743H235.441ZM-68.5527 -398.746L-35.2275 -365.257H31.7217L-1.60352 -398.746H-68.5527ZM303.107 -398.746L269.782 -365.257H336.732L370.058 -398.746H303.107ZM32.9473 -432.745L99.748 -365.616V-432.745H32.9473ZM201.756 -432.745V-365.616L268.557 -432.745H201.756ZM269.274 -432.745L235.952 -399.253H370.57L370.567 -399.256L403.893 -432.745H269.274ZM-102.746 -399.256H-69.7783L-102.746 -432.386V-399.256ZM-102.389 -432.745L-69.0605 -399.256H65.5547L32.2295 -432.745H-102.389ZM371.283 -399.256H404.25V-432.386L371.283 -399.256ZM438.594 212.895L471.919 246.384V179.104L471.814 179H471.81L438.588 145.615V179H438.594V212.895ZM472.426 246.896L505.751 280.386V179H505.746V145.105L472.421 111.616V179H472.426V246.896ZM505.997 281.26H472.269L438.943 314.749H505.997V315.364L472.776 348.748H505.997V349.259H472.269L438.943 382.747H505.997V383.258H438.943L472.269 416.747H505.997V417.257H472.269L438.943 450.746H505.894L505.997 450.642V451.256H438.436L405.11 484.745H506V791H505.997V893.26H472.269L438.943 926.749H505.997V927.364L472.776 960.748H505.997V961.259H472.269L438.943 994.747H505.997V995.258H438.943L472.269 1028.75H505.997V1029.26H472.269L438.943 1062.75H505.894L505.997 1062.64V1063.26H438.436L405.11 1096.75H506V1403H505.746V1369.11L472.421 1335.62V1403H471.81L438.588 1369.62V1403H438.081V1369.11L404.756 1335.62V1368.9L404.859 1369L404.756 1369.11V1403H201.246V1301.61L167.921 1335.1V1403H167.31L167.413 1402.89V1335.61L134.088 1369.1V1403H133.581V1369.1L100.256 1335.61V1403H-103V1096.74H-69.2715L-35.9463 1063.25H-103V1062.64L-69.7783 1029.25H-103V1028.74H-69.2715L-35.9463 995.253H-103V994.742H-35.9463L-69.2715 961.253H-103V960.743H-69.2715L-35.9463 927.254H-102.896L-103 927.358V926.744H-35.4355L-2.11035 893.255H-103V791H100.261V858.384L133.586 824.895V791H134.094V824.385L167.314 791H167.926V858.384L201.251 824.895V791H201.246V689.614L167.921 723.104V790.997H167.31L167.413 790.893V723.613L134.088 757.103V790.997H133.581V757.103L100.256 723.613V790.997H-103V484.742H-69.2715L-35.9463 451.253H-103V450.639L-69.7783 417.252H-103V416.741H-69.2715L-35.9463 383.253H-103V382.742H-35.9463L-69.2715 349.253H-103V348.743H-69.2715L-35.9463 315.254H-102.896L-103 315.358V314.744H-35.4355L-2.11035 281.255H-103V179H100.261V246.384L133.586 212.895V179H134.094V212.385L167.314 179H167.926V246.384L201.251 212.895V179H201.246V77.6143L167.921 111.104V178.997H167.31L167.413 178.893V111.613L134.088 145.103V178.997H133.581V145.103L100.256 111.613V178.997H-103V-127.258H-69.2715L-35.9463 -160.747H-103V-161.361L-69.7783 -194.748H-103V-195.259H-69.2715L-35.9463 -228.747H-103V-229.258H-35.9463L-69.2715 -262.747H-103V-263.257H-69.2715L-35.9463 -296.746H-102.896L-103 -296.642V-297.256H-35.4355L-2.11035 -330.745H-103V-433H100.261V-365.616L133.586 -399.105V-433H134.094V-399.615L167.314 -433H167.926V-365.616L201.251 -399.105V-433H404.761V-365.616L438.086 -399.105V-433H438.594V-399.105L471.919 -365.616V-432.896L471.814 -433H472.426V-365.104L505.751 -331.614V-433H505.997V-330.74H472.269L438.943 -297.251H505.997V-296.636L472.776 -263.252H505.997V-262.741H472.269L438.943 -229.253H505.997V-228.742H438.943L472.269 -195.253H505.997V-194.743H472.269L438.943 -161.254H505.894L505.997 -161.358V-160.744H438.436L405.11 -127.255H506V179H505.997V281.26Z" fill="#6D6174" fill-opacity="0.5"/>
</svg>
