<svg width="609" height="1836" viewBox="0 0 609 1836" fill="none" xmlns="http://www.w3.org/2000/svg">
<path d="M541.081 612V578.105L507.756 544.616V577.896L507.859 578.001L507.756 578.105V612H507.761V679.384L541.086 645.895V612H541.081ZM0.611328 1835.75H135.229L168.555 1802.26H33.9365L0.611328 1835.75ZM135.947 1835.75H202.748V1768.62L135.947 1835.75ZM338.949 1835.75H473.058L439.732 1802.26H372.274L338.949 1835.75ZM474.283 1835.75H507.25V1802.62L474.283 1835.75ZM304.756 1835.74H338.231L371.811 1802L338.231 1768.25H304.756V1835.74ZM473.672 1835.64L506.893 1802.25H440.45L473.672 1835.64ZM0.253906 1835.39L33.2217 1802.26H0.253906V1835.39ZM541.591 1801.89L574.916 1835.38V1768.1L541.591 1734.61V1801.89ZM102.112 1801.75H169.062L202.388 1768.26H135.438L102.112 1801.75ZM372.274 1801.75H439.225L405.899 1768.26H338.949L372.274 1801.75ZM0.253906 1801.74H33.7314L67.3105 1768L67.3076 1768L33.7285 1734.25H0.253906V1801.74ZM34.4473 1801.74H101.399L134.725 1768.25H67.7725L34.4473 1801.74ZM439.942 1801.74H506.893L473.567 1768.25H406.617L439.942 1801.74ZM203.258 1767.89L203.362 1768L236.837 1801.64L270.416 1767.89V1734.25H236.941L236.837 1734.36L236.733 1734.25H203.258V1767.89ZM507.253 1801.39V1768.11L507.149 1768L507.253 1767.9V1734.26H440.453L507.253 1801.39ZM507.862 1768L541.083 1801.38V1734.61L507.862 1768ZM608.749 1801.38V1734.25H541.948L608.749 1801.38ZM67.7744 1767.75H135.232L168.558 1734.26H34.4492L67.7744 1767.75ZM304.759 1767.74H337.727L304.759 1734.61V1767.74ZM338.444 1767.74H473.06L439.734 1734.25H305.119L338.444 1767.74ZM135.958 1767.74H202.4L169.179 1734.35L135.958 1767.74ZM202.748 1767.38V1734.25H169.78L202.748 1767.38ZM270.924 1767.38L303.891 1734.25H270.924V1767.38ZM507.758 1767.38L540.726 1734.25H507.758V1767.38ZM338.698 1700L372.277 1733.75V1733.75H405.752V1666.26H372.277L338.698 1700ZM0.253906 1733.75H33.2217L0.253906 1700.62V1733.75ZM34.4492 1733.75H101.25V1666.62L34.4492 1733.75ZM101.755 1700.11V1733.75H168.913V1700.11L135.334 1666.36L101.755 1700.11ZM169.423 1733.75H202.391L169.423 1700.62V1733.75ZM203.258 1733.75H236.226L203.258 1700.62V1733.75ZM237.448 1733.75H371.557L338.231 1700.26H270.773L237.448 1733.75ZM473.778 1733.74H541.235L541.34 1733.64L541.443 1733.74H608.396L575.071 1700.25H440.453L473.778 1733.74ZM406.27 1733.74H473.07L406.27 1666.61V1733.74ZM236.847 1733.63L270.068 1700.25H203.626L236.847 1733.63ZM608.749 1733.39V1700.26H575.781L608.749 1733.39ZM34.0889 1666.1V1733.38L67.4141 1699.89V1632.61L34.0889 1666.1ZM0.357422 1700L33.5791 1733.38V1666.62L0.357422 1700ZM169.433 1699.89L202.758 1733.38V1700.1L202.654 1699.99L202.758 1699.89V1598.1L202.654 1598L169.433 1564.61V1699.89ZM541.694 1666L575.273 1699.75V1699.75H608.749V1632.26H575.273L541.694 1666ZM271.284 1699.75H338.233L371.559 1666.26H304.609L271.284 1699.75ZM507.61 1699.74H574.561L541.235 1666.25H474.285L507.61 1699.74ZM203.626 1699.74H270.576L303.901 1666.25H236.951L203.626 1699.74ZM439.953 1699.74H506.903L473.577 1666.25H406.628L439.953 1699.74ZM0.253906 1699.38L33.5791 1665.89V1598.11L0.253906 1564.62V1699.38ZM67.9219 1564.1V1699.38L101.247 1665.89V1564.1L101.143 1564L101.247 1563.89V1530.61L67.9219 1564.1ZM101.757 1699.38L135.082 1665.89V1598.1L101.757 1564.61V1699.38ZM135.598 1665.89L168.923 1699.38V1632.1L135.598 1598.61V1665.89ZM203.261 1699.38L270.061 1632.25H236.946L236.842 1632.36L236.738 1632.25H203.261V1699.38ZM237.448 1665.74H372.066L405.392 1632.25H270.773L237.448 1665.74ZM372.782 1665.74H405.75V1632.61L372.782 1665.74ZM473.778 1665.74H541.235L574.561 1632.25H440.453L473.778 1665.74ZM406.628 1665.74H473.07L439.849 1632.35L406.628 1665.74ZM34.0869 1598.11V1665.38L67.4121 1631.9V1564.62L34.0869 1598.11ZM406.27 1665.38L439.237 1632.25H406.27V1665.38ZM406.26 1631.75H439.734L473.313 1598V1598L439.734 1564.25H406.26V1631.75ZM440.453 1631.75H574.561L541.235 1598.26H473.778L440.453 1631.75ZM575.781 1631.75H608.749V1598.62L575.781 1631.75ZM237.454 1631.74H304.254V1564.61L237.454 1631.74ZM304.762 1598.1H304.759V1631.74H371.919V1598.1L338.341 1564.36L304.762 1598.1ZM372.43 1631.74H405.396L372.43 1598.61V1631.74ZM203.261 1631.74H236.228L203.261 1598.61V1631.74ZM575.175 1631.64L608.396 1598.26H541.954L575.175 1631.64ZM135.598 1597.89L168.923 1631.38V1564.1L135.598 1530.61V1597.89ZM372.43 1597.89L405.755 1631.38V1496.1L405.65 1496L372.43 1462.61V1597.89ZM203.364 1598L236.586 1631.38V1564.61L203.364 1598ZM237.094 1564.1V1631.38L270.419 1597.89V1530.61L237.094 1564.1ZM473.775 1597.75H540.726L507.4 1564.26H440.45L473.775 1597.75ZM541.446 1597.75H608.396L575.071 1564.26H508.121L541.446 1597.75ZM0.253906 1563.89L33.835 1597.64L67.4141 1563.89V1530.25H0.253906V1563.89ZM608.749 1597.38V1530.25H541.948L608.749 1597.38ZM101.863 1564L135.085 1597.38V1530.61L101.863 1564ZM202.756 1597.38V1530.25H135.955L202.756 1597.38ZM203.261 1597.38L236.586 1563.89V1496.1L203.261 1462.61V1597.38ZM270.929 1462.1V1597.38L304.254 1563.89V1462.1L304.149 1462L304.254 1461.89V1428.61L270.929 1462.1ZM304.762 1597.38L338.087 1563.89V1496.1L304.762 1462.61V1597.38ZM338.594 1563.89L371.919 1597.38V1530.1L338.594 1496.61V1563.89ZM439.945 1563.75H574.561L541.235 1530.26H439.945L439.841 1530.36L439.737 1530.26H406.62L439.945 1563.75ZM406.27 1563.74H439.237L406.27 1530.61V1563.74ZM67.9189 1563.38L100.887 1530.25H67.9189V1563.38ZM101.757 1563.38L134.725 1530.25H101.757V1563.38ZM237.094 1496.1V1563.38L270.419 1529.89V1462.61L237.094 1496.1ZM34.4473 1529.75H101.247V1462.62L34.4473 1529.75ZM406.263 1529.74H439.229L406.263 1496.61V1529.74ZM440.458 1529.74H507.258V1462.61L440.458 1529.74ZM102.125 1529.74H135.093V1496.61L102.125 1529.74ZM135.598 1496.1V1529.74H202.758V1496.1L169.179 1462.36H169.177L135.598 1496.1ZM101.755 1394.11V1461.9L101.858 1462L101.755 1462.11V1529.39L135.08 1495.9V1360.62L101.755 1394.11ZM338.597 1495.89L371.922 1529.38V1462.1L338.597 1428.61V1495.89ZM406.366 1496L439.588 1529.38V1462.61L406.366 1496ZM440.093 1462.1V1529.38L473.418 1495.89V1428.61L440.093 1462.1ZM507.756 1529.38L540.723 1496.25H507.756V1529.38ZM0.611328 1495.75H67.5615L100.887 1462.26H33.9365L0.611328 1495.75ZM507.756 1495.74H541.23V1495.74L574.81 1462L541.335 1428.36L541.23 1428.25H507.756V1495.74ZM203.261 1461.89L236.84 1495.64L270.419 1461.89V1428.25H203.261V1461.89ZM169.423 1394.11V1461.89L202.748 1495.38V1360.62L169.423 1394.11ZM473.925 1360.1V1495.38L507.25 1461.89V1394.1L507.146 1394L507.25 1393.89V1326.61L473.925 1360.1ZM135.6 1428.1V1495.38L168.926 1461.89V1394.61L135.6 1428.1ZM304.865 1462L338.087 1495.38V1428.61L304.865 1462ZM405.752 1495.38V1428.25H372.277L372.173 1428.36L372.069 1428.25H338.952L405.752 1495.38ZM406.263 1393.89L406.366 1394L406.263 1394.1V1495.38L439.588 1461.89V1394.1L406.263 1360.61V1393.89ZM34.4473 1461.74H100.89L67.668 1428.36L34.4473 1461.74ZM101.247 1461.38V1428.25H68.2793L101.247 1461.38ZM270.929 1461.38L303.896 1428.25H270.929V1461.38ZM304.762 1461.38L337.729 1428.25H304.762V1461.38ZM440.098 1394.1V1461.38L473.423 1427.89V1360.61L440.098 1394.1ZM67.7725 1360.26L34.1934 1394L67.668 1427.64L67.7725 1427.75H101.247V1360.25H67.7725V1360.26ZM237.456 1427.74H338.239L338.343 1427.64L338.447 1427.74H371.562L338.236 1394.25H270.781L237.456 1427.74ZM372.787 1427.74H405.755V1394.61L372.787 1427.74ZM507.756 1427.74H540.723L507.756 1394.61V1427.74ZM203.261 1427.74H236.735L270.314 1394L236.735 1360.25H203.261V1427.74ZM372.173 1427.64L405.395 1394.25H338.952L372.173 1427.64ZM541.335 1427.64L574.556 1394.25H508.113L541.335 1427.64ZM135.6 1360.1V1427.38L168.926 1393.89V1326.61L135.6 1360.1ZM508.113 1393.74H575.063L608.389 1360.25H541.438L508.113 1393.74ZM270.779 1393.74H337.729L304.403 1360.25H237.454L270.779 1393.74ZM338.447 1393.74H405.396L372.071 1360.25H305.122L338.447 1393.74ZM406.265 1359.89L439.844 1393.64H439.847L473.426 1359.89V1326.25H406.265V1359.89ZM169.431 1393.38L202.651 1360L169.431 1326.61V1393.38ZM507.753 1393.38L574.553 1326.25H507.753V1393.38ZM101.768 1393.38L168.567 1326.25H101.768V1393.38ZM405.755 1393.38V1326.25H338.954L405.755 1393.38ZM68.2793 1359.74H101.247V1326.61L68.2793 1359.74ZM236.938 1359.74H371.557L338.231 1326.25H236.941L236.837 1326.36H236.834L236.73 1326.25H203.613L236.938 1359.74ZM203.261 1359.74H236.228L203.261 1326.61V1359.74ZM202.756 1359.38V1326.25H169.788L202.756 1359.38ZM473.933 1359.38L506.9 1326.25H473.933V1359.38ZM304.756 1325.75H337.724L304.756 1292.62V1325.75ZM338.949 1325.75H473.058L439.732 1292.26H372.274L338.949 1325.75ZM440.196 1292L473.775 1325.75H507.25V1258.26H473.775L440.196 1292ZM507.756 1292.11V1325.75H574.916V1292.11L541.337 1258.36H541.335L507.756 1292.11ZM575.424 1325.75H608.391L575.424 1292.62V1325.75ZM0.253906 1325.74H33.7285L67.3076 1292L33.7285 1258.25H0.253906V1325.74ZM34.4473 1325.74H168.555L135.229 1292.25H67.7725L34.4473 1325.74ZM169.791 1325.74H202.758V1292.61L169.791 1325.74ZM203.256 1325.74H236.223L203.256 1292.61V1325.74ZM237.448 1325.74H304.249V1292.1L304.145 1292L304.249 1291.89V1258.61L237.448 1325.74ZM169.179 1325.64L202.4 1292.25H135.958L169.179 1325.64ZM338.346 1325.64L371.566 1292.25H305.124L338.346 1325.64ZM575.421 1224H575.426V1291.9L608.751 1325.39V1224H608.746V1190.11L575.421 1156.62V1224ZM203.362 1292L236.583 1325.38V1258.61L203.362 1292ZM237.091 1258.11V1325.38L270.416 1291.89V1224.61L237.091 1258.11ZM135.44 1291.75H202.391L169.064 1258.26H102.115L135.44 1291.75ZM305.116 1291.75H372.066L405.392 1258.26H338.441L305.116 1291.75ZM67.7725 1291.74H134.722L101.396 1258.25H34.4473L67.7725 1291.74ZM372.782 1291.74H439.732L473.058 1258.25H406.107L372.782 1291.74ZM202.748 1291.38V1224.25H135.947L202.748 1291.38ZM304.756 1291.38L371.557 1224.25H304.756V1291.38ZM507.756 1189.9L507.859 1190L507.756 1190.11V1224H507.761V1291.38L541.086 1257.89V1224H541.081V1190.11L507.756 1156.62V1189.9ZM541.588 1224H541.594V1257.89L574.919 1291.38V1224.1L574.814 1224H574.81L541.588 1190.62V1224ZM338.952 1257.75H473.57L473.567 1257.74L506.893 1224.25H372.274L338.952 1257.75ZM0.253906 1257.74H33.2217L0.253906 1224.61V1257.74ZM33.9395 1257.74H168.555L135.229 1224.25H0.611328L33.9395 1257.74ZM474.283 1257.74H507.25V1224.61L474.283 1257.74ZM0.611328 1223.75H135.229L168.555 1190.26H33.9365L0.611328 1223.75ZM135.947 1223.75H202.748V1156.62L135.947 1223.75ZM338.949 1223.75H473.058L439.732 1190.26H372.274L338.949 1223.75ZM474.283 1223.75H507.25V1190.62L474.283 1223.75ZM304.756 1223.74H338.231L371.811 1190L338.231 1156.25H304.756V1223.74ZM473.672 1223.64L506.893 1190.25H440.45L473.672 1223.64ZM0.253906 1223.39L33.2217 1190.26H0.253906V1223.39ZM541.591 1189.89L574.916 1223.38V1156.1L541.591 1122.61V1189.89ZM102.112 1189.75H169.062L202.388 1156.26H135.438L102.112 1189.75ZM372.274 1189.75H439.225L405.899 1156.26H338.949L372.274 1189.75ZM0.253906 1189.74H33.7314L67.3105 1156L67.3076 1156L33.7285 1122.25H0.253906V1189.74ZM34.4473 1189.74H101.399L134.725 1156.25H67.7725L34.4473 1189.74ZM439.942 1189.74H506.893L473.567 1156.25H406.617L439.942 1189.74ZM203.258 1155.89L203.362 1156L236.837 1189.64L270.416 1155.89V1122.25H236.941L236.837 1122.36L236.733 1122.25H203.258V1155.89ZM507.253 1189.39V1156.11L507.149 1156L507.253 1155.9V1122.26H440.453L507.253 1189.39ZM507.862 1156L541.083 1189.38V1122.61L507.862 1156ZM608.749 1189.38V1122.25H541.948L608.749 1189.38ZM67.7744 1155.75H135.232L168.558 1122.26H34.4492L67.7744 1155.75ZM304.759 1155.74H337.727L304.759 1122.61V1155.74ZM338.444 1155.74H473.06L439.734 1122.25H305.119L338.444 1155.74ZM135.958 1155.74H202.4L169.179 1122.35L135.958 1155.74ZM202.748 1155.38V1122.25H169.78L202.748 1155.38ZM270.924 1155.38L303.891 1122.25H270.924V1155.38ZM507.758 1155.38L540.726 1122.25H507.758V1155.38ZM338.698 1088L372.277 1121.75V1121.75H405.752V1054.26H372.277L338.698 1088ZM0.253906 1121.75H33.2217L0.253906 1088.62V1121.75ZM34.4492 1121.75H101.25V1054.62L34.4492 1121.75ZM101.755 1088.11V1121.75H168.913V1088.11L135.334 1054.36L101.755 1088.11ZM169.423 1121.75H202.391L169.423 1088.62V1121.75ZM203.258 1121.75H236.226L203.258 1088.62V1121.75ZM237.448 1121.75H371.557L338.231 1088.26H270.773L237.448 1121.75ZM473.778 1121.74H541.235L541.34 1121.64L541.443 1121.74H608.396L575.071 1088.25H440.453L473.778 1121.74ZM406.27 1121.74H473.07L406.27 1054.61V1121.74ZM236.847 1121.63L270.068 1088.25H203.626L236.847 1121.63ZM608.749 1121.39V1088.26H575.781L608.749 1121.39ZM34.0889 1054.1V1121.38L67.4141 1087.89V1020.61L34.0889 1054.1ZM0.357422 1088L33.5791 1121.38V1054.62L0.357422 1088ZM169.433 1087.89L202.758 1121.38V1088.1L202.654 1087.99L202.758 1087.89V986.101L202.654 985.996L169.433 952.611V1087.89ZM541.694 1054L575.273 1087.75V1087.75H608.749V1020.26H575.273L541.694 1054ZM271.284 1087.75H338.233L371.559 1054.26H304.609L271.284 1087.75ZM507.61 1087.74H574.561L541.235 1054.25H474.285L507.61 1087.74ZM203.626 1087.74H270.576L303.901 1054.25H236.951L203.626 1087.74ZM439.953 1087.74H506.903L473.577 1054.25H406.628L439.953 1087.74ZM0.253906 1087.38L33.5791 1053.89V986.105L0.253906 952.616V1087.38ZM67.9219 952.102V1087.38L101.247 1053.89V952.104L101.143 951.999L101.247 951.895V918.612L67.9219 952.102ZM101.757 1087.38L135.082 1053.89V986.101L101.757 952.611V1087.38ZM135.598 1053.89L168.923 1087.38V1020.1L135.598 986.613V1053.89ZM203.261 1087.38L270.061 1020.25H236.946L236.842 1020.36L236.738 1020.25H203.261V1087.38ZM237.448 1053.74H372.066L405.392 1020.25H270.773L237.448 1053.74ZM372.782 1053.74H405.75V1020.61L372.782 1053.74ZM473.778 1053.74H541.235L574.561 1020.25H440.453L473.778 1053.74ZM406.628 1053.74H473.07L439.849 1020.35L406.628 1053.74ZM34.0869 986.105V1053.38L67.4121 1019.9V952.616L34.0869 986.105ZM406.27 1053.38L439.237 1020.25H406.27V1053.38ZM406.26 1019.75H439.734L473.313 986.001V985.998L439.734 952.254H406.26V1019.75ZM440.453 1019.75H574.561L541.235 986.256H473.778L440.453 1019.75ZM575.781 1019.75H608.749V986.615L575.781 1019.75ZM237.454 1019.74H304.254V952.613L237.454 1019.74ZM304.762 986.103H304.759V1019.74H371.919V986.103L338.341 952.358L304.762 986.103ZM372.43 1019.74H405.396L372.43 986.613V1019.74ZM203.261 1019.74H236.228L203.261 986.61V1019.74ZM575.175 1019.64L608.396 986.256H541.954L575.175 1019.64ZM135.598 985.894L168.923 1019.38V952.104L135.598 918.614V985.894ZM372.43 985.894L405.755 1019.38V884.103L405.65 883.998L372.43 850.613V985.894ZM203.364 985.996L236.586 1019.38V952.611L203.364 985.996ZM237.094 952.102V1019.38L270.419 985.892V918.612L237.094 952.102ZM473.775 985.746H540.726L507.4 952.257H440.45L473.775 985.746ZM541.446 985.746H608.396L575.071 952.257H508.121L541.446 985.746ZM0.253906 951.895L33.835 985.639L67.4141 951.895V918.255H0.253906V951.895ZM608.749 985.384V918.255H541.948L608.749 985.384ZM101.863 951.996L135.085 985.381V918.612L101.863 951.996ZM202.756 985.381V918.253H135.955L202.756 985.381ZM203.261 985.381L236.586 951.892V884.103L203.261 850.613V985.381ZM270.929 850.104V985.379L304.254 951.89V850.102L304.149 849.997L304.254 849.892V816.614L270.929 850.104ZM304.762 985.379L338.087 951.89V884.101L304.762 850.611V985.379ZM338.594 951.89L371.919 985.379V918.1L338.594 884.61V951.89ZM439.945 951.747H574.561L541.235 918.258H439.945L439.841 918.362L439.737 918.258H406.62L439.945 951.747ZM406.27 951.736H439.237L406.27 918.606V951.736ZM67.9189 951.385L100.887 918.255H67.9189V951.385ZM101.757 951.382L134.725 918.253H101.757V951.382ZM237.094 884.103V951.382L270.419 917.893V850.613L237.094 884.103ZM34.4473 917.745H101.247V850.616L34.4473 917.745ZM406.263 917.742H439.229L406.263 884.613V917.742ZM440.458 917.742H507.258V850.613L440.458 917.742ZM102.125 917.74H135.093V884.61L102.125 917.74ZM135.598 884.101V917.74H202.758V884.101L169.179 850.356H169.177L135.598 884.101ZM101.755 782.105V849.897L101.858 850.002L101.755 850.106V917.386L135.08 883.896V748.616L101.755 782.105ZM338.597 883.894L371.922 917.383V850.104L338.597 816.614V883.894ZM406.366 883.998L439.588 917.383V850.613L406.366 883.998ZM440.093 850.104V917.383L473.418 883.894V816.614L440.093 850.104ZM507.756 917.383L540.723 884.253H507.756V917.383ZM0.611328 883.746H67.5615L100.887 850.257H33.9365L0.611328 883.746ZM507.756 883.743H541.23V883.741L574.81 849.997L541.335 816.357L541.23 816.253H507.756V883.743ZM203.261 849.892L236.84 883.636L270.419 849.892V816.253H203.261V849.892ZM169.423 782.105V849.895L202.748 883.384V748.616L169.423 782.105ZM473.925 748.104V883.384L507.25 849.895V782.103L507.146 781.998L507.25 781.894V714.614L473.925 748.104ZM135.6 816.102V883.381L168.926 849.892V782.613L135.6 816.102ZM304.865 849.997L338.087 883.381V816.612L304.865 849.997ZM405.752 883.381V816.253H372.277L372.173 816.357L372.069 816.253H338.952L405.752 883.381ZM406.263 781.894L406.366 781.998L406.263 782.103V883.381L439.588 849.892V782.103L406.263 748.613V781.894ZM34.4473 849.744H100.89L67.668 816.359L34.4473 849.744ZM101.247 849.385V816.255H68.2793L101.247 849.385ZM270.929 849.382L303.896 816.253H270.929V849.382ZM304.762 849.382L337.729 816.253H304.762V849.382ZM440.098 782.101V849.38L473.423 815.891V748.611L440.098 782.101ZM67.7725 748.257L34.1934 782.001L67.668 815.641L67.7725 815.745H101.247V748.254H67.7725V748.257ZM237.456 815.742H338.239L338.343 815.638L338.447 815.742H371.562L338.236 782.253H270.781L237.456 815.742ZM372.787 815.742H405.755V782.613L372.787 815.742ZM507.756 815.742H540.723L507.756 782.613V815.742ZM203.261 815.74H236.735L270.314 781.996L236.735 748.252H203.261V815.74ZM372.173 815.638L405.395 782.253H338.952L372.173 815.638ZM541.335 815.638L574.556 782.253H508.113L541.335 815.638ZM135.6 748.102V815.38L168.926 781.892V714.612L135.6 748.102ZM508.113 781.743H575.063L608.389 748.254H541.438L508.113 781.743ZM270.779 781.741H337.729L304.403 748.252H237.454L270.779 781.741ZM338.447 781.741H405.396L372.071 748.252H305.122L338.447 781.741ZM406.265 747.892L439.844 781.636H439.847L473.426 747.892V714.253H406.265V747.892ZM169.431 781.384L202.651 747.999L169.431 714.614V781.384ZM507.753 781.384L574.553 714.255H507.753V781.384ZM101.768 781.381L168.567 714.253H101.768V781.381ZM405.755 781.379V714.25H338.954L405.755 781.379ZM68.2793 747.744H101.247V714.614L68.2793 747.744ZM236.938 747.744H371.557L338.231 714.255H236.941L236.837 714.359H236.834L236.73 714.255H203.613L236.938 747.744ZM203.261 747.741H236.228L203.261 714.612V747.741ZM202.756 747.382V714.253H169.788L202.756 747.382ZM473.933 747.382L506.9 714.253H473.933V747.382ZM304.756 713.745H337.724L304.756 680.615V713.745ZM338.949 713.745H473.058L439.732 680.256H372.274L338.949 713.745ZM440.196 680.001L473.775 713.745H507.25V646.257H473.775L440.196 680.001ZM507.756 680.105V713.745H574.916V680.105L541.337 646.361H541.335L507.756 680.105ZM575.424 713.745H608.391L575.424 680.615V713.745ZM0.253906 713.742H33.7285L67.3076 679.998L33.7285 646.254H0.253906V713.742ZM34.4473 713.742H168.555L135.229 680.253H67.7725L34.4473 713.742ZM169.791 713.742H202.758V680.613L169.791 713.742ZM203.256 713.742H236.223L203.256 680.613V713.742ZM237.448 713.742H304.249V680.103L304.145 679.998L304.249 679.894V646.613L237.448 713.742ZM169.179 713.638L202.4 680.253H135.958L169.179 713.638ZM338.346 713.638L371.566 680.253H305.124L338.346 713.638ZM203.362 679.998L236.583 713.383V646.613L203.362 679.998ZM237.091 646.106V713.383L270.416 679.894V612.614L237.091 646.106ZM135.44 679.746H202.391L169.064 646.257H102.115L135.44 679.746ZM305.116 679.746H372.066L405.392 646.257H338.441L305.116 679.746ZM67.7725 679.743H134.722L101.396 646.254H34.4473L67.7725 679.743ZM372.782 679.743H439.732L473.058 646.254H406.107L372.782 679.743ZM202.748 679.384V612.255H135.947L202.748 679.384ZM304.756 679.384L371.557 612.255H304.756V679.384ZM338.952 645.747H473.57L473.567 645.744L506.893 612.255H372.274L338.952 645.747ZM0.253906 645.744H33.2217L0.253906 612.614V645.744ZM33.9395 645.744H168.555L135.229 612.255H0.611328L33.9395 645.744ZM474.283 645.744H507.25V612.614L474.283 645.744ZM33.9365 578.256L0.611328 611.745H135.229L168.555 578.256H33.9365ZM135.947 611.745H202.748V544.616L135.947 611.745ZM474.283 611.745H507.25V578.615L474.283 611.745ZM372.274 578.256L338.949 611.745H473.058L439.732 578.256H372.274ZM304.756 611.742H338.231L371.811 577.998L338.231 544.254H304.756V611.742ZM440.45 578.253L473.672 611.638L506.893 578.253H440.45ZM0.253906 578.256V611.386L33.2217 578.256H0.253906ZM541.591 577.894L574.916 611.383V544.104L541.591 510.614V577.894ZM135.438 544.257L102.112 577.746H169.062L202.388 544.257H135.438ZM338.949 544.257L372.274 577.746H439.225L405.899 544.257H338.949ZM0.253906 510.252V577.743H33.7314L67.3105 543.999L67.3076 543.997L33.7285 510.252H0.253906ZM67.7725 544.254L34.4473 577.743H101.399L134.725 544.254H67.7725ZM406.617 544.254L439.942 577.743H506.893L473.567 544.254H406.617ZM203.258 510.255V543.895L203.362 543.999L236.837 577.639L270.416 543.895V510.255H236.941L236.837 510.359L236.733 510.255H203.258ZM440.453 510.258L507.253 577.387V544.106L507.149 544.002L507.253 543.897V510.258H440.453ZM507.862 543.999L541.083 577.384V510.614L507.862 543.999ZM541.948 510.255L608.749 577.384V510.255H541.948ZM34.4492 510.258L67.7744 543.747H135.232L168.558 510.258H34.4492ZM304.759 543.744H337.727L304.759 510.614V543.744ZM305.119 510.255L338.444 543.744H473.06L439.734 510.255H305.119ZM135.958 543.739H202.4L169.179 510.354L135.958 543.739ZM169.78 510.255L202.748 543.385V510.255H169.78ZM270.924 510.255V543.385L303.891 510.255H270.924ZM507.758 510.255V543.385L540.726 510.255H507.758ZM372.277 442.257L338.698 476.001L372.277 509.745V509.747H405.752V442.257H372.277ZM0.253906 509.745H33.2217L0.253906 476.615V509.745ZM34.4492 509.745H101.25V442.616L34.4492 509.745ZM101.755 476.105V509.745H168.913V476.105L135.334 442.361L101.755 476.105ZM169.423 509.745H202.391L169.423 476.615V509.745ZM203.258 509.745H236.226L203.258 476.615V509.745ZM270.773 476.256L237.448 509.745H371.557L338.231 476.256H270.773ZM440.453 476.253L473.778 509.742H541.235L541.34 509.638L541.443 509.742H608.396L575.071 476.253H440.453ZM406.27 509.737H473.07L406.27 442.608V509.737ZM203.626 476.248L236.847 509.633L270.068 476.248H203.626ZM575.781 476.256L608.749 509.386V476.256H575.781ZM34.0889 442.104V509.383L67.4141 475.894V408.614L34.0889 442.104ZM0.357422 476.001L33.5791 509.379V442.616L0.357422 476.001ZM169.433 475.889L202.758 509.378V476.098L202.654 475.993L202.758 475.889V374.101L202.654 373.996L169.433 340.611V475.889ZM575.273 408.258L541.694 442.002L575.273 475.746V475.748H608.749V408.258H575.273ZM304.609 442.257L271.284 475.746H338.233L371.559 442.257H304.609ZM474.285 442.254L507.61 475.743H574.561L541.235 442.254H474.285ZM236.951 442.249L203.626 475.738H270.576L303.901 442.249H236.951ZM406.628 442.246L439.953 475.735H506.903L473.577 442.246H406.628ZM0.253906 475.384L33.5791 441.895V374.105L0.253906 340.616V475.384ZM67.9219 340.102V475.381L101.247 441.892V340.104L101.143 339.999L101.247 339.895V306.612L67.9219 340.102ZM101.757 475.381L135.082 441.892V374.101L101.757 340.611V475.381ZM135.598 441.892L168.923 475.381V408.102L135.598 374.613V441.892ZM203.261 408.252V475.381L270.061 408.252H236.946L236.842 408.357L236.738 408.252H203.261ZM270.773 408.255L237.448 441.744H372.066L405.392 408.255H270.773ZM372.782 441.744H405.75V408.614L372.782 441.744ZM440.453 408.255L473.778 441.744H541.235L574.561 408.255H440.453ZM406.628 441.736H473.07L439.849 408.352L406.628 441.736ZM34.0869 374.105V441.385L67.4121 407.896V340.616L34.0869 374.105ZM406.27 408.247V441.377L439.237 408.247H406.27ZM406.26 340.254V407.745H439.734L473.313 374.001V373.998L439.734 340.254H406.26ZM575.781 407.745H608.749V374.615L575.781 407.745ZM473.778 374.256L440.453 407.745H574.561L541.235 374.256H473.778ZM237.454 407.742H304.254V340.613L237.454 407.742ZM304.762 374.103H304.759V407.742H371.919V374.103L338.341 340.358L304.762 374.103ZM372.43 407.742H405.396L372.43 374.613V407.742ZM203.261 407.74H236.228L203.261 374.61V407.74ZM541.954 374.256L575.175 407.641L608.396 374.256H541.954ZM135.598 373.894L168.923 407.383V340.104L135.598 306.614V373.894ZM372.43 373.894L405.755 407.383V272.103L405.65 271.998L372.43 238.613V373.894ZM203.364 373.996L236.586 407.38V340.611L203.364 373.996ZM237.094 340.102V407.38L270.419 373.892V306.612L237.094 340.102ZM440.45 340.257L473.775 373.746H540.726L507.4 340.257H440.45ZM508.121 340.257L541.446 373.746H608.396L575.071 340.257H508.121ZM0.253906 306.255V339.895L33.835 373.639L67.4141 339.895V306.255H0.253906ZM541.948 306.255L608.749 373.384V306.255H541.948ZM101.863 339.996L135.085 373.381V306.612L101.863 339.996ZM135.955 306.253L202.756 373.381V306.253H135.955ZM203.261 373.381L236.586 339.892V272.103L203.261 238.613V373.381ZM270.929 238.104V373.379L304.254 339.89V238.102L304.149 237.997L304.254 237.892V204.614L270.929 238.104ZM304.762 373.379L338.087 339.89V272.101L304.762 238.611V373.379ZM338.594 339.89L371.919 373.379V306.1L338.594 272.61V339.89ZM406.62 306.258L439.945 339.747H574.561L541.235 306.258H439.945L439.841 306.362L439.737 306.258H406.62ZM406.27 339.736H439.237L406.27 306.606V339.736ZM67.9189 306.255V339.385L100.887 306.255H67.9189ZM101.757 306.253V339.382L134.725 306.253H101.757ZM237.094 272.103V339.382L270.419 305.893V238.613L237.094 272.103ZM34.4473 305.745H101.247V238.616L34.4473 305.745ZM406.263 305.742H439.229L406.263 272.613V305.742ZM440.458 305.742H507.258V238.613L440.458 305.742ZM102.125 305.74H135.093V272.61L102.125 305.74ZM169.177 238.356L135.598 272.101V305.74H202.758V272.101L169.179 238.356H169.177ZM101.755 170.105V237.897L101.858 238.002L101.755 238.106V305.386L135.08 271.896V136.616L101.755 170.105ZM338.597 271.894L371.922 305.383V238.104L338.597 204.614V271.894ZM406.366 271.998L439.588 305.383V238.613L406.366 271.998ZM440.093 238.104V305.383L473.418 271.894V204.614L440.093 238.104ZM507.756 272.253V305.383L540.723 272.253H507.756ZM33.9365 238.257L0.611328 271.746H67.5615L100.887 238.257H33.9365ZM507.756 204.253V271.743H541.23V271.741L574.81 237.997L541.335 204.357L541.23 204.253H507.756ZM203.261 204.253V237.892L236.84 271.636L270.419 237.892V204.253H203.261ZM169.423 170.105V237.895L202.748 271.384V136.616L169.423 170.105ZM473.925 136.104V271.384L507.25 237.895V170.103L507.146 169.998L507.25 169.894V102.614L473.925 136.104ZM135.6 204.102V271.381L168.926 237.892V170.613L135.6 204.102ZM304.865 237.997L338.087 271.381V204.612L304.865 237.997ZM338.952 204.253L405.752 271.381V204.253H372.277L372.173 204.357L372.069 204.253H338.952ZM406.263 169.894L406.366 169.998L406.263 170.103V271.381L439.588 237.892V170.103L406.263 136.613V169.894ZM34.4473 237.744H100.89L67.668 204.359L34.4473 237.744ZM68.2793 204.255L101.247 237.385V204.255H68.2793ZM270.929 204.253V237.382L303.896 204.253H270.929ZM304.762 204.253V237.382L337.729 204.253H304.762ZM440.098 170.101V237.38L473.423 203.891V136.611L440.098 170.101ZM67.7725 136.254V136.257L34.1934 170.001L67.668 203.641L67.7725 203.745H101.247V136.254H67.7725ZM270.781 170.253L237.456 203.742H338.239L338.343 203.638L338.447 203.742H371.562L338.236 170.253H270.781ZM372.787 203.742H405.755V170.613L372.787 203.742ZM507.756 203.742H540.723L507.756 170.613V203.742ZM203.261 203.74H236.735L270.314 169.996L236.735 136.252H203.261V203.74ZM338.952 170.253L372.173 203.638L405.395 170.253H338.952ZM508.113 170.253L541.335 203.638L574.556 170.253H508.113ZM135.6 136.102V203.38L168.926 169.892V102.612L135.6 136.102ZM541.438 136.254L508.113 169.743H575.063L608.389 136.254H541.438ZM237.454 136.252L270.779 169.741H337.729L304.403 136.252H237.454ZM305.122 136.252L338.447 169.741H405.396L372.071 136.252H305.122ZM406.265 102.253V135.892L439.844 169.636H439.847L473.426 135.892V102.253H406.265ZM169.431 169.384L202.651 135.999L169.431 102.614V169.384ZM507.753 102.255V169.384L574.553 102.255H507.753ZM101.768 102.253V169.381L168.567 102.253H101.768ZM338.954 102.25L405.755 169.379V102.25H338.954ZM68.2793 135.744H101.247V102.614L68.2793 135.744ZM203.613 102.255L236.938 135.744H371.557L338.231 102.255H236.941L236.837 102.359H236.834L236.73 102.255H203.613ZM203.261 135.741H236.228L203.261 102.612V135.741ZM169.788 102.253L202.756 135.382V102.253H169.788ZM473.933 102.253V135.382L506.9 102.253H473.933ZM304.756 101.745H337.724L304.756 68.6152V101.745ZM372.274 68.2559L338.949 101.745H473.058L439.732 68.2559H372.274ZM473.775 34.2568L440.196 68.001L473.775 101.745H507.25V34.2568H473.775ZM541.335 34.3613L507.756 68.1055V101.745H574.916V68.1055L541.337 34.3613H541.335ZM575.424 101.745H608.391L575.424 68.6152V101.745ZM0.253906 34.2539V101.742H33.7285L67.3076 67.998L33.7285 34.2539H0.253906ZM67.7725 68.2529L34.4473 101.742H168.555L135.229 68.2529H67.7725ZM169.791 101.742H202.758V68.6133L169.791 101.742ZM203.256 101.742H236.223L203.256 68.6133V101.742ZM237.448 101.742H304.249V68.1025L304.145 67.998L304.249 67.8936V34.6133L237.448 101.742ZM135.958 68.2529L169.179 101.638L202.4 68.2529H135.958ZM305.124 68.2529L338.346 101.638L371.566 68.2529H305.124ZM203.362 67.998L236.583 101.383V34.6133L203.362 67.998ZM237.091 34.1064V101.383L270.416 67.8936V0.614258L237.091 34.1064ZM102.115 34.2568L135.44 67.7461H202.391L169.064 34.2568H102.115ZM338.441 34.2568L305.116 67.7461H372.066L405.392 34.2568H338.441ZM34.4473 34.2539L67.7725 67.7432H134.722L101.396 34.2539H34.4473ZM406.107 34.2539L372.782 67.7432H439.732L473.058 34.2539H406.107ZM135.947 0.254883L202.748 67.3838V0.254883H135.947ZM304.756 0.254883V67.3838L371.557 0.254883H304.756ZM372.274 0.254883L338.952 33.7471H473.57L473.567 33.7441L506.893 0.254883H372.274ZM0.253906 33.7441H33.2217L0.253906 0.614258V33.7441ZM0.611328 0.254883L33.9395 33.7441H168.555L135.229 0.254883H0.611328ZM474.283 33.7441H507.25V0.614258L474.283 33.7441ZM541.594 645.895L574.919 679.384V612.104L574.814 612H574.81L541.588 578.615V612H541.594V645.895ZM575.426 679.896L608.751 713.386V612H608.746V578.105L575.421 544.616V612H575.426V679.896ZM608.997 714.26H575.269L541.943 747.749H608.997V748.364L575.776 781.748H608.997V782.259H575.269L541.943 815.747H608.997V816.258H541.943L575.269 849.747H608.997V850.257H575.269L541.943 883.746H608.894L608.997 883.642V884.256H541.436L508.11 917.745H609V1224H608.997V1326.26H575.269L541.943 1359.75H608.997V1360.36L575.776 1393.75H608.997V1394.26H575.269L541.943 1427.75H608.997V1428.26H541.943L575.269 1461.75H608.997V1462.26H575.269L541.943 1495.75H608.894L608.997 1495.64V1496.26H541.436L508.11 1529.75H609V1836H608.746V1802.11L575.421 1768.62V1836H574.81L541.588 1802.62V1836H541.081V1802.11L507.756 1768.62V1801.9L507.859 1802L507.756 1802.11V1836H304.246V1734.61L270.921 1768.1V1836H270.31L270.413 1835.89V1768.61L237.088 1802.1V1836H236.581V1802.1L203.256 1768.61V1836H0V1529.74H33.7285L67.0537 1496.25H0V1495.64L33.2217 1462.25H0V1461.74H33.7285L67.0537 1428.25H0V1427.74H67.0537L33.7285 1394.25H0V1393.74H33.7285L67.0537 1360.25H0.104492L0 1360.36V1359.74H67.5645L100.89 1326.25H0V1224H203.261V1291.38L236.586 1257.89V1224H237.094V1257.38L270.314 1224H270.926V1291.38L304.251 1257.89V1224H304.246V1122.61L270.921 1156.1V1224H270.31L270.413 1223.89V1156.61L237.088 1190.1V1224H236.581V1190.1L203.256 1156.61V1224H0V917.742H33.7285L67.0537 884.253H0V883.639L33.2217 850.252H0V849.741H33.7285L67.0537 816.253H0V815.742H67.0537L33.7285 782.253H0V781.743H33.7285L67.0537 748.254H0.104492L0 748.358V747.744H67.5645L100.89 714.255H0V612H203.261V679.384L236.586 645.895V612H237.094V645.385L270.314 612H270.926V679.384L304.251 645.895V612H304.246V510.614L270.921 544.104V611.997H270.31L270.413 611.893V544.613L237.088 578.103V611.997H236.581V578.103L203.256 544.613V611.997H0V305.742H33.7285L67.0537 272.253H0V271.639L33.2217 238.252H0V237.741H33.7285L67.0537 204.253H0V203.742H67.0537L33.7285 170.253H0V169.743H33.7285L67.0537 136.254H0.104492L0 136.358V135.744H67.5645L100.89 102.255H0V0H203.261V67.3838L236.586 33.8945V0H237.094V33.3848L270.314 0H270.926V67.3838L304.251 33.8945V0H507.761V67.3838L541.086 33.8945V0H541.594V33.8945L574.919 67.3838V0.104492L574.814 0H575.426V67.8965L608.751 101.386V0H608.997V102.26H575.269L541.943 135.749H608.997V136.364L575.776 169.748H608.997V170.259H575.269L541.943 203.747H608.997V204.258H541.943L575.269 237.747H608.997V238.257H575.269L541.943 271.746H608.894L608.997 271.642V272.256H541.436L508.11 305.745H609V612H608.997V714.26Z" fill="url(#paint0_linear_393_1107)" fill-opacity="0.5"/>
<defs>
<linearGradient id="paint0_linear_393_1107" x1="609" y1="918" x2="0" y2="918" gradientUnits="userSpaceOnUse">
<stop offset="0.1" stop-color="#201B22" stop-opacity="0"/>
<stop offset="0.5" stop-color="#201B22" stop-opacity="0.2"/>
<stop offset="0.9" stop-color="#201B22" stop-opacity="0"/>
</linearGradient>
</defs>
</svg>
