<svg width="402" height="2804" viewBox="0 0 402 2804" fill="none" xmlns="http://www.w3.org/2000/svg">
<path d="M438.081 612V578.105L404.756 544.616V577.896L404.859 578.001L404.756 578.105V612H404.761V679.384L438.086 645.895V612H438.081ZM-102.389 1835.75H32.2295L65.5547 1802.26H-69.0635L-102.389 1835.75ZM32.9473 1835.75H99.748V1768.62L32.9473 1835.75ZM235.949 1835.75H370.058L336.732 1802.26H269.274L235.949 1835.75ZM371.283 1835.75H404.25V1802.62L371.283 1835.75ZM201.756 1835.74H235.231L268.811 1802L235.231 1768.25H201.756V1835.74ZM370.672 1835.64L403.893 1802.25H337.45L370.672 1835.64ZM-102.746 1835.39L-69.7783 1802.26H-102.746V1835.39ZM438.591 1801.89L471.916 1835.38V1768.1L438.591 1734.61V1801.89ZM-0.887695 1801.75H66.0625L99.3877 1768.26H32.4375L-0.887695 1801.75ZM269.274 1801.75H336.225L302.899 1768.26H235.949L269.274 1801.75ZM-102.746 1801.74H-69.2686L-35.6895 1768L-35.6924 1768L-69.2715 1734.25H-102.746V1801.74ZM-68.5527 1801.74H-1.60059L31.7246 1768.25H-35.2275L-68.5527 1801.74ZM336.942 1801.74H403.893L370.567 1768.25H303.617L336.942 1801.74ZM100.258 1767.89L100.362 1768L133.837 1801.64L167.416 1767.89V1734.25H133.941L133.837 1734.36L133.733 1734.25H100.258V1767.89ZM404.253 1801.39V1768.11L404.149 1768L404.253 1767.9V1734.26H337.453L404.253 1801.39ZM404.862 1768L438.083 1801.38V1734.61L404.862 1768ZM505.749 1801.38V1734.25H438.948L505.749 1801.38ZM-35.2256 1767.75H32.2324L65.5576 1734.26H-68.5508L-35.2256 1767.75ZM201.759 1767.74H234.727L201.759 1734.61V1767.74ZM235.444 1767.74H370.06L336.734 1734.25H202.119L235.444 1767.74ZM32.958 1767.74H99.4004L66.1787 1734.35L32.958 1767.74ZM99.748 1767.38V1734.25H66.7803L99.748 1767.38ZM167.924 1767.38L200.891 1734.25H167.924V1767.38ZM404.758 1767.38L437.726 1734.25H404.758V1767.38ZM235.698 1700L269.277 1733.75V1733.75H302.752V1666.26H269.277L235.698 1700ZM-102.746 1733.75H-69.7783L-102.746 1700.62V1733.75ZM-68.5508 1733.75H-1.75V1666.62L-68.5508 1733.75ZM-1.24512 1700.11V1733.75H65.9131V1700.11L32.334 1666.36L-1.24512 1700.11ZM66.4229 1733.75H99.3906L66.4229 1700.62V1733.75ZM100.258 1733.75H133.226L100.258 1700.62V1733.75ZM134.448 1733.75H268.557L235.231 1700.26H167.773L134.448 1733.75ZM370.778 1733.74H438.235L438.34 1733.64L438.443 1733.74H505.396L472.071 1700.25H337.453L370.778 1733.74ZM303.27 1733.74H370.07L303.27 1666.61V1733.74ZM133.847 1733.63L167.068 1700.25H100.626L133.847 1733.63ZM505.749 1733.39V1700.26H472.781L505.749 1733.39ZM-68.9111 1666.1V1733.38L-35.5859 1699.89V1632.61L-68.9111 1666.1ZM-102.643 1700L-69.4209 1733.38V1666.62L-102.643 1700ZM66.4326 1699.89L99.7578 1733.38V1700.1L99.6543 1699.99L99.7578 1699.89V1598.1L99.6543 1598L66.4326 1564.61V1699.89ZM438.694 1666L472.273 1699.75V1699.75H505.749V1632.26H472.273L438.694 1666ZM168.284 1699.75H235.233L268.559 1666.26H201.609L168.284 1699.75ZM404.61 1699.74H471.561L438.235 1666.25H371.285L404.61 1699.74ZM100.626 1699.74H167.576L200.901 1666.25H133.951L100.626 1699.74ZM336.953 1699.74H403.903L370.577 1666.25H303.628L336.953 1699.74ZM-102.746 1699.38L-69.4209 1665.89V1598.11L-102.746 1564.62V1699.38ZM-35.0781 1564.1V1699.38L-1.75293 1665.89V1564.1L-1.85742 1564L-1.75293 1563.89V1530.61L-35.0781 1564.1ZM-1.24316 1699.38L32.082 1665.89V1598.1L-1.24316 1564.61V1699.38ZM32.5977 1665.89L65.9229 1699.38V1632.1L32.5977 1598.61V1665.89ZM100.261 1699.38L167.061 1632.25H133.946L133.842 1632.36L133.738 1632.25H100.261V1699.38ZM134.448 1665.74H269.066L302.392 1632.25H167.773L134.448 1665.74ZM269.782 1665.74H302.75V1632.61L269.782 1665.74ZM370.778 1665.74H438.235L471.561 1632.25H337.453L370.778 1665.74ZM303.628 1665.74H370.07L336.849 1632.35L303.628 1665.74ZM-68.9131 1598.11V1665.38L-35.5879 1631.9V1564.62L-68.9131 1598.11ZM303.27 1665.38L336.237 1632.25H303.27V1665.38ZM303.26 1631.75H336.734L370.313 1598V1598L336.734 1564.25H303.26V1631.75ZM337.453 1631.75H471.561L438.235 1598.26H370.778L337.453 1631.75ZM472.781 1631.75H505.749V1598.62L472.781 1631.75ZM134.454 1631.74H201.254V1564.61L134.454 1631.74ZM201.762 1598.1H201.759V1631.74H268.919V1598.1L235.341 1564.36L201.762 1598.1ZM269.43 1631.74H302.396L269.43 1598.61V1631.74ZM100.261 1631.74H133.228L100.261 1598.61V1631.74ZM472.175 1631.64L505.396 1598.26H438.954L472.175 1631.64ZM32.5977 1597.89L65.9229 1631.38V1564.1L32.5977 1530.61V1597.89ZM269.43 1597.89L302.755 1631.38V1496.1L302.65 1496L269.43 1462.61V1597.89ZM100.364 1598L133.586 1631.38V1564.61L100.364 1598ZM134.094 1564.1V1631.38L167.419 1597.89V1530.61L134.094 1564.1ZM370.775 1597.75H437.726L404.4 1564.26H337.45L370.775 1597.75ZM438.446 1597.75H505.396L472.071 1564.26H405.121L438.446 1597.75ZM-102.746 1563.89L-69.165 1597.64L-35.5859 1563.89V1530.25H-102.746V1563.89ZM505.749 1597.38V1530.25H438.948L505.749 1597.38ZM-1.13672 1564L32.085 1597.38V1530.61L-1.13672 1564ZM99.7559 1597.38V1530.25H32.9551L99.7559 1597.38ZM100.261 1597.38L133.586 1563.89V1496.1L100.261 1462.61V1597.38ZM167.929 1462.1V1597.38L201.254 1563.89V1462.1L201.149 1462L201.254 1461.89V1428.61L167.929 1462.1ZM201.762 1597.38L235.087 1563.89V1496.1L201.762 1462.61V1597.38ZM235.594 1563.89L268.919 1597.38V1530.1L235.594 1496.61V1563.89ZM336.945 1563.75H471.561L438.235 1530.26H336.945L336.841 1530.36L336.737 1530.26H303.62L336.945 1563.75ZM303.27 1563.74H336.237L303.27 1530.61V1563.74ZM-35.0811 1563.38L-2.11328 1530.25H-35.0811V1563.38ZM-1.24316 1563.38L31.7246 1530.25H-1.24316V1563.38ZM134.094 1496.1V1563.38L167.419 1529.89V1462.61L134.094 1496.1ZM-68.5527 1529.75H-1.75293V1462.62L-68.5527 1529.75ZM303.263 1529.74H336.229L303.263 1496.61V1529.74ZM337.458 1529.74H404.258V1462.61L337.458 1529.74ZM-0.875 1529.74H32.0928V1496.61L-0.875 1529.74ZM32.5977 1496.1V1529.74H99.7578V1496.1L66.1787 1462.36H66.1768L32.5977 1496.1ZM-1.24512 1394.11V1461.9L-1.1416 1462L-1.24512 1462.11V1529.39L32.0801 1495.9V1360.62L-1.24512 1394.11ZM235.597 1495.89L268.922 1529.38V1462.1L235.597 1428.61V1495.89ZM303.366 1496L336.588 1529.38V1462.61L303.366 1496ZM337.093 1462.1V1529.38L370.418 1495.89V1428.61L337.093 1462.1ZM404.756 1529.38L437.723 1496.25H404.756V1529.38ZM-102.389 1495.75H-35.4385L-2.11328 1462.26H-69.0635L-102.389 1495.75ZM404.756 1495.74H438.23V1495.74L471.81 1462L438.335 1428.36L438.23 1428.25H404.756V1495.74ZM100.261 1461.89L133.84 1495.64L167.419 1461.89V1428.25H100.261V1461.89ZM66.4229 1394.11V1461.89L99.748 1495.38V1360.62L66.4229 1394.11ZM370.925 1360.1V1495.38L404.25 1461.89V1394.1L404.146 1394L404.25 1393.89V1326.61L370.925 1360.1ZM32.5996 1428.1V1495.38L65.9258 1461.89V1394.61L32.5996 1428.1ZM201.865 1462L235.087 1495.38V1428.61L201.865 1462ZM302.752 1495.38V1428.25H269.277L269.173 1428.36L269.069 1428.25H235.952L302.752 1495.38ZM303.263 1393.89L303.366 1394L303.263 1394.1V1495.38L336.588 1461.89V1394.1L303.263 1360.61V1393.89ZM-68.5527 1461.74H-2.11035L-35.332 1428.36L-68.5527 1461.74ZM-1.75293 1461.38V1428.25H-34.7207L-1.75293 1461.38ZM167.929 1461.38L200.896 1428.25H167.929V1461.38ZM201.762 1461.38L234.729 1428.25H201.762V1461.38ZM337.098 1394.1V1461.38L370.423 1427.89V1360.61L337.098 1394.1ZM-35.2275 1360.26L-68.8066 1394L-35.332 1427.64L-35.2275 1427.75H-1.75293V1360.25H-35.2275V1360.26ZM134.456 1427.74H235.239L235.343 1427.64L235.447 1427.74H268.562L235.236 1394.25H167.781L134.456 1427.74ZM269.787 1427.74H302.755V1394.61L269.787 1427.74ZM404.756 1427.74H437.723L404.756 1394.61V1427.74ZM100.261 1427.74H133.735L167.314 1394L133.735 1360.25H100.261V1427.74ZM269.173 1427.64L302.395 1394.25H235.952L269.173 1427.64ZM438.335 1427.64L471.556 1394.25H405.113L438.335 1427.64ZM32.5996 1360.1V1427.38L65.9258 1393.89V1326.61L32.5996 1360.1ZM405.113 1393.74H472.063L505.389 1360.25H438.438L405.113 1393.74ZM167.779 1393.74H234.729L201.403 1360.25H134.454L167.779 1393.74ZM235.447 1393.74H302.396L269.071 1360.25H202.122L235.447 1393.74ZM303.265 1359.89L336.844 1393.64H336.847L370.426 1359.89V1326.25H303.265V1359.89ZM66.4307 1393.38L99.6514 1360L66.4307 1326.61V1393.38ZM404.753 1393.38L471.553 1326.25H404.753V1393.38ZM-1.23242 1393.38L65.5674 1326.25H-1.23242V1393.38ZM302.755 1393.38V1326.25H235.954L302.755 1393.38ZM-34.7207 1359.74H-1.75293V1326.61L-34.7207 1359.74ZM133.938 1359.74H268.557L235.231 1326.25H133.941L133.837 1326.36H133.834L133.73 1326.25H100.613L133.938 1359.74ZM100.261 1359.74H133.228L100.261 1326.61V1359.74ZM99.7559 1359.38V1326.25H66.7881L99.7559 1359.38ZM370.933 1359.38L403.9 1326.25H370.933V1359.38ZM201.756 1325.75H234.724L201.756 1292.62V1325.75ZM235.949 1325.75H370.058L336.732 1292.26H269.274L235.949 1325.75ZM337.196 1292L370.775 1325.75H404.25V1258.26H370.775L337.196 1292ZM404.756 1292.11V1325.75H471.916V1292.11L438.337 1258.36H438.335L404.756 1292.11ZM472.424 1325.75H505.391L472.424 1292.62V1325.75ZM-102.746 1325.74H-69.2715L-35.6924 1292L-69.2715 1258.25H-102.746V1325.74ZM-68.5527 1325.74H65.5547L32.2295 1292.25H-35.2275L-68.5527 1325.74ZM66.791 1325.74H99.7578V1292.61L66.791 1325.74ZM100.256 1325.74H133.223L100.256 1292.61V1325.74ZM134.448 1325.74H201.249V1292.1L201.145 1292L201.249 1291.89V1258.61L134.448 1325.74ZM66.1787 1325.64L99.4004 1292.25H32.958L66.1787 1325.64ZM235.346 1325.64L268.566 1292.25H202.124L235.346 1325.64ZM472.421 1224H472.426V1291.9L505.751 1325.39V1224H505.746V1190.11L472.421 1156.62V1224ZM100.362 1292L133.583 1325.38V1258.61L100.362 1292ZM134.091 1258.11V1325.38L167.416 1291.89V1224.61L134.091 1258.11ZM32.4404 1291.75H99.3906L66.0645 1258.26H-0.884766L32.4404 1291.75ZM202.116 1291.75H269.066L302.392 1258.26H235.441L202.116 1291.75ZM-35.2275 1291.74H31.7217L-1.60352 1258.25H-68.5527L-35.2275 1291.74ZM269.782 1291.74H336.732L370.058 1258.25H303.107L269.782 1291.74ZM99.748 1291.38V1224.25H32.9473L99.748 1291.38ZM201.756 1291.38L268.557 1224.25H201.756V1291.38ZM404.756 1189.9L404.859 1190L404.756 1190.11V1224H404.761V1291.38L438.086 1257.89V1224H438.081V1190.11L404.756 1156.62V1189.9ZM438.588 1224H438.594V1257.89L471.919 1291.38V1224.1L471.814 1224H471.81L438.588 1190.62V1224ZM235.952 1257.75H370.57L370.567 1257.74L403.893 1224.25H269.274L235.952 1257.75ZM-102.746 1257.74H-69.7783L-102.746 1224.61V1257.74ZM-69.0605 1257.74H65.5547L32.2295 1224.25H-102.389L-69.0605 1257.74ZM371.283 1257.74H404.25V1224.61L371.283 1257.74ZM-102.389 1223.75H32.2295L65.5547 1190.26H-69.0635L-102.389 1223.75ZM32.9473 1223.75H99.748V1156.62L32.9473 1223.75ZM235.949 1223.75H370.058L336.732 1190.26H269.274L235.949 1223.75ZM371.283 1223.75H404.25V1190.62L371.283 1223.75ZM201.756 1223.74H235.231L268.811 1190L235.231 1156.25H201.756V1223.74ZM370.672 1223.64L403.893 1190.25H337.45L370.672 1223.64ZM-102.746 1223.39L-69.7783 1190.26H-102.746V1223.39ZM438.591 1189.89L471.916 1223.38V1156.1L438.591 1122.61V1189.89ZM-0.887695 1189.75H66.0625L99.3877 1156.26H32.4375L-0.887695 1189.75ZM269.274 1189.75H336.225L302.899 1156.26H235.949L269.274 1189.75ZM-102.746 1189.74H-69.2686L-35.6895 1156L-35.6924 1156L-69.2715 1122.25H-102.746V1189.74ZM-68.5527 1189.74H-1.60059L31.7246 1156.25H-35.2275L-68.5527 1189.74ZM336.942 1189.74H403.893L370.567 1156.25H303.617L336.942 1189.74ZM100.258 1155.89L100.362 1156L133.837 1189.64L167.416 1155.89V1122.25H133.941L133.837 1122.36L133.733 1122.25H100.258V1155.89ZM404.253 1189.39V1156.11L404.149 1156L404.253 1155.9V1122.26H337.453L404.253 1189.39ZM404.862 1156L438.083 1189.38V1122.61L404.862 1156ZM505.749 1189.38V1122.25H438.948L505.749 1189.38ZM-35.2256 1155.75H32.2324L65.5576 1122.26H-68.5508L-35.2256 1155.75ZM201.759 1155.74H234.727L201.759 1122.61V1155.74ZM235.444 1155.74H370.06L336.734 1122.25H202.119L235.444 1155.74ZM32.958 1155.74H99.4004L66.1787 1122.35L32.958 1155.74ZM99.748 1155.38V1122.25H66.7803L99.748 1155.38ZM167.924 1155.38L200.891 1122.25H167.924V1155.38ZM404.758 1155.38L437.726 1122.25H404.758V1155.38ZM235.698 1088L269.277 1121.75V1121.75H302.752V1054.26H269.277L235.698 1088ZM-102.746 1121.75H-69.7783L-102.746 1088.62V1121.75ZM-68.5508 1121.75H-1.75V1054.62L-68.5508 1121.75ZM-1.24512 1088.11V1121.75H65.9131V1088.11L32.334 1054.36L-1.24512 1088.11ZM66.4229 1121.75H99.3906L66.4229 1088.62V1121.75ZM100.258 1121.75H133.226L100.258 1088.62V1121.75ZM134.448 1121.75H268.557L235.231 1088.26H167.773L134.448 1121.75ZM370.778 1121.74H438.235L438.34 1121.64L438.443 1121.74H505.396L472.071 1088.25H337.453L370.778 1121.74ZM303.27 1121.74H370.07L303.27 1054.61V1121.74ZM133.847 1121.63L167.068 1088.25H100.626L133.847 1121.63ZM505.749 1121.39V1088.26H472.781L505.749 1121.39ZM-68.9111 1054.1V1121.38L-35.5859 1087.89V1020.61L-68.9111 1054.1ZM-102.643 1088L-69.4209 1121.38V1054.62L-102.643 1088ZM66.4326 1087.89L99.7578 1121.38V1088.1L99.6543 1087.99L99.7578 1087.89V986.101L99.6543 985.996L66.4326 952.611V1087.89ZM438.694 1054L472.273 1087.75V1087.75H505.749V1020.26H472.273L438.694 1054ZM168.284 1087.75H235.233L268.559 1054.26H201.609L168.284 1087.75ZM404.61 1087.74H471.561L438.235 1054.25H371.285L404.61 1087.74ZM100.626 1087.74H167.576L200.901 1054.25H133.951L100.626 1087.74ZM336.953 1087.74H403.903L370.577 1054.25H303.628L336.953 1087.74ZM-102.746 1087.38L-69.4209 1053.89V986.105L-102.746 952.616V1087.38ZM-35.0781 952.102V1087.38L-1.75293 1053.89V952.104L-1.85742 951.999L-1.75293 951.895V918.612L-35.0781 952.102ZM-1.24316 1087.38L32.082 1053.89V986.101L-1.24316 952.611V1087.38ZM32.5977 1053.89L65.9229 1087.38V1020.1L32.5977 986.613V1053.89ZM100.261 1087.38L167.061 1020.25H133.946L133.842 1020.36L133.738 1020.25H100.261V1087.38ZM134.448 1053.74H269.066L302.392 1020.25H167.773L134.448 1053.74ZM269.782 1053.74H302.75V1020.61L269.782 1053.74ZM370.778 1053.74H438.235L471.561 1020.25H337.453L370.778 1053.74ZM303.628 1053.74H370.07L336.849 1020.35L303.628 1053.74ZM-68.9131 986.105V1053.38L-35.5879 1019.9V952.616L-68.9131 986.105ZM303.27 1053.38L336.237 1020.25H303.27V1053.38ZM303.26 1019.75H336.734L370.313 986.001V985.998L336.734 952.254H303.26V1019.75ZM337.453 1019.75H471.561L438.235 986.256H370.778L337.453 1019.75ZM472.781 1019.75H505.749V986.615L472.781 1019.75ZM134.454 1019.74H201.254V952.613L134.454 1019.74ZM201.762 986.103H201.759V1019.74H268.919V986.103L235.341 952.358L201.762 986.103ZM269.43 1019.74H302.396L269.43 986.613V1019.74ZM100.261 1019.74H133.228L100.261 986.61V1019.74ZM472.175 1019.64L505.396 986.256H438.954L472.175 1019.64ZM32.5977 985.894L65.9229 1019.38V952.104L32.5977 918.614V985.894ZM269.43 985.894L302.755 1019.38V884.103L302.65 883.998L269.43 850.613V985.894ZM100.364 985.996L133.586 1019.38V952.611L100.364 985.996ZM134.094 952.102V1019.38L167.419 985.892V918.612L134.094 952.102ZM370.775 985.746H437.726L404.4 952.257H337.45L370.775 985.746ZM438.446 985.746H505.396L472.071 952.257H405.121L438.446 985.746ZM-102.746 951.895L-69.165 985.639L-35.5859 951.895V918.255H-102.746V951.895ZM505.749 985.384V918.255H438.948L505.749 985.384ZM-1.13672 951.996L32.085 985.381V918.612L-1.13672 951.996ZM99.7559 985.381V918.253H32.9551L99.7559 985.381ZM100.261 985.381L133.586 951.892V884.103L100.261 850.613V985.381ZM167.929 850.104V985.379L201.254 951.89V850.102L201.149 849.997L201.254 849.892V816.614L167.929 850.104ZM201.762 985.379L235.087 951.89V884.101L201.762 850.611V985.379ZM235.594 951.89L268.919 985.379V918.1L235.594 884.61V951.89ZM336.945 951.747H471.561L438.235 918.258H336.945L336.841 918.362L336.737 918.258H303.62L336.945 951.747ZM303.27 951.736H336.237L303.27 918.606V951.736ZM-35.0811 951.385L-2.11328 918.255H-35.0811V951.385ZM-1.24316 951.382L31.7246 918.253H-1.24316V951.382ZM134.094 884.103V951.382L167.419 917.893V850.613L134.094 884.103ZM-68.5527 917.745H-1.75293V850.616L-68.5527 917.745ZM303.263 917.742H336.229L303.263 884.613V917.742ZM337.458 917.742H404.258V850.613L337.458 917.742ZM-0.875 917.74H32.0928V884.61L-0.875 917.74ZM32.5977 884.101V917.74H99.7578V884.101L66.1787 850.356H66.1768L32.5977 884.101ZM-1.24512 782.105V849.897L-1.1416 850.002L-1.24512 850.106V917.386L32.0801 883.896V748.616L-1.24512 782.105ZM235.597 883.894L268.922 917.383V850.104L235.597 816.614V883.894ZM303.366 883.998L336.588 917.383V850.613L303.366 883.998ZM337.093 850.104V917.383L370.418 883.894V816.614L337.093 850.104ZM404.756 917.383L437.723 884.253H404.756V917.383ZM-102.389 883.746H-35.4385L-2.11328 850.257H-69.0635L-102.389 883.746ZM404.756 883.743H438.23V883.741L471.81 849.997L438.335 816.357L438.23 816.253H404.756V883.743ZM100.261 849.892L133.84 883.636L167.419 849.892V816.253H100.261V849.892ZM66.4229 782.105V849.895L99.748 883.384V748.616L66.4229 782.105ZM370.925 748.104V883.384L404.25 849.895V782.103L404.146 781.998L404.25 781.894V714.614L370.925 748.104ZM32.5996 816.102V883.381L65.9258 849.892V782.613L32.5996 816.102ZM201.865 849.997L235.087 883.381V816.612L201.865 849.997ZM302.752 883.381V816.253H269.277L269.173 816.357L269.069 816.253H235.952L302.752 883.381ZM303.263 781.894L303.366 781.998L303.263 782.103V883.381L336.588 849.892V782.103L303.263 748.613V781.894ZM-68.5527 849.744H-2.11035L-35.332 816.359L-68.5527 849.744ZM-1.75293 849.385V816.255H-34.7207L-1.75293 849.385ZM167.929 849.382L200.896 816.253H167.929V849.382ZM201.762 849.382L234.729 816.253H201.762V849.382ZM337.098 782.101V849.38L370.423 815.891V748.611L337.098 782.101ZM-35.2275 748.257L-68.8066 782.001L-35.332 815.641L-35.2275 815.745H-1.75293V748.254H-35.2275V748.257ZM134.456 815.742H235.239L235.343 815.638L235.447 815.742H268.562L235.236 782.253H167.781L134.456 815.742ZM269.787 815.742H302.755V782.613L269.787 815.742ZM404.756 815.742H437.723L404.756 782.613V815.742ZM100.261 815.74H133.735L167.314 781.996L133.735 748.252H100.261V815.74ZM269.173 815.638L302.395 782.253H235.952L269.173 815.638ZM438.335 815.638L471.556 782.253H405.113L438.335 815.638ZM32.5996 748.102V815.38L65.9258 781.892V714.612L32.5996 748.102ZM405.113 781.743H472.063L505.389 748.254H438.438L405.113 781.743ZM167.779 781.741H234.729L201.403 748.252H134.454L167.779 781.741ZM235.447 781.741H302.396L269.071 748.252H202.122L235.447 781.741ZM303.265 747.892L336.844 781.636H336.847L370.426 747.892V714.253H303.265V747.892ZM66.4307 781.384L99.6514 747.999L66.4307 714.614V781.384ZM404.753 781.384L471.553 714.255H404.753V781.384ZM-1.23242 781.381L65.5674 714.253H-1.23242V781.381ZM302.755 781.379V714.25H235.954L302.755 781.379ZM-34.7207 747.744H-1.75293V714.614L-34.7207 747.744ZM133.938 747.744H268.557L235.231 714.255H133.941L133.837 714.359H133.834L133.73 714.255H100.613L133.938 747.744ZM100.261 747.741H133.228L100.261 714.612V747.741ZM99.7559 747.382V714.253H66.7881L99.7559 747.382ZM370.933 747.382L403.9 714.253H370.933V747.382ZM201.756 713.745H234.724L201.756 680.615V713.745ZM235.949 713.745H370.058L336.732 680.256H269.274L235.949 713.745ZM337.196 680.001L370.775 713.745H404.25V646.257H370.775L337.196 680.001ZM404.756 680.105V713.745H471.916V680.105L438.337 646.361H438.335L404.756 680.105ZM472.424 713.745H505.391L472.424 680.615V713.745ZM-102.746 713.742H-69.2715L-35.6924 679.998L-69.2715 646.254H-102.746V713.742ZM-68.5527 713.742H65.5547L32.2295 680.253H-35.2275L-68.5527 713.742ZM66.791 713.742H99.7578V680.613L66.791 713.742ZM100.256 713.742H133.223L100.256 680.613V713.742ZM134.448 713.742H201.249V680.103L201.145 679.998L201.249 679.894V646.613L134.448 713.742ZM66.1787 713.638L99.4004 680.253H32.958L66.1787 713.638ZM235.346 713.638L268.566 680.253H202.124L235.346 713.638ZM100.362 679.998L133.583 713.383V646.613L100.362 679.998ZM134.091 646.106V713.383L167.416 679.894V612.614L134.091 646.106ZM32.4404 679.746H99.3906L66.0645 646.257H-0.884766L32.4404 679.746ZM202.116 679.746H269.066L302.392 646.257H235.441L202.116 679.746ZM-35.2275 679.743H31.7217L-1.60352 646.254H-68.5527L-35.2275 679.743ZM269.782 679.743H336.732L370.058 646.254H303.107L269.782 679.743ZM99.748 679.384V612.255H32.9473L99.748 679.384ZM201.756 679.384L268.557 612.255H201.756V679.384ZM235.952 645.747H370.57L370.567 645.744L403.893 612.255H269.274L235.952 645.747ZM-102.746 645.744H-69.7783L-102.746 612.614V645.744ZM-69.0605 645.744H65.5547L32.2295 612.255H-102.389L-69.0605 645.744ZM371.283 645.744H404.25V612.614L371.283 645.744ZM-69.0635 578.256L-102.389 611.745H32.2295L65.5547 578.256H-69.0635ZM32.9473 611.745H99.748V544.616L32.9473 611.745ZM371.283 611.745H404.25V578.615L371.283 611.745ZM269.274 578.256L235.949 611.745H370.058L336.732 578.256H269.274ZM201.756 611.742H235.231L268.811 577.998L235.231 544.254H201.756V611.742ZM337.45 578.253L370.672 611.638L403.893 578.253H337.45ZM-102.746 578.256V611.386L-69.7783 578.256H-102.746ZM438.591 577.894L471.916 611.383V544.104L438.591 510.614V577.894ZM32.4375 544.257L-0.887695 577.746H66.0625L99.3877 544.257H32.4375ZM235.949 544.257L269.274 577.746H336.225L302.899 544.257H235.949ZM-102.746 510.252V577.743H-69.2686L-35.6895 543.999L-35.6924 543.997L-69.2715 510.252H-102.746ZM-35.2275 544.254L-68.5527 577.743H-1.60059L31.7246 544.254H-35.2275ZM303.617 544.254L336.942 577.743H403.893L370.567 544.254H303.617ZM100.258 510.255V543.895L100.362 543.999L133.837 577.639L167.416 543.895V510.255H133.941L133.837 510.359L133.733 510.255H100.258ZM337.453 510.258L404.253 577.387V544.106L404.149 544.002L404.253 543.897V510.258H337.453ZM404.862 543.999L438.083 577.384V510.614L404.862 543.999ZM438.948 510.255L505.749 577.384V510.255H438.948ZM-68.5508 510.258L-35.2256 543.747H32.2324L65.5576 510.258H-68.5508ZM201.759 543.744H234.727L201.759 510.614V543.744ZM202.119 510.255L235.444 543.744H370.06L336.734 510.255H202.119ZM32.958 543.739H99.4004L66.1787 510.354L32.958 543.739ZM66.7803 510.255L99.748 543.385V510.255H66.7803ZM167.924 510.255V543.385L200.891 510.255H167.924ZM404.758 510.255V543.385L437.726 510.255H404.758ZM269.277 442.257L235.698 476.001L269.277 509.745V509.747H302.752V442.257H269.277ZM-102.746 509.745H-69.7783L-102.746 476.615V509.745ZM-68.5508 509.745H-1.75V442.616L-68.5508 509.745ZM-1.24512 476.105V509.745H65.9131V476.105L32.334 442.361L-1.24512 476.105ZM66.4229 509.745H99.3906L66.4229 476.615V509.745ZM100.258 509.745H133.226L100.258 476.615V509.745ZM167.773 476.256L134.448 509.745H268.557L235.231 476.256H167.773ZM337.453 476.253L370.778 509.742H438.235L438.34 509.638L438.443 509.742H505.396L472.071 476.253H337.453ZM303.27 509.737H370.07L303.27 442.608V509.737ZM100.626 476.248L133.847 509.633L167.068 476.248H100.626ZM472.781 476.256L505.749 509.386V476.256H472.781ZM-68.9111 442.104V509.383L-35.5859 475.894V408.614L-68.9111 442.104ZM-102.643 476.001L-69.4209 509.379V442.616L-102.643 476.001ZM66.4326 475.889L99.7578 509.378V476.098L99.6543 475.993L99.7578 475.889V374.101L99.6543 373.996L66.4326 340.611V475.889ZM472.273 408.258L438.694 442.002L472.273 475.746V475.748H505.749V408.258H472.273ZM201.609 442.257L168.284 475.746H235.233L268.559 442.257H201.609ZM371.285 442.254L404.61 475.743H471.561L438.235 442.254H371.285ZM133.951 442.249L100.626 475.738H167.576L200.901 442.249H133.951ZM303.628 442.246L336.953 475.735H403.903L370.577 442.246H303.628ZM-102.746 475.384L-69.4209 441.895V374.105L-102.746 340.616V475.384ZM-35.0781 340.102V475.381L-1.75293 441.892V340.104L-1.85742 339.999L-1.75293 339.895V306.612L-35.0781 340.102ZM-1.24316 475.381L32.082 441.892V374.101L-1.24316 340.611V475.381ZM32.5977 441.892L65.9229 475.381V408.102L32.5977 374.613V441.892ZM100.261 408.252V475.381L167.061 408.252H133.946L133.842 408.357L133.738 408.252H100.261ZM167.773 408.255L134.448 441.744H269.066L302.392 408.255H167.773ZM269.782 441.744H302.75V408.614L269.782 441.744ZM337.453 408.255L370.778 441.744H438.235L471.561 408.255H337.453ZM303.628 441.736H370.07L336.849 408.352L303.628 441.736ZM-68.9131 374.105V441.385L-35.5879 407.896V340.616L-68.9131 374.105ZM303.27 408.247V441.377L336.237 408.247H303.27ZM303.26 340.254V407.745H336.734L370.313 374.001V373.998L336.734 340.254H303.26ZM472.781 407.745H505.749V374.615L472.781 407.745ZM370.778 374.256L337.453 407.745H471.561L438.235 374.256H370.778ZM134.454 407.742H201.254V340.613L134.454 407.742ZM201.762 374.103H201.759V407.742H268.919V374.103L235.341 340.358L201.762 374.103ZM269.43 407.742H302.396L269.43 374.613V407.742ZM100.261 407.74H133.228L100.261 374.61V407.74ZM438.954 374.256L472.175 407.641L505.396 374.256H438.954ZM32.5977 373.894L65.9229 407.383V340.104L32.5977 306.614V373.894ZM269.43 373.894L302.755 407.383V272.103L302.65 271.998L269.43 238.613V373.894ZM100.364 373.996L133.586 407.38V340.611L100.364 373.996ZM134.094 340.102V407.38L167.419 373.892V306.612L134.094 340.102ZM337.45 340.257L370.775 373.746H437.726L404.4 340.257H337.45ZM405.121 340.257L438.446 373.746H505.396L472.071 340.257H405.121ZM-102.746 306.255V339.895L-69.165 373.639L-35.5859 339.895V306.255H-102.746ZM438.948 306.255L505.749 373.384V306.255H438.948ZM-1.13672 339.996L32.085 373.381V306.612L-1.13672 339.996ZM32.9551 306.253L99.7559 373.381V306.253H32.9551ZM100.261 373.381L133.586 339.892V272.103L100.261 238.613V373.381ZM167.929 238.104V373.379L201.254 339.89V238.102L201.149 237.997L201.254 237.892V204.614L167.929 238.104ZM201.762 373.379L235.087 339.89V272.101L201.762 238.611V373.379ZM235.594 339.89L268.919 373.379V306.1L235.594 272.61V339.89ZM303.62 306.258L336.945 339.747H471.561L438.235 306.258H336.945L336.841 306.362L336.737 306.258H303.62ZM303.27 339.736H336.237L303.27 306.606V339.736ZM-35.0811 306.255V339.385L-2.11328 306.255H-35.0811ZM-1.24316 306.253V339.382L31.7246 306.253H-1.24316ZM134.094 272.103V339.382L167.419 305.893V238.613L134.094 272.103ZM-68.5527 305.745H-1.75293V238.616L-68.5527 305.745ZM303.263 305.742H336.229L303.263 272.613V305.742ZM337.458 305.742H404.258V238.613L337.458 305.742ZM-0.875 305.74H32.0928V272.61L-0.875 305.74ZM66.1768 238.356L32.5977 272.101V305.74H99.7578V272.101L66.1787 238.356H66.1768ZM-1.24512 170.105V237.897L-1.1416 238.002L-1.24512 238.106V305.386L32.0801 271.896V136.616L-1.24512 170.105ZM235.597 271.894L268.922 305.383V238.104L235.597 204.614V271.894ZM303.366 271.998L336.588 305.383V238.613L303.366 271.998ZM337.093 238.104V305.383L370.418 271.894V204.614L337.093 238.104ZM404.756 272.253V305.383L437.723 272.253H404.756ZM-69.0635 238.257L-102.389 271.746H-35.4385L-2.11328 238.257H-69.0635ZM404.756 204.253V271.743H438.23V271.741L471.81 237.997L438.335 204.357L438.23 204.253H404.756ZM100.261 204.253V237.892L133.84 271.636L167.419 237.892V204.253H100.261ZM66.4229 170.105V237.895L99.748 271.384V136.616L66.4229 170.105ZM370.925 136.104V271.384L404.25 237.895V170.103L404.146 169.998L404.25 169.894V102.614L370.925 136.104ZM32.5996 204.102V271.381L65.9258 237.892V170.613L32.5996 204.102ZM201.865 237.997L235.087 271.381V204.612L201.865 237.997ZM235.952 204.253L302.752 271.381V204.253H269.277L269.173 204.357L269.069 204.253H235.952ZM303.263 169.894L303.366 169.998L303.263 170.103V271.381L336.588 237.892V170.103L303.263 136.613V169.894ZM-68.5527 237.744H-2.11035L-35.332 204.359L-68.5527 237.744ZM-34.7207 204.255L-1.75293 237.385V204.255H-34.7207ZM167.929 204.253V237.382L200.896 204.253H167.929ZM201.762 204.253V237.382L234.729 204.253H201.762ZM337.098 170.101V237.38L370.423 203.891V136.611L337.098 170.101ZM-35.2275 136.254V136.257L-68.8066 170.001L-35.332 203.641L-35.2275 203.745H-1.75293V136.254H-35.2275ZM167.781 170.253L134.456 203.742H235.239L235.343 203.638L235.447 203.742H268.562L235.236 170.253H167.781ZM269.787 203.742H302.755V170.613L269.787 203.742ZM404.756 203.742H437.723L404.756 170.613V203.742ZM100.261 203.74H133.735L167.314 169.996L133.735 136.252H100.261V203.74ZM235.952 170.253L269.173 203.638L302.395 170.253H235.952ZM405.113 170.253L438.335 203.638L471.556 170.253H405.113ZM32.5996 136.102V203.38L65.9258 169.892V102.612L32.5996 136.102ZM438.438 136.254L405.113 169.743H472.063L505.389 136.254H438.438ZM134.454 136.252L167.779 169.741H234.729L201.403 136.252H134.454ZM202.122 136.252L235.447 169.741H302.396L269.071 136.252H202.122ZM303.265 102.253V135.892L336.844 169.636H336.847L370.426 135.892V102.253H303.265ZM66.4307 169.384L99.6514 135.999L66.4307 102.614V169.384ZM404.753 102.255V169.384L471.553 102.255H404.753ZM-1.23242 102.253V169.381L65.5674 102.253H-1.23242ZM235.954 102.25L302.755 169.379V102.25H235.954ZM-34.7207 135.744H-1.75293V102.614L-34.7207 135.744ZM100.613 102.255L133.938 135.744H268.557L235.231 102.255H133.941L133.837 102.359H133.834L133.73 102.255H100.613ZM100.261 135.741H133.228L100.261 102.612V135.741ZM66.7881 102.253L99.7559 135.382V102.253H66.7881ZM370.933 102.253V135.382L403.9 102.253H370.933ZM201.756 101.745H234.724L201.756 68.6152V101.745ZM269.274 68.2559L235.949 101.745H370.058L336.732 68.2559H269.274ZM370.775 34.2568L337.196 68.001L370.775 101.745H404.25V34.2568H370.775ZM438.335 34.3613L404.756 68.1055V101.745H471.916V68.1055L438.337 34.3613H438.335ZM472.424 101.745H505.391L472.424 68.6152V101.745ZM-102.746 34.2539V101.742H-69.2715L-35.6924 67.998L-69.2715 34.2539H-102.746ZM-35.2275 68.2529L-68.5527 101.742H65.5547L32.2295 68.2529H-35.2275ZM66.791 101.742H99.7578V68.6133L66.791 101.742ZM100.256 101.742H133.223L100.256 68.6133V101.742ZM134.448 101.742H201.249V68.1025L201.145 67.998L201.249 67.8936V34.6133L134.448 101.742ZM32.958 68.2529L66.1787 101.638L99.4004 68.2529H32.958ZM202.124 68.2529L235.346 101.638L268.566 68.2529H202.124ZM100.362 67.998L133.583 101.383V34.6133L100.362 67.998ZM134.091 34.1064V101.383L167.416 67.8936V0.614258L134.091 34.1064ZM-0.884766 34.2568L32.4404 67.7461H99.3906L66.0645 34.2568H-0.884766ZM235.441 34.2568L202.116 67.7461H269.066L302.392 34.2568H235.441ZM-68.5527 34.2539L-35.2275 67.7432H31.7217L-1.60352 34.2539H-68.5527ZM303.107 34.2539L269.782 67.7432H336.732L370.058 34.2539H303.107ZM32.9473 0.254883L99.748 67.3838V0.254883H32.9473ZM201.756 0.254883V67.3838L268.557 0.254883H201.756ZM269.274 0.254883L235.952 33.7471H370.57L370.567 33.7441L403.893 0.254883H269.274ZM-102.746 33.7441H-69.7783L-102.746 0.614258V33.7441ZM-102.389 0.254883L-69.0605 33.7441H65.5547L32.2295 0.254883H-102.389ZM371.283 33.7441H404.25V0.614258L371.283 33.7441ZM438.594 645.895L471.919 679.384V612.104L471.814 612H471.81L438.588 578.615V612H438.594V645.895ZM472.426 679.896L505.751 713.386V612H505.746V578.105L472.421 544.616V612H472.426V679.896ZM505.997 714.26H472.269L438.943 747.749H505.997V748.364L472.776 781.748H505.997V782.259H472.269L438.943 815.747H505.997V816.258H438.943L472.269 849.747H505.997V850.257H472.269L438.943 883.746H505.894L505.997 883.642V884.256H438.436L405.11 917.745H506V1224H505.997V1326.26H472.269L438.943 1359.75H505.997V1360.36L472.776 1393.75H505.997V1394.26H472.269L438.943 1427.75H505.997V1428.26H438.943L472.269 1461.75H505.997V1462.26H472.269L438.943 1495.75H505.894L505.997 1495.64V1496.26H438.436L405.11 1529.75H506V1836H505.746V1802.11L472.421 1768.62V1836H471.81L438.588 1802.62V1836H438.081V1802.11L404.756 1768.62V1801.9L404.859 1802L404.756 1802.11V1836H201.246V1734.61L167.921 1768.1V1836H167.31L167.413 1835.89V1768.61L134.088 1802.1V1836H133.581V1802.1L100.256 1768.61V1836H-103V1529.74H-69.2715L-35.9463 1496.25H-103V1495.64L-69.7783 1462.25H-103V1461.74H-69.2715L-35.9463 1428.25H-103V1427.74H-35.9463L-69.2715 1394.25H-103V1393.74H-69.2715L-35.9463 1360.25H-102.896L-103 1360.36V1359.74H-35.4355L-2.11035 1326.25H-103V1224H100.261V1291.38L133.586 1257.89V1224H134.094V1257.38L167.314 1224H167.926V1291.38L201.251 1257.89V1224H201.246V1122.61L167.921 1156.1V1224H167.31L167.413 1223.89V1156.61L134.088 1190.1V1224H133.581V1190.1L100.256 1156.61V1224H-103V917.742H-69.2715L-35.9463 884.253H-103V883.639L-69.7783 850.252H-103V849.741H-69.2715L-35.9463 816.253H-103V815.742H-35.9463L-69.2715 782.253H-103V781.743H-69.2715L-35.9463 748.254H-102.896L-103 748.358V747.744H-35.4355L-2.11035 714.255H-103V612H100.261V679.384L133.586 645.895V612H134.094V645.385L167.314 612H167.926V679.384L201.251 645.895V612H201.246V510.614L167.921 544.104V611.997H167.31L167.413 611.893V544.613L134.088 578.103V611.997H133.581V578.103L100.256 544.613V611.997H-103V305.742H-69.2715L-35.9463 272.253H-103V271.639L-69.7783 238.252H-103V237.741H-69.2715L-35.9463 204.253H-103V203.742H-35.9463L-69.2715 170.253H-103V169.743H-69.2715L-35.9463 136.254H-102.896L-103 136.358V135.744H-35.4355L-2.11035 102.255H-103V0H100.261V67.3838L133.586 33.8945V0H134.094V33.3848L167.314 0H167.926V67.3838L201.251 33.8945V0H404.761V67.3838L438.086 33.8945V0H438.594V33.8945L471.919 67.3838V0.104492L471.814 0H472.426V67.8965L505.751 101.386V0H505.997V102.26H472.269L438.943 135.749H505.997V136.364L472.776 169.748H505.997V170.259H472.269L438.943 203.747H505.997V204.258H438.943L472.269 237.747H505.997V238.257H472.269L438.943 271.746H505.894L505.997 271.642V272.256H438.436L405.11 305.745H506V612H505.997V714.26Z" fill="url(#paint0_linear_407_577)" fill-opacity="0.5"/>
<path d="M438.081 2448V2414.11L404.756 2380.62V2413.9L404.859 2414L404.756 2414.11V2448H404.761V2515.38L438.086 2481.89V2448H438.081ZM-102.389 3671.75H32.2295L65.5547 3638.26H-69.0635L-102.389 3671.75ZM32.9473 3671.75H99.748V3604.62L32.9473 3671.75ZM235.949 3671.75H370.058L336.732 3638.26H269.274L235.949 3671.75ZM371.283 3671.75H404.25V3638.62L371.283 3671.75ZM201.756 3671.74H235.231L268.811 3638L235.231 3604.25H201.756V3671.74ZM370.672 3671.64L403.893 3638.25H337.45L370.672 3671.64ZM-102.746 3671.39L-69.7783 3638.26H-102.746V3671.39ZM438.591 3637.89L471.916 3671.38V3604.1L438.591 3570.61V3637.89ZM-0.887695 3637.75H66.0625L99.3877 3604.26H32.4375L-0.887695 3637.75ZM269.274 3637.75H336.225L302.899 3604.26H235.949L269.274 3637.75ZM-102.746 3637.74H-69.2686L-35.6895 3604L-35.6924 3604L-69.2715 3570.25H-102.746V3637.74ZM-68.5527 3637.74H-1.60059L31.7246 3604.25H-35.2275L-68.5527 3637.74ZM336.942 3637.74H403.893L370.567 3604.25H303.617L336.942 3637.74ZM100.258 3603.89L100.362 3604L133.837 3637.64L167.416 3603.89V3570.25H133.941L133.837 3570.36L133.733 3570.25H100.258V3603.89ZM404.253 3637.39V3604.11L404.149 3604L404.253 3603.9V3570.26H337.453L404.253 3637.39ZM404.862 3604L438.083 3637.38V3570.61L404.862 3604ZM505.749 3637.38V3570.25H438.948L505.749 3637.38ZM-35.2256 3603.75H32.2324L65.5576 3570.26H-68.5508L-35.2256 3603.75ZM201.759 3603.74H234.727L201.759 3570.61V3603.74ZM235.444 3603.74H370.06L336.734 3570.25H202.119L235.444 3603.74ZM32.958 3603.74H99.4004L66.1787 3570.35L32.958 3603.74ZM99.748 3603.38V3570.25H66.7803L99.748 3603.38ZM167.924 3603.38L200.891 3570.25H167.924V3603.38ZM404.758 3603.38L437.726 3570.25H404.758V3603.38ZM235.698 3536L269.277 3569.75V3569.75H302.752V3502.26H269.277L235.698 3536ZM-102.746 3569.75H-69.7783L-102.746 3536.62V3569.75ZM-68.5508 3569.75H-1.75V3502.62L-68.5508 3569.75ZM-1.24512 3536.11V3569.75H65.9131V3536.11L32.334 3502.36L-1.24512 3536.11ZM66.4229 3569.75H99.3906L66.4229 3536.62V3569.75ZM100.258 3569.75H133.226L100.258 3536.62V3569.75ZM134.448 3569.75H268.557L235.231 3536.26H167.773L134.448 3569.75ZM370.778 3569.74H438.235L438.34 3569.64L438.443 3569.74H505.396L472.071 3536.25H337.453L370.778 3569.74ZM303.27 3569.74H370.07L303.27 3502.61V3569.74ZM133.847 3569.63L167.068 3536.25H100.626L133.847 3569.63ZM505.749 3569.39V3536.26H472.781L505.749 3569.39ZM-68.9111 3502.1V3569.38L-35.5859 3535.89V3468.61L-68.9111 3502.1ZM-102.643 3536L-69.4209 3569.38V3502.62L-102.643 3536ZM66.4326 3535.89L99.7578 3569.38V3536.1L99.6543 3535.99L99.7578 3535.89V3434.1L99.6543 3434L66.4326 3400.61V3535.89ZM438.694 3502L472.273 3535.75V3535.75H505.749V3468.26H472.273L438.694 3502ZM168.284 3535.75H235.233L268.559 3502.26H201.609L168.284 3535.75ZM404.61 3535.74H471.561L438.235 3502.25H371.285L404.61 3535.74ZM100.626 3535.74H167.576L200.901 3502.25H133.951L100.626 3535.74ZM336.953 3535.74H403.903L370.577 3502.25H303.628L336.953 3535.74ZM-102.746 3535.38L-69.4209 3501.89V3434.11L-102.746 3400.62V3535.38ZM-35.0781 3400.1V3535.38L-1.75293 3501.89V3400.1L-1.85742 3400L-1.75293 3399.89V3366.61L-35.0781 3400.1ZM-1.24316 3535.38L32.082 3501.89V3434.1L-1.24316 3400.61V3535.38ZM32.5977 3501.89L65.9229 3535.38V3468.1L32.5977 3434.61V3501.89ZM100.261 3535.38L167.061 3468.25H133.946L133.842 3468.36L133.738 3468.25H100.261V3535.38ZM134.448 3501.74H269.066L302.392 3468.25H167.773L134.448 3501.74ZM269.782 3501.74H302.75V3468.61L269.782 3501.74ZM370.778 3501.74H438.235L471.561 3468.25H337.453L370.778 3501.74ZM303.628 3501.74H370.07L336.849 3468.35L303.628 3501.74ZM-68.9131 3434.11V3501.38L-35.5879 3467.9V3400.62L-68.9131 3434.11ZM303.27 3501.38L336.237 3468.25H303.27V3501.38ZM303.26 3467.75H336.734L370.313 3434V3434L336.734 3400.25H303.26V3467.75ZM337.453 3467.75H471.561L438.235 3434.26H370.778L337.453 3467.75ZM472.781 3467.75H505.749V3434.62L472.781 3467.75ZM134.454 3467.74H201.254V3400.61L134.454 3467.74ZM201.762 3434.1H201.759V3467.74H268.919V3434.1L235.341 3400.36L201.762 3434.1ZM269.43 3467.74H302.396L269.43 3434.61V3467.74ZM100.261 3467.74H133.228L100.261 3434.61V3467.74ZM472.175 3467.64L505.396 3434.26H438.954L472.175 3467.64ZM32.5977 3433.89L65.9229 3467.38V3400.1L32.5977 3366.61V3433.89ZM269.43 3433.89L302.755 3467.38V3332.1L302.65 3332L269.43 3298.61V3433.89ZM100.364 3434L133.586 3467.38V3400.61L100.364 3434ZM134.094 3400.1V3467.38L167.419 3433.89V3366.61L134.094 3400.1ZM370.775 3433.75H437.726L404.4 3400.26H337.45L370.775 3433.75ZM438.446 3433.75H505.396L472.071 3400.26H405.121L438.446 3433.75ZM-102.746 3399.89L-69.165 3433.64L-35.5859 3399.89V3366.25H-102.746V3399.89ZM505.749 3433.38V3366.25H438.948L505.749 3433.38ZM-1.13672 3400L32.085 3433.38V3366.61L-1.13672 3400ZM99.7559 3433.38V3366.25H32.9551L99.7559 3433.38ZM100.261 3433.38L133.586 3399.89V3332.1L100.261 3298.61V3433.38ZM167.929 3298.1V3433.38L201.254 3399.89V3298.1L201.149 3298L201.254 3297.89V3264.61L167.929 3298.1ZM201.762 3433.38L235.087 3399.89V3332.1L201.762 3298.61V3433.38ZM235.594 3399.89L268.919 3433.38V3366.1L235.594 3332.61V3399.89ZM336.945 3399.75H471.561L438.235 3366.26H336.945L336.841 3366.36L336.737 3366.26H303.62L336.945 3399.75ZM303.27 3399.74H336.237L303.27 3366.61V3399.74ZM-35.0811 3399.38L-2.11328 3366.25H-35.0811V3399.38ZM-1.24316 3399.38L31.7246 3366.25H-1.24316V3399.38ZM134.094 3332.1V3399.38L167.419 3365.89V3298.61L134.094 3332.1ZM-68.5527 3365.75H-1.75293V3298.62L-68.5527 3365.75ZM303.263 3365.74H336.229L303.263 3332.61V3365.74ZM337.458 3365.74H404.258V3298.61L337.458 3365.74ZM-0.875 3365.74H32.0928V3332.61L-0.875 3365.74ZM32.5977 3332.1V3365.74H99.7578V3332.1L66.1787 3298.36H66.1768L32.5977 3332.1ZM-1.24512 3230.11V3297.9L-1.1416 3298L-1.24512 3298.11V3365.39L32.0801 3331.9V3196.62L-1.24512 3230.11ZM235.597 3331.89L268.922 3365.38V3298.1L235.597 3264.61V3331.89ZM303.366 3332L336.588 3365.38V3298.61L303.366 3332ZM337.093 3298.1V3365.38L370.418 3331.89V3264.61L337.093 3298.1ZM404.756 3365.38L437.723 3332.25H404.756V3365.38ZM-102.389 3331.75H-35.4385L-2.11328 3298.26H-69.0635L-102.389 3331.75ZM404.756 3331.74H438.23V3331.74L471.81 3298L438.335 3264.36L438.23 3264.25H404.756V3331.74ZM100.261 3297.89L133.84 3331.64L167.419 3297.89V3264.25H100.261V3297.89ZM66.4229 3230.11V3297.89L99.748 3331.38V3196.62L66.4229 3230.11ZM370.925 3196.1V3331.38L404.25 3297.89V3230.1L404.146 3230L404.25 3229.89V3162.61L370.925 3196.1ZM32.5996 3264.1V3331.38L65.9258 3297.89V3230.61L32.5996 3264.1ZM201.865 3298L235.087 3331.38V3264.61L201.865 3298ZM302.752 3331.38V3264.25H269.277L269.173 3264.36L269.069 3264.25H235.952L302.752 3331.38ZM303.263 3229.89L303.366 3230L303.263 3230.1V3331.38L336.588 3297.89V3230.1L303.263 3196.61V3229.89ZM-68.5527 3297.74H-2.11035L-35.332 3264.36L-68.5527 3297.74ZM-1.75293 3297.38V3264.25H-34.7207L-1.75293 3297.38ZM167.929 3297.38L200.896 3264.25H167.929V3297.38ZM201.762 3297.38L234.729 3264.25H201.762V3297.38ZM337.098 3230.1V3297.38L370.423 3263.89V3196.61L337.098 3230.1ZM-35.2275 3196.26L-68.8066 3230L-35.332 3263.64L-35.2275 3263.75H-1.75293V3196.25H-35.2275V3196.26ZM134.456 3263.74H235.239L235.343 3263.64L235.447 3263.74H268.562L235.236 3230.25H167.781L134.456 3263.74ZM269.787 3263.74H302.755V3230.61L269.787 3263.74ZM404.756 3263.74H437.723L404.756 3230.61V3263.74ZM100.261 3263.74H133.735L167.314 3230L133.735 3196.25H100.261V3263.74ZM269.173 3263.64L302.395 3230.25H235.952L269.173 3263.64ZM438.335 3263.64L471.556 3230.25H405.113L438.335 3263.64ZM32.5996 3196.1V3263.38L65.9258 3229.89V3162.61L32.5996 3196.1ZM405.113 3229.74H472.063L505.389 3196.25H438.438L405.113 3229.74ZM167.779 3229.74H234.729L201.403 3196.25H134.454L167.779 3229.74ZM235.447 3229.74H302.396L269.071 3196.25H202.122L235.447 3229.74ZM303.265 3195.89L336.844 3229.64H336.847L370.426 3195.89V3162.25H303.265V3195.89ZM66.4307 3229.38L99.6514 3196L66.4307 3162.61V3229.38ZM404.753 3229.38L471.553 3162.25H404.753V3229.38ZM-1.23242 3229.38L65.5674 3162.25H-1.23242V3229.38ZM302.755 3229.38V3162.25H235.954L302.755 3229.38ZM-34.7207 3195.74H-1.75293V3162.61L-34.7207 3195.74ZM133.938 3195.74H268.557L235.231 3162.25H133.941L133.837 3162.36H133.834L133.73 3162.25H100.613L133.938 3195.74ZM100.261 3195.74H133.228L100.261 3162.61V3195.74ZM99.7559 3195.38V3162.25H66.7881L99.7559 3195.38ZM370.933 3195.38L403.9 3162.25H370.933V3195.38ZM201.756 3161.75H234.724L201.756 3128.62V3161.75ZM235.949 3161.75H370.058L336.732 3128.26H269.274L235.949 3161.75ZM337.196 3128L370.775 3161.75H404.25V3094.26H370.775L337.196 3128ZM404.756 3128.11V3161.75H471.916V3128.11L438.337 3094.36H438.335L404.756 3128.11ZM472.424 3161.75H505.391L472.424 3128.62V3161.75ZM-102.746 3161.74H-69.2715L-35.6924 3128L-69.2715 3094.25H-102.746V3161.74ZM-68.5527 3161.74H65.5547L32.2295 3128.25H-35.2275L-68.5527 3161.74ZM66.791 3161.74H99.7578V3128.61L66.791 3161.74ZM100.256 3161.74H133.223L100.256 3128.61V3161.74ZM134.448 3161.74H201.249V3128.1L201.145 3128L201.249 3127.89V3094.61L134.448 3161.74ZM66.1787 3161.64L99.4004 3128.25H32.958L66.1787 3161.64ZM235.346 3161.64L268.566 3128.25H202.124L235.346 3161.64ZM472.421 3060H472.426V3127.9L505.751 3161.39V3060H505.746V3026.11L472.421 2992.62V3060ZM100.362 3128L133.583 3161.38V3094.61L100.362 3128ZM134.091 3094.11V3161.38L167.416 3127.89V3060.61L134.091 3094.11ZM32.4404 3127.75H99.3906L66.0645 3094.26H-0.884766L32.4404 3127.75ZM202.116 3127.75H269.066L302.392 3094.26H235.441L202.116 3127.75ZM-35.2275 3127.74H31.7217L-1.60352 3094.25H-68.5527L-35.2275 3127.74ZM269.782 3127.74H336.732L370.058 3094.25H303.107L269.782 3127.74ZM99.748 3127.38V3060.25H32.9473L99.748 3127.38ZM201.756 3127.38L268.557 3060.25H201.756V3127.38ZM404.756 3025.9L404.859 3026L404.756 3026.11V3060H404.761V3127.38L438.086 3093.89V3060H438.081V3026.11L404.756 2992.62V3025.9ZM438.588 3060H438.594V3093.89L471.919 3127.38V3060.1L471.814 3060H471.81L438.588 3026.62V3060ZM235.952 3093.75H370.57L370.567 3093.74L403.893 3060.25H269.274L235.952 3093.75ZM-102.746 3093.74H-69.7783L-102.746 3060.61V3093.74ZM-69.0605 3093.74H65.5547L32.2295 3060.25H-102.389L-69.0605 3093.74ZM371.283 3093.74H404.25V3060.61L371.283 3093.74ZM-102.389 3059.75H32.2295L65.5547 3026.26H-69.0635L-102.389 3059.75ZM32.9473 3059.75H99.748V2992.62L32.9473 3059.75ZM235.949 3059.75H370.058L336.732 3026.26H269.274L235.949 3059.75ZM371.283 3059.75H404.25V3026.62L371.283 3059.75ZM201.756 3059.74H235.231L268.811 3026L235.231 2992.25H201.756V3059.74ZM370.672 3059.64L403.893 3026.25H337.45L370.672 3059.64ZM-102.746 3059.39L-69.7783 3026.26H-102.746V3059.39ZM438.591 3025.89L471.916 3059.38V2992.1L438.591 2958.61V3025.89ZM-0.887695 3025.75H66.0625L99.3877 2992.26H32.4375L-0.887695 3025.75ZM269.274 3025.75H336.225L302.899 2992.26H235.949L269.274 3025.75ZM-102.746 3025.74H-69.2686L-35.6895 2992L-35.6924 2992L-69.2715 2958.25H-102.746V3025.74ZM-68.5527 3025.74H-1.60059L31.7246 2992.25H-35.2275L-68.5527 3025.74ZM336.942 3025.74H403.893L370.567 2992.25H303.617L336.942 3025.74ZM100.258 2991.89L100.362 2992L133.837 3025.64L167.416 2991.89V2958.25H133.941L133.837 2958.36L133.733 2958.25H100.258V2991.89ZM404.253 3025.39V2992.11L404.149 2992L404.253 2991.9V2958.26H337.453L404.253 3025.39ZM404.862 2992L438.083 3025.38V2958.61L404.862 2992ZM505.749 3025.38V2958.25H438.948L505.749 3025.38ZM-35.2256 2991.75H32.2324L65.5576 2958.26H-68.5508L-35.2256 2991.75ZM201.759 2991.74H234.727L201.759 2958.61V2991.74ZM235.444 2991.74H370.06L336.734 2958.25H202.119L235.444 2991.74ZM32.958 2991.74H99.4004L66.1787 2958.35L32.958 2991.74ZM99.748 2991.38V2958.25H66.7803L99.748 2991.38ZM167.924 2991.38L200.891 2958.25H167.924V2991.38ZM404.758 2991.38L437.726 2958.25H404.758V2991.38ZM235.698 2924L269.277 2957.75V2957.75H302.752V2890.26H269.277L235.698 2924ZM-102.746 2957.75H-69.7783L-102.746 2924.62V2957.75ZM-68.5508 2957.75H-1.75V2890.62L-68.5508 2957.75ZM-1.24512 2924.11V2957.75H65.9131V2924.11L32.334 2890.36L-1.24512 2924.11ZM66.4229 2957.75H99.3906L66.4229 2924.62V2957.75ZM100.258 2957.75H133.226L100.258 2924.62V2957.75ZM134.448 2957.75H268.557L235.231 2924.26H167.773L134.448 2957.75ZM370.778 2957.74H438.235L438.34 2957.64L438.443 2957.74H505.396L472.071 2924.25H337.453L370.778 2957.74ZM303.27 2957.74H370.07L303.27 2890.61V2957.74ZM133.847 2957.63L167.068 2924.25H100.626L133.847 2957.63ZM505.749 2957.39V2924.26H472.781L505.749 2957.39ZM-68.9111 2890.1V2957.38L-35.5859 2923.89V2856.61L-68.9111 2890.1ZM-102.643 2924L-69.4209 2957.38V2890.62L-102.643 2924ZM66.4326 2923.89L99.7578 2957.38V2924.1L99.6543 2923.99L99.7578 2923.89V2822.1L99.6543 2822L66.4326 2788.61V2923.89ZM438.694 2890L472.273 2923.75V2923.75H505.749V2856.26H472.273L438.694 2890ZM168.284 2923.75H235.233L268.559 2890.26H201.609L168.284 2923.75ZM404.61 2923.74H471.561L438.235 2890.25H371.285L404.61 2923.74ZM100.626 2923.74H167.576L200.901 2890.25H133.951L100.626 2923.74ZM336.953 2923.74H403.903L370.577 2890.25H303.628L336.953 2923.74ZM-102.746 2923.38L-69.4209 2889.89V2822.11L-102.746 2788.62V2923.38ZM-35.0781 2788.1V2923.38L-1.75293 2889.89V2788.1L-1.85742 2788L-1.75293 2787.89V2754.61L-35.0781 2788.1ZM-1.24316 2923.38L32.082 2889.89V2822.1L-1.24316 2788.61V2923.38ZM32.5977 2889.89L65.9229 2923.38V2856.1L32.5977 2822.61V2889.89ZM100.261 2923.38L167.061 2856.25H133.946L133.842 2856.36L133.738 2856.25H100.261V2923.38ZM134.448 2889.74H269.066L302.392 2856.25H167.773L134.448 2889.74ZM269.782 2889.74H302.75V2856.61L269.782 2889.74ZM370.778 2889.74H438.235L471.561 2856.25H337.453L370.778 2889.74ZM303.628 2889.74H370.07L336.849 2856.35L303.628 2889.74ZM-68.9131 2822.11V2889.38L-35.5879 2855.9V2788.62L-68.9131 2822.11ZM303.27 2889.38L336.237 2856.25H303.27V2889.38ZM303.26 2855.75H336.734L370.313 2822V2822L336.734 2788.25H303.26V2855.75ZM337.453 2855.75H471.561L438.235 2822.26H370.778L337.453 2855.75ZM472.781 2855.75H505.749V2822.62L472.781 2855.75ZM134.454 2855.74H201.254V2788.61L134.454 2855.74ZM201.762 2822.1H201.759V2855.74H268.919V2822.1L235.341 2788.36L201.762 2822.1ZM269.43 2855.74H302.396L269.43 2822.61V2855.74ZM100.261 2855.74H133.228L100.261 2822.61V2855.74ZM472.175 2855.64L505.396 2822.26H438.954L472.175 2855.64ZM32.5977 2821.89L65.9229 2855.38V2788.1L32.5977 2754.61V2821.89ZM269.43 2821.89L302.755 2855.38V2720.1L302.65 2720L269.43 2686.61V2821.89ZM100.364 2822L133.586 2855.38V2788.61L100.364 2822ZM134.094 2788.1V2855.38L167.419 2821.89V2754.61L134.094 2788.1ZM370.775 2821.75H437.726L404.4 2788.26H337.45L370.775 2821.75ZM438.446 2821.75H505.396L472.071 2788.26H405.121L438.446 2821.75ZM-102.746 2787.89L-69.165 2821.64L-35.5859 2787.89V2754.25H-102.746V2787.89ZM505.749 2821.38V2754.25H438.948L505.749 2821.38ZM-1.13672 2788L32.085 2821.38V2754.61L-1.13672 2788ZM99.7559 2821.38V2754.25H32.9551L99.7559 2821.38ZM100.261 2821.38L133.586 2787.89V2720.1L100.261 2686.61V2821.38ZM167.929 2686.1V2821.38L201.254 2787.89V2686.1L201.149 2686L201.254 2685.89V2652.61L167.929 2686.1ZM201.762 2821.38L235.087 2787.89V2720.1L201.762 2686.61V2821.38ZM235.594 2787.89L268.919 2821.38V2754.1L235.594 2720.61V2787.89ZM336.945 2787.75H471.561L438.235 2754.26H336.945L336.841 2754.36L336.737 2754.26H303.62L336.945 2787.75ZM303.27 2787.74H336.237L303.27 2754.61V2787.74ZM-35.0811 2787.38L-2.11328 2754.25H-35.0811V2787.38ZM-1.24316 2787.38L31.7246 2754.25H-1.24316V2787.38ZM134.094 2720.1V2787.38L167.419 2753.89V2686.61L134.094 2720.1ZM-68.5527 2753.75H-1.75293V2686.62L-68.5527 2753.75ZM303.263 2753.74H336.229L303.263 2720.61V2753.74ZM337.458 2753.74H404.258V2686.61L337.458 2753.74ZM-0.875 2753.74H32.0928V2720.61L-0.875 2753.74ZM32.5977 2720.1V2753.74H99.7578V2720.1L66.1787 2686.36H66.1768L32.5977 2720.1ZM-1.24512 2618.11V2685.9L-1.1416 2686L-1.24512 2686.11V2753.39L32.0801 2719.9V2584.62L-1.24512 2618.11ZM235.597 2719.89L268.922 2753.38V2686.1L235.597 2652.61V2719.89ZM303.366 2720L336.588 2753.38V2686.61L303.366 2720ZM337.093 2686.1V2753.38L370.418 2719.89V2652.61L337.093 2686.1ZM404.756 2753.38L437.723 2720.25H404.756V2753.38ZM-102.389 2719.75H-35.4385L-2.11328 2686.26H-69.0635L-102.389 2719.75ZM404.756 2719.74H438.23V2719.74L471.81 2686L438.335 2652.36L438.23 2652.25H404.756V2719.74ZM100.261 2685.89L133.84 2719.64L167.419 2685.89V2652.25H100.261V2685.89ZM66.4229 2618.11V2685.89L99.748 2719.38V2584.62L66.4229 2618.11ZM370.925 2584.1V2719.38L404.25 2685.89V2618.1L404.146 2618L404.25 2617.89V2550.61L370.925 2584.1ZM32.5996 2652.1V2719.38L65.9258 2685.89V2618.61L32.5996 2652.1ZM201.865 2686L235.087 2719.38V2652.61L201.865 2686ZM302.752 2719.38V2652.25H269.277L269.173 2652.36L269.069 2652.25H235.952L302.752 2719.38ZM303.263 2617.89L303.366 2618L303.263 2618.1V2719.38L336.588 2685.89V2618.1L303.263 2584.61V2617.89ZM-68.5527 2685.74H-2.11035L-35.332 2652.36L-68.5527 2685.74ZM-1.75293 2685.38V2652.25H-34.7207L-1.75293 2685.38ZM167.929 2685.38L200.896 2652.25H167.929V2685.38ZM201.762 2685.38L234.729 2652.25H201.762V2685.38ZM337.098 2618.1V2685.38L370.423 2651.89V2584.61L337.098 2618.1ZM-35.2275 2584.26L-68.8066 2618L-35.332 2651.64L-35.2275 2651.75H-1.75293V2584.25H-35.2275V2584.26ZM134.456 2651.74H235.239L235.343 2651.64L235.447 2651.74H268.562L235.236 2618.25H167.781L134.456 2651.74ZM269.787 2651.74H302.755V2618.61L269.787 2651.74ZM404.756 2651.74H437.723L404.756 2618.61V2651.74ZM100.261 2651.74H133.735L167.314 2618L133.735 2584.25H100.261V2651.74ZM269.173 2651.64L302.395 2618.25H235.952L269.173 2651.64ZM438.335 2651.64L471.556 2618.25H405.113L438.335 2651.64ZM32.5996 2584.1V2651.38L65.9258 2617.89V2550.61L32.5996 2584.1ZM405.113 2617.74H472.063L505.389 2584.25H438.438L405.113 2617.74ZM167.779 2617.74H234.729L201.403 2584.25H134.454L167.779 2617.74ZM235.447 2617.74H302.396L269.071 2584.25H202.122L235.447 2617.74ZM303.265 2583.89L336.844 2617.64H336.847L370.426 2583.89V2550.25H303.265V2583.89ZM66.4307 2617.38L99.6514 2584L66.4307 2550.61V2617.38ZM404.753 2617.38L471.553 2550.25H404.753V2617.38ZM-1.23242 2617.38L65.5674 2550.25H-1.23242V2617.38ZM302.755 2617.38V2550.25H235.954L302.755 2617.38ZM-34.7207 2583.74H-1.75293V2550.61L-34.7207 2583.74ZM133.938 2583.74H268.557L235.231 2550.25H133.941L133.837 2550.36H133.834L133.73 2550.25H100.613L133.938 2583.74ZM100.261 2583.74H133.228L100.261 2550.61V2583.74ZM99.7559 2583.38V2550.25H66.7881L99.7559 2583.38ZM370.933 2583.38L403.9 2550.25H370.933V2583.38ZM201.756 2549.75H234.724L201.756 2516.62V2549.75ZM235.949 2549.75H370.058L336.732 2516.26H269.274L235.949 2549.75ZM337.196 2516L370.775 2549.75H404.25V2482.26H370.775L337.196 2516ZM404.756 2516.11V2549.75H471.916V2516.11L438.337 2482.36H438.335L404.756 2516.11ZM472.424 2549.75H505.391L472.424 2516.62V2549.75ZM-102.746 2549.74H-69.2715L-35.6924 2516L-69.2715 2482.25H-102.746V2549.74ZM-68.5527 2549.74H65.5547L32.2295 2516.25H-35.2275L-68.5527 2549.74ZM66.791 2549.74H99.7578V2516.61L66.791 2549.74ZM100.256 2549.74H133.223L100.256 2516.61V2549.74ZM134.448 2549.74H201.249V2516.1L201.145 2516L201.249 2515.89V2482.61L134.448 2549.74ZM66.1787 2549.64L99.4004 2516.25H32.958L66.1787 2549.64ZM235.346 2549.64L268.566 2516.25H202.124L235.346 2549.64ZM100.362 2516L133.583 2549.38V2482.61L100.362 2516ZM134.091 2482.11V2549.38L167.416 2515.89V2448.61L134.091 2482.11ZM32.4404 2515.75H99.3906L66.0645 2482.26H-0.884766L32.4404 2515.75ZM202.116 2515.75H269.066L302.392 2482.26H235.441L202.116 2515.75ZM-35.2275 2515.74H31.7217L-1.60352 2482.25H-68.5527L-35.2275 2515.74ZM269.782 2515.74H336.732L370.058 2482.25H303.107L269.782 2515.74ZM99.748 2515.38V2448.25H32.9473L99.748 2515.38ZM201.756 2515.38L268.557 2448.25H201.756V2515.38ZM235.952 2481.75H370.57L370.567 2481.74L403.893 2448.25H269.274L235.952 2481.75ZM-102.746 2481.74H-69.7783L-102.746 2448.61V2481.74ZM-69.0605 2481.74H65.5547L32.2295 2448.25H-102.389L-69.0605 2481.74ZM371.283 2481.74H404.25V2448.61L371.283 2481.74ZM-69.0635 2414.26L-102.389 2447.75H32.2295L65.5547 2414.26H-69.0635ZM32.9473 2447.75H99.748V2380.62L32.9473 2447.75ZM371.283 2447.75H404.25V2414.62L371.283 2447.75ZM269.274 2414.26L235.949 2447.75H370.058L336.732 2414.26H269.274ZM201.756 2447.74H235.231L268.811 2414L235.231 2380.25H201.756V2447.74ZM337.45 2414.25L370.672 2447.64L403.893 2414.25H337.45ZM-102.746 2414.26V2447.39L-69.7783 2414.26H-102.746ZM438.591 2413.89L471.916 2447.38V2380.1L438.591 2346.61V2413.89ZM32.4375 2380.26L-0.887695 2413.75H66.0625L99.3877 2380.26H32.4375ZM235.949 2380.26L269.274 2413.75H336.225L302.899 2380.26H235.949ZM-102.746 2346.25V2413.74H-69.2686L-35.6895 2380L-35.6924 2380L-69.2715 2346.25H-102.746ZM-35.2275 2380.25L-68.5527 2413.74H-1.60059L31.7246 2380.25H-35.2275ZM303.617 2380.25L336.942 2413.74H403.893L370.567 2380.25H303.617ZM100.258 2346.25V2379.89L100.362 2380L133.837 2413.64L167.416 2379.89V2346.25H133.941L133.837 2346.36L133.733 2346.25H100.258ZM337.453 2346.26L404.253 2413.39V2380.11L404.149 2380L404.253 2379.9V2346.26H337.453ZM404.862 2380L438.083 2413.38V2346.61L404.862 2380ZM438.948 2346.25L505.749 2413.38V2346.25H438.948ZM-68.5508 2346.26L-35.2256 2379.75H32.2324L65.5576 2346.26H-68.5508ZM201.759 2379.74H234.727L201.759 2346.61V2379.74ZM202.119 2346.25L235.444 2379.74H370.06L336.734 2346.25H202.119ZM32.958 2379.74H99.4004L66.1787 2346.35L32.958 2379.74ZM66.7803 2346.25L99.748 2379.38V2346.25H66.7803ZM167.924 2346.25V2379.38L200.891 2346.25H167.924ZM404.758 2346.25V2379.38L437.726 2346.25H404.758ZM269.277 2278.26L235.698 2312L269.277 2345.75V2345.75H302.752V2278.26H269.277ZM-102.746 2345.75H-69.7783L-102.746 2312.62V2345.75ZM-68.5508 2345.75H-1.75V2278.62L-68.5508 2345.75ZM-1.24512 2312.11V2345.75H65.9131V2312.11L32.334 2278.36L-1.24512 2312.11ZM66.4229 2345.75H99.3906L66.4229 2312.62V2345.75ZM100.258 2345.75H133.226L100.258 2312.62V2345.75ZM167.773 2312.26L134.448 2345.75H268.557L235.231 2312.26H167.773ZM337.453 2312.25L370.778 2345.74H438.235L438.34 2345.64L438.443 2345.74H505.396L472.071 2312.25H337.453ZM303.27 2345.74H370.07L303.27 2278.61V2345.74ZM100.626 2312.25L133.847 2345.63L167.068 2312.25H100.626ZM472.781 2312.26L505.749 2345.39V2312.26H472.781ZM-68.9111 2278.1V2345.38L-35.5859 2311.89V2244.61L-68.9111 2278.1ZM-102.643 2312L-69.4209 2345.38V2278.62L-102.643 2312ZM66.4326 2311.89L99.7578 2345.38V2312.1L99.6543 2311.99L99.7578 2311.89V2210.1L99.6543 2210L66.4326 2176.61V2311.89ZM472.273 2244.26L438.694 2278L472.273 2311.75V2311.75H505.749V2244.26H472.273ZM201.609 2278.26L168.284 2311.75H235.233L268.559 2278.26H201.609ZM371.285 2278.25L404.61 2311.74H471.561L438.235 2278.25H371.285ZM133.951 2278.25L100.626 2311.74H167.576L200.901 2278.25H133.951ZM303.628 2278.25L336.953 2311.74H403.903L370.577 2278.25H303.628ZM-102.746 2311.38L-69.4209 2277.89V2210.11L-102.746 2176.62V2311.38ZM-35.0781 2176.1V2311.38L-1.75293 2277.89V2176.1L-1.85742 2176L-1.75293 2175.89V2142.61L-35.0781 2176.1ZM-1.24316 2311.38L32.082 2277.89V2210.1L-1.24316 2176.61V2311.38ZM32.5977 2277.89L65.9229 2311.38V2244.1L32.5977 2210.61V2277.89ZM100.261 2244.25V2311.38L167.061 2244.25H133.946L133.842 2244.36L133.738 2244.25H100.261ZM167.773 2244.25L134.448 2277.74H269.066L302.392 2244.25H167.773ZM269.782 2277.74H302.75V2244.61L269.782 2277.74ZM337.453 2244.25L370.778 2277.74H438.235L471.561 2244.25H337.453ZM303.628 2277.74H370.07L336.849 2244.35L303.628 2277.74ZM-68.9131 2210.11V2277.38L-35.5879 2243.9V2176.62L-68.9131 2210.11ZM303.27 2244.25V2277.38L336.237 2244.25H303.27ZM303.26 2176.25V2243.75H336.734L370.313 2210V2210L336.734 2176.25H303.26ZM472.781 2243.75H505.749V2210.62L472.781 2243.75ZM370.778 2210.26L337.453 2243.75H471.561L438.235 2210.26H370.778ZM134.454 2243.74H201.254V2176.61L134.454 2243.74ZM201.762 2210.1H201.759V2243.74H268.919V2210.1L235.341 2176.36L201.762 2210.1ZM269.43 2243.74H302.396L269.43 2210.61V2243.74ZM100.261 2243.74H133.228L100.261 2210.61V2243.74ZM438.954 2210.26L472.175 2243.64L505.396 2210.26H438.954ZM32.5977 2209.89L65.9229 2243.38V2176.1L32.5977 2142.61V2209.89ZM269.43 2209.89L302.755 2243.38V2108.1L302.65 2108L269.43 2074.61V2209.89ZM100.364 2210L133.586 2243.38V2176.61L100.364 2210ZM134.094 2176.1V2243.38L167.419 2209.89V2142.61L134.094 2176.1ZM337.45 2176.26L370.775 2209.75H437.726L404.4 2176.26H337.45ZM405.121 2176.26L438.446 2209.75H505.396L472.071 2176.26H405.121ZM-102.746 2142.25V2175.89L-69.165 2209.64L-35.5859 2175.89V2142.25H-102.746ZM438.948 2142.25L505.749 2209.38V2142.25H438.948ZM-1.13672 2176L32.085 2209.38V2142.61L-1.13672 2176ZM32.9551 2142.25L99.7559 2209.38V2142.25H32.9551ZM100.261 2209.38L133.586 2175.89V2108.1L100.261 2074.61V2209.38ZM167.929 2074.1V2209.38L201.254 2175.89V2074.1L201.149 2074L201.254 2073.89V2040.61L167.929 2074.1ZM201.762 2209.38L235.087 2175.89V2108.1L201.762 2074.61V2209.38ZM235.594 2175.89L268.919 2209.38V2142.1L235.594 2108.61V2175.89ZM303.62 2142.26L336.945 2175.75H471.561L438.235 2142.26H336.945L336.841 2142.36L336.737 2142.26H303.62ZM303.27 2175.74H336.237L303.27 2142.61V2175.74ZM-35.0811 2142.25V2175.38L-2.11328 2142.25H-35.0811ZM-1.24316 2142.25V2175.38L31.7246 2142.25H-1.24316ZM134.094 2108.1V2175.38L167.419 2141.89V2074.61L134.094 2108.1ZM-68.5527 2141.75H-1.75293V2074.62L-68.5527 2141.75ZM303.263 2141.74H336.229L303.263 2108.61V2141.74ZM337.458 2141.74H404.258V2074.61L337.458 2141.74ZM-0.875 2141.74H32.0928V2108.61L-0.875 2141.74ZM66.1768 2074.36L32.5977 2108.1V2141.74H99.7578V2108.1L66.1787 2074.36H66.1768ZM-1.24512 2006.11V2073.9L-1.1416 2074L-1.24512 2074.11V2141.39L32.0801 2107.9V1972.62L-1.24512 2006.11ZM235.597 2107.89L268.922 2141.38V2074.1L235.597 2040.61V2107.89ZM303.366 2108L336.588 2141.38V2074.61L303.366 2108ZM337.093 2074.1V2141.38L370.418 2107.89V2040.61L337.093 2074.1ZM404.756 2108.25V2141.38L437.723 2108.25H404.756ZM-69.0635 2074.26L-102.389 2107.75H-35.4385L-2.11328 2074.26H-69.0635ZM404.756 2040.25V2107.74H438.23V2107.74L471.81 2074L438.335 2040.36L438.23 2040.25H404.756ZM100.261 2040.25V2073.89L133.84 2107.64L167.419 2073.89V2040.25H100.261ZM66.4229 2006.11V2073.89L99.748 2107.38V1972.62L66.4229 2006.11ZM370.925 1972.1V2107.38L404.25 2073.89V2006.1L404.146 2006L404.25 2005.89V1938.61L370.925 1972.1ZM32.5996 2040.1V2107.38L65.9258 2073.89V2006.61L32.5996 2040.1ZM201.865 2074L235.087 2107.38V2040.61L201.865 2074ZM235.952 2040.25L302.752 2107.38V2040.25H269.277L269.173 2040.36L269.069 2040.25H235.952ZM303.263 2005.89L303.366 2006L303.263 2006.1V2107.38L336.588 2073.89V2006.1L303.263 1972.61V2005.89ZM-68.5527 2073.74H-2.11035L-35.332 2040.36L-68.5527 2073.74ZM-34.7207 2040.25L-1.75293 2073.38V2040.25H-34.7207ZM167.929 2040.25V2073.38L200.896 2040.25H167.929ZM201.762 2040.25V2073.38L234.729 2040.25H201.762ZM337.098 2006.1V2073.38L370.423 2039.89V1972.61L337.098 2006.1ZM-35.2275 1972.25V1972.26L-68.8066 2006L-35.332 2039.64L-35.2275 2039.75H-1.75293V1972.25H-35.2275ZM167.781 2006.25L134.456 2039.74H235.239L235.343 2039.64L235.447 2039.74H268.562L235.236 2006.25H167.781ZM269.787 2039.74H302.755V2006.61L269.787 2039.74ZM404.756 2039.74H437.723L404.756 2006.61V2039.74ZM100.261 2039.74H133.735L167.314 2006L133.735 1972.25H100.261V2039.74ZM235.952 2006.25L269.173 2039.64L302.395 2006.25H235.952ZM405.113 2006.25L438.335 2039.64L471.556 2006.25H405.113ZM32.5996 1972.1V2039.38L65.9258 2005.89V1938.61L32.5996 1972.1ZM438.438 1972.25L405.113 2005.74H472.063L505.389 1972.25H438.438ZM134.454 1972.25L167.779 2005.74H234.729L201.403 1972.25H134.454ZM202.122 1972.25L235.447 2005.74H302.396L269.071 1972.25H202.122ZM303.265 1938.25V1971.89L336.844 2005.64H336.847L370.426 1971.89V1938.25H303.265ZM66.4307 2005.38L99.6514 1972L66.4307 1938.61V2005.38ZM404.753 1938.25V2005.38L471.553 1938.25H404.753ZM-1.23242 1938.25V2005.38L65.5674 1938.25H-1.23242ZM235.954 1938.25L302.755 2005.38V1938.25H235.954ZM-34.7207 1971.74H-1.75293V1938.61L-34.7207 1971.74ZM100.613 1938.25L133.938 1971.74H268.557L235.231 1938.25H133.941L133.837 1938.36H133.834L133.73 1938.25H100.613ZM100.261 1971.74H133.228L100.261 1938.61V1971.74ZM66.7881 1938.25L99.7559 1971.38V1938.25H66.7881ZM370.933 1938.25V1971.38L403.9 1938.25H370.933ZM201.756 1937.75H234.724L201.756 1904.62V1937.75ZM269.274 1904.26L235.949 1937.75H370.058L336.732 1904.26H269.274ZM370.775 1870.26L337.196 1904L370.775 1937.75H404.25V1870.26H370.775ZM438.335 1870.36L404.756 1904.11V1937.75H471.916V1904.11L438.337 1870.36H438.335ZM472.424 1937.75H505.391L472.424 1904.62V1937.75ZM-102.746 1870.25V1937.74H-69.2715L-35.6924 1904L-69.2715 1870.25H-102.746ZM-35.2275 1904.25L-68.5527 1937.74H65.5547L32.2295 1904.25H-35.2275ZM66.791 1937.74H99.7578V1904.61L66.791 1937.74ZM100.256 1937.74H133.223L100.256 1904.61V1937.74ZM134.448 1937.74H201.249V1904.1L201.145 1904L201.249 1903.89V1870.61L134.448 1937.74ZM32.958 1904.25L66.1787 1937.64L99.4004 1904.25H32.958ZM202.124 1904.25L235.346 1937.64L268.566 1904.25H202.124ZM100.362 1904L133.583 1937.38V1870.61L100.362 1904ZM134.091 1870.11V1937.38L167.416 1903.89V1836.61L134.091 1870.11ZM-0.884766 1870.26L32.4404 1903.75H99.3906L66.0645 1870.26H-0.884766ZM235.441 1870.26L202.116 1903.75H269.066L302.392 1870.26H235.441ZM-68.5527 1870.25L-35.2275 1903.74H31.7217L-1.60352 1870.25H-68.5527ZM303.107 1870.25L269.782 1903.74H336.732L370.058 1870.25H303.107ZM32.9473 1836.25L99.748 1903.38V1836.25H32.9473ZM201.756 1836.25V1903.38L268.557 1836.25H201.756ZM269.274 1836.25L235.952 1869.75H370.57L370.567 1869.74L403.893 1836.25H269.274ZM-102.746 1869.74H-69.7783L-102.746 1836.61V1869.74ZM-102.389 1836.25L-69.0605 1869.74H65.5547L32.2295 1836.25H-102.389ZM371.283 1869.74H404.25V1836.61L371.283 1869.74ZM438.594 2481.89L471.919 2515.38V2448.1L471.814 2448H471.81L438.588 2414.62V2448H438.594V2481.89ZM472.426 2515.9L505.751 2549.39V2448H505.746V2414.11L472.421 2380.62V2448H472.426V2515.9ZM505.997 2550.26H472.269L438.943 2583.75H505.997V2584.36L472.776 2617.75H505.997V2618.26H472.269L438.943 2651.75H505.997V2652.26H438.943L472.269 2685.75H505.997V2686.26H472.269L438.943 2719.75H505.894L505.997 2719.64V2720.26H438.436L405.11 2753.75H506V3060H505.997V3162.26H472.269L438.943 3195.75H505.997V3196.36L472.776 3229.75H505.997V3230.26H472.269L438.943 3263.75H505.997V3264.26H438.943L472.269 3297.75H505.997V3298.26H472.269L438.943 3331.75H505.894L505.997 3331.64V3332.26H438.436L405.11 3365.75H506V3672H505.746V3638.11L472.421 3604.62V3672H471.81L438.588 3638.62V3672H438.081V3638.11L404.756 3604.62V3637.9L404.859 3638L404.756 3638.11V3672H201.246V3570.61L167.921 3604.1V3672H167.31L167.413 3671.89V3604.61L134.088 3638.1V3672H133.581V3638.1L100.256 3604.61V3672H-103V3365.74H-69.2715L-35.9463 3332.25H-103V3331.64L-69.7783 3298.25H-103V3297.74H-69.2715L-35.9463 3264.25H-103V3263.74H-35.9463L-69.2715 3230.25H-103V3229.74H-69.2715L-35.9463 3196.25H-102.896L-103 3196.36V3195.74H-35.4355L-2.11035 3162.25H-103V3060H100.261V3127.38L133.586 3093.89V3060H134.094V3093.38L167.314 3060H167.926V3127.38L201.251 3093.89V3060H201.246V2958.61L167.921 2992.1V3060H167.31L167.413 3059.89V2992.61L134.088 3026.1V3060H133.581V3026.1L100.256 2992.61V3060H-103V2753.74H-69.2715L-35.9463 2720.25H-103V2719.64L-69.7783 2686.25H-103V2685.74H-69.2715L-35.9463 2652.25H-103V2651.74H-35.9463L-69.2715 2618.25H-103V2617.74H-69.2715L-35.9463 2584.25H-102.896L-103 2584.36V2583.74H-35.4355L-2.11035 2550.25H-103V2448H100.261V2515.38L133.586 2481.89V2448H134.094V2481.38L167.314 2448H167.926V2515.38L201.251 2481.89V2448H201.246V2346.61L167.921 2380.1V2448H167.31L167.413 2447.89V2380.61L134.088 2414.1V2448H133.581V2414.1L100.256 2380.61V2448H-103V2141.74H-69.2715L-35.9463 2108.25H-103V2107.64L-69.7783 2074.25H-103V2073.74H-69.2715L-35.9463 2040.25H-103V2039.74H-35.9463L-69.2715 2006.25H-103V2005.74H-69.2715L-35.9463 1972.25H-102.896L-103 1972.36V1971.74H-35.4355L-2.11035 1938.25H-103V1836H100.261V1903.38L133.586 1869.89V1836H134.094V1869.38L167.314 1836H167.926V1903.38L201.251 1869.89V1836H404.761V1903.38L438.086 1869.89V1836H438.594V1869.89L471.919 1903.38V1836.1L471.814 1836H472.426V1903.9L505.751 1937.39V1836H505.997V1938.26H472.269L438.943 1971.75H505.997V1972.36L472.776 2005.75H505.997V2006.26H472.269L438.943 2039.75H505.997V2040.26H438.943L472.269 2073.75H505.997V2074.26H472.269L438.943 2107.75H505.894L505.997 2107.64V2108.26H438.436L405.11 2141.75H506V2448H505.997V2550.26Z" fill="url(#paint1_linear_407_577)" fill-opacity="0.5"/>
<defs>
<linearGradient id="paint0_linear_407_577" x1="506" y1="918" x2="-103" y2="918" gradientUnits="userSpaceOnUse">
<stop offset="0.1" stop-color="#6D6174" stop-opacity="0"/>
<stop offset="0.5" stop-color="#6D6174"/>
<stop offset="0.9" stop-color="#6D6174" stop-opacity="0"/>
</linearGradient>
<linearGradient id="paint1_linear_407_577" x1="506" y1="2754" x2="-103" y2="2754" gradientUnits="userSpaceOnUse">
<stop offset="0.1" stop-color="#6D6174" stop-opacity="0"/>
<stop offset="0.5" stop-color="#6D6174"/>
<stop offset="0.9" stop-color="#6D6174" stop-opacity="0"/>
</linearGradient>
</defs>
</svg>
